<svg width="35.000000" height="35.000000" viewBox="0 0 35 35" fill="none" xmlns="http://www.w3.org/2000/svg" xmlns:xlink="http://www.w3.org/1999/xlink">
	<desc>
			Created with Pixso.
	</desc>
	<defs>
		<clipPath id="clip44_15">
			<rect id="Telegram" width="24.000000" height="24.000000" transform="translate(5.000000 6.000000)" fill="white" fill-opacity="0"/>
		</clipPath>
		<clipPath id="clip44_13">
			<rect id="Group 9 (2)" width="35.000000" height="35.000000" fill="white" fill-opacity="0"/>
		</clipPath>
	</defs>
	<rect id="Group 9 (2)" width="35.000000" height="35.000000" fill="#FFFFFF" fill-opacity="0"/>
	<g clip-path="url(#clip44_13)">
		<path id="Vector" d="M34.87 17.43C34.87 27.06 27.06 34.87 17.43 34.87C7.8 34.87 0 27.06 0 17.43C0 7.8 7.8 0 17.43 0C27.06 0 34.87 7.8 34.87 17.43Z" fill="#F15525" fill-opacity="1.000000" fill-rule="nonzero"/>
		<g clip-path="url(#clip44_15)">
			<path id="path" d="M25.7 9.65C25.7 9.65 27.65 8.89 27.49 10.73C27.43 11.49 26.95 14.14 26.57 17.01L25.27 25.5C25.27 25.5 25.16 26.75 24.19 26.96C23.22 27.18 21.77 26.21 21.5 25.99C21.28 25.83 17.45 23.39 16.1 22.2C15.72 21.88 15.29 21.23 16.15 20.47L21.82 15.06C22.47 14.41 23.11 12.9 20.42 14.74L12.86 19.88C12.86 19.88 12 20.42 10.38 19.93L6.87 18.85C6.87 18.85 5.58 18.04 7.79 17.22C13.19 14.68 19.82 12.08 25.7 9.65Z" fill="#FFFFFF" fill-opacity="1.000000" fill-rule="nonzero"/>
		</g>
	</g>
</svg>
