<svg width="35.000000" height="35.000000" viewBox="0 0 35 35" fill="none" xmlns="http://www.w3.org/2000/svg" xmlns:xlink="http://www.w3.org/1999/xlink">
	<desc>
			Created with Pixso.
	</desc>
	<defs>
		<clipPath id="clip44_20">
			<rect id="github " width="24.000000" height="24.000000" transform="translate(5.000000 6.000000)" fill="white" fill-opacity="0"/>
		</clipPath>
		<clipPath id="clip44_18">
			<rect id="Group 9 (1)" width="35.000000" height="35.000000" fill="white" fill-opacity="0"/>
		</clipPath>
	</defs>
	<rect id="Group 9 (1)" width="35.000000" height="35.000000" fill="#FFFFFF" fill-opacity="0"/>
	<g clip-path="url(#clip44_18)">
		<path id="Vector" d="M34.88 17.43C34.88 27.06 27.08 34.87 17.45 34.87C7.82 34.87 0.01 27.06 0.01 17.43C0.01 7.8 7.82 0 17.45 0C27.08 0 34.88 7.8 34.88 17.43Z" fill="#F15525" fill-opacity="1.000000" fill-rule="nonzero"/>
		<g clip-path="url(#clip44_20)">
			<path id="path" d="M17 8C11.47 8 7 12.47 7 18C7 23.52 11.47 28 17 28C22.52 28 27 23.52 27 18C27 12.47 22.52 8 17 8ZM5 18C5 11.37 10.37 6 17 6C23.62 6 29 11.37 29 18C29 24.62 23.62 30 17 30C10.37 30 5 24.62 5 18Z" fill="#FFFFFF" fill-opacity="1.000000" fill-rule="evenodd"/>
			<path id="path" d="M14.59 28.73C14.49 28.61 14.49 27.49 14.59 25.39C13.55 25.43 12.9 25.36 12.62 25.18C12.21 24.91 11.8 24.08 11.44 23.49C11.08 22.91 10.27 22.82 9.94 22.68C9.62 22.55 9.53 22.02 10.84 22.42C12.15 22.83 12.21 23.93 12.62 24.18C13.04 24.44 14.02 24.33 14.47 24.12C14.91 23.92 14.88 23.15 14.96 22.85C15.06 22.56 14.71 22.5 14.7 22.5C14.26 22.5 11.97 22 11.34 19.78C10.71 17.56 11.52 16.11 11.96 15.49C12.24 15.07 12.22 14.19 11.88 12.83C13.11 12.67 14.06 13.06 14.73 14C14.73 14 15.61 13.47 17 13.47C18.38 13.47 18.87 13.9 19.25 14C19.63 14.09 19.93 12.36 22.28 12.83C21.79 13.79 21.38 15 21.69 15.49C22 15.98 23.23 17.55 22.48 19.78C21.98 21.27 20.99 22.17 19.51 22.5C19.35 22.55 19.26 22.64 19.26 22.76C19.26 22.94 19.49 22.96 19.82 23.8C20.04 24.36 20.05 25.97 19.87 28.62C19.39 28.74 19.02 28.82 18.76 28.86C18.29 28.94 17.78 28.98 17.28 28.99C16.78 29.01 16.6 29.01 15.91 28.94C15.45 28.9 15.01 28.83 14.59 28.73Z" fill="#FFFFFF" fill-opacity="1.000000" fill-rule="evenodd"/>
		</g>
	</g>
</svg>
