<svg width="71.344727" height="71.344482" viewBox="0 0 71.3447 71.3445" fill="none" xmlns="http://www.w3.org/2000/svg" xmlns:xlink="http://www.w3.org/1999/xlink">
	<desc>
			Created with Pixso.
	</desc>
	<defs>
		<clipPath id="clip25_60">
			<rect id="svg-gobbler (3) 1" rx="-0.500000" width="70.344437" height="70.344437" transform="translate(0.500000 0.500000)" fill="white" fill-opacity="0"/>
		</clipPath>
	</defs>
	<rect id="svg-gobbler (3) 1" rx="-0.500000" width="70.344437" height="70.344437" transform="translate(0.500000 0.500000)" fill="#FFFFFF" fill-opacity="0"/>
	<g clip-path="url(#clip25_60)">
		<path id="Vector" d="M63.55 10.7L63.55 62.81C63.55 64.18 62.44 65.29 61.07 65.29L10.97 65.29C9.6 65.29 8.49 64.18 8.49 62.81L8.49 59.57C7.16 59.57 5.95 59.02 5.07 58.15C4.19 57.28 3.65 56.06 3.65 54.72L8.49 54.72L8.49 10.7C8.49 9.33 9.6 8.23 10.97 8.23L61.07 8.23C62.44 8.23 63.55 9.33 63.55 10.7Z" fill="#FFFFFF" fill-opacity="1.000000" fill-rule="nonzero"/>
		<path id="Vector 7" d="M4.57 54.42C4.87 55.94 6.12 58.99 8.68 58.99L58.85 58.99C59.07 59.02 59.28 59.01 59.45 58.99L58.85 58.99C57.49 58.85 55.36 57.73 54.42 53.96L4.57 54.42Z" fill="#F15525" fill-opacity="1.000000" fill-rule="evenodd"/>
		<path id="Vector" d="M19.18 27.44C17.02 27.44 15.26 29.19 15.26 31.34C15.26 33.5 17.02 35.25 19.18 35.25C21.33 35.25 23.08 33.5 23.08 31.34C23.08 29.19 21.33 27.44 19.18 27.44Z" fill="#F15525" fill-opacity="1.000000" fill-rule="nonzero"/>
		<path id="Vector" d="M19.18 27.44C17.02 27.44 15.26 29.19 15.26 31.34C15.26 33.5 17.02 35.25 19.18 35.25C21.33 35.25 23.08 33.5 23.08 31.34C23.08 29.19 21.33 27.44 19.18 27.44ZM19.18 33.95C17.74 33.95 16.56 32.78 16.56 31.34C16.56 29.91 17.74 28.74 19.18 28.74C20.61 28.74 21.78 29.91 21.78 31.34C21.78 32.78 20.61 33.95 19.18 33.95Z" fill="#1A2E35" fill-opacity="1.000000" fill-rule="nonzero"/>
		<path id="Vector" d="M30.75 27.44C28.59 27.44 26.83 29.19 26.83 31.34C26.83 33.5 28.59 35.25 30.75 35.25C32.9 35.25 34.66 33.5 34.66 31.34C34.66 29.19 32.9 27.44 30.75 27.44Z" fill="#F15525" fill-opacity="1.000000" fill-rule="nonzero"/>
		<path id="Vector" d="M30.75 27.44C28.59 27.44 26.83 29.19 26.83 31.34C26.83 33.5 28.59 35.25 30.75 35.25C32.9 35.25 34.66 33.5 34.66 31.34C34.66 29.19 32.9 27.44 30.75 27.44ZM30.75 33.95C29.31 33.95 28.13 32.78 28.13 31.34C28.13 29.91 29.31 28.74 30.75 28.74C32.18 28.74 33.35 29.91 33.35 31.34C33.35 32.78 32.18 33.95 30.75 33.95Z" fill="#1A2E35" fill-opacity="1.000000" fill-rule="nonzero"/>
		<path id="Vector" d="M42.32 27.51C40.16 27.51 38.4 29.27 38.4 31.42C38.4 33.58 40.16 35.33 42.32 35.33C44.47 35.33 46.23 33.58 46.23 31.42C46.23 29.27 44.47 27.51 42.32 27.51Z" fill="#F15525" fill-opacity="1.000000" fill-rule="nonzero"/>
		<path id="Vector" d="M42.32 27.44C40.16 27.44 38.4 29.19 38.4 31.34C38.4 33.5 40.16 35.25 42.32 35.25C44.47 35.25 46.23 33.5 46.23 31.34C46.23 29.19 44.47 27.44 42.32 27.44ZM42.32 33.95C40.88 33.95 39.71 32.78 39.71 31.34C39.71 29.91 40.88 28.74 42.32 28.74C43.76 28.74 44.92 29.91 44.92 31.34C44.92 32.78 43.76 33.95 42.32 33.95Z" fill="#1A2E35" fill-opacity="1.000000" fill-rule="nonzero"/>
		<path id="Vector" d="M53.89 35.25C56.05 35.25 57.8 33.5 57.8 31.34C57.8 29.19 56.05 27.44 53.89 27.44C51.73 27.44 49.98 29.19 49.98 31.34C49.98 33.5 51.73 35.25 53.89 35.25Z" fill="#F15525" fill-opacity="1.000000" fill-rule="nonzero"/>
		<path id="Vector" d="M53.89 35.25C56.05 35.25 57.8 33.5 57.8 31.34C57.8 29.19 56.05 27.44 53.89 27.44C51.73 27.44 49.98 29.19 49.98 31.34C49.98 33.5 51.73 35.25 53.89 35.25ZM53.89 28.74C55.33 28.74 56.5 29.91 56.5 31.34C56.5 32.78 55.33 33.95 53.89 33.95C52.45 33.95 51.28 32.78 51.28 31.34C51.28 29.91 52.45 28.74 53.89 28.74Z" fill="#1A2E35" fill-opacity="1.000000" fill-rule="nonzero"/>
		<path id="Vector" d="M19.18 38.41C17.02 38.41 15.26 40.16 15.26 42.32C15.26 44.47 17.02 46.23 19.18 46.23C21.33 46.23 23.08 44.47 23.08 42.32C23.08 40.16 21.33 38.41 19.18 38.41Z" fill="#F15525" fill-opacity="1.000000" fill-rule="nonzero"/>
		<path id="Vector" d="M19.18 38.41C17.02 38.41 15.26 40.16 15.26 42.32C15.26 44.47 17.02 46.23 19.18 46.23C21.33 46.23 23.08 44.47 23.08 42.32C23.08 40.16 21.33 38.41 19.18 38.41ZM19.18 44.92C17.74 44.92 16.56 43.75 16.56 42.32C16.56 40.88 17.74 39.71 19.18 39.71C20.61 39.71 21.78 40.88 21.78 42.32C21.78 43.75 20.61 44.92 19.18 44.92Z" fill="#1A2E35" fill-opacity="1.000000" fill-rule="nonzero"/>
		<path id="Vector" d="M30.75 38.41C28.59 38.41 26.83 40.16 26.83 42.32C26.83 44.47 28.59 46.23 30.75 46.23C32.9 46.23 34.66 44.47 34.66 42.32C34.66 40.16 32.9 38.41 30.75 38.41Z" fill="#F15525" fill-opacity="1.000000" fill-rule="nonzero"/>
		<path id="Vector" d="M30.75 38.41C28.59 38.41 26.83 40.16 26.83 42.32C26.83 44.47 28.59 46.23 30.75 46.23C32.9 46.23 34.66 44.47 34.66 42.32C34.66 40.16 32.9 38.41 30.75 38.41ZM30.75 44.92C29.31 44.92 28.13 43.75 28.13 42.32C28.13 40.88 29.31 39.71 30.75 39.71C32.18 39.71 33.35 40.88 33.35 42.32C33.35 43.75 32.18 44.92 30.75 44.92Z" fill="#1A2E35" fill-opacity="1.000000" fill-rule="nonzero"/>
		<path id="Vector" d="M42.32 38.41C40.16 38.41 38.4 40.16 38.4 42.32C38.4 44.47 40.16 46.23 42.32 46.23C44.47 46.23 46.23 44.47 46.23 42.32C46.23 40.16 44.47 38.41 42.32 38.41ZM42.32 44.92C40.88 44.92 39.71 43.75 39.71 42.32C39.71 40.88 40.88 39.71 42.32 39.71C43.75 39.71 44.92 40.88 44.92 42.32C44.92 43.75 43.75 44.92 42.32 44.92Z" fill="#1A2E35" fill-opacity="1.000000" fill-rule="nonzero"/>
		<path id="Vector" d="M57.8 42.32C57.8 40.16 56.05 38.41 53.89 38.41C51.73 38.41 49.98 40.16 49.98 42.32C49.98 44.47 51.73 46.23 53.89 46.23C56.05 46.23 57.8 44.47 57.8 42.32ZM53.89 44.92C52.45 44.92 51.28 43.75 51.28 42.32C51.28 40.88 52.45 39.71 53.89 39.71C55.33 39.71 56.5 40.88 56.5 42.32C56.5 43.75 55.33 44.92 53.89 44.92Z" fill="#1A2E35" fill-opacity="1.000000" fill-rule="nonzero"/>
		<path id="Vector" d="M61.58 7.01L56.35 7.01L56.35 3.49C56.35 3.13 56.06 2.84 55.7 2.84C55.34 2.84 55.05 3.13 55.05 3.49L55.05 7.01L16.45 7.01L16.45 3.49C16.45 3.13 16.16 2.84 15.8 2.84C15.44 2.84 15.15 3.13 15.15 3.49L15.15 7.01L11.48 7.01C9.75 7.01 8.35 8.42 8.35 10.14C8.35 15.87 8.35 53.27 8.35 53.51L4.16 53.51C3.8 53.51 3.51 53.8 3.51 54.16C3.51 57.06 5.69 59.3 8.35 59.61L8.35 62.25C8.35 63.98 9.75 65.38 11.48 65.38L61.58 65.38C63.31 65.38 64.71 63.98 64.71 62.25C64.71 50.76 64.71 21.05 64.71 10.14C64.71 8.42 63.31 7.01 61.58 7.01ZM11.48 8.32L15.15 8.32L15.15 13.49C15.15 13.85 15.44 14.14 15.8 14.14C16.16 14.14 16.45 13.85 16.45 13.49L16.45 8.32L55.05 8.32L55.05 13.49C55.05 13.85 55.34 14.14 55.7 14.14C56.06 14.14 56.35 13.85 56.35 13.49L56.35 8.32L61.58 8.32C62.59 8.32 63.41 9.13 63.41 10.14L63.41 18.66L9.65 18.66L9.65 10.14C9.65 9.13 10.47 8.32 11.48 8.32ZM9.65 19.96L63.41 19.96L63.41 54.16C63.41 56.47 61.53 58.35 59.22 58.36C59.22 58.36 59.22 58.35 59.21 58.35C56.9 58.35 55.02 56.48 55.02 54.16C55.02 53.8 54.73 53.51 54.37 53.51L9.65 53.51L9.65 19.96ZM4.86 54.81L53.76 54.81C53.92 56.2 54.6 57.45 55.66 58.35L9 58.35C6.89 58.35 5.16 56.8 4.86 54.81ZM63.41 62.25C63.41 63.26 62.59 64.08 61.58 64.08L11.48 64.08C10.47 64.08 9.65 63.26 9.65 62.25L9.65 59.66L59.22 59.66C60.9 59.66 62.4 58.9 63.41 57.71L63.41 62.25L63.41 62.25Z" fill="#1A2E35" fill-opacity="1.000000" fill-rule="nonzero"/>
	</g>
</svg>
