<svg width="322.023438" height="266.450195" viewBox="0 0 322.023 266.45" fill="none" xmlns="http://www.w3.org/2000/svg" xmlns:xlink="http://www.w3.org/1999/xlink">
	<desc>
			Created with Pixso.
	</desc>
	<defs/>
	<path id="path50" d="M272.29 82.4C275.71 81.63 278.75 79.88 281.07 77.46L286.68 79.31L289.48 74.59L285.03 70.79C285.52 69.23 285.78 67.57 285.78 65.86C285.78 64.14 285.52 62.48 285.03 60.93L289.48 57.12L286.68 52.4L281.07 54.25C278.75 51.84 275.71 50.09 272.29 49.31L271.12 43.67L268.32 43.67" stroke="#1A2E35" stroke-opacity="1.000000" stroke-width="1.333333"/>
	<path id="path54" d="M265.52 43.67L264.36 49.31C260.94 50.09 257.9 51.84 255.58 54.25L249.96 52.4L247.16 57.12L251.61 60.92C251.12 62.48 250.86 64.14 250.86 65.86C250.86 67.57 251.12 69.23 251.61 70.79L247.16 74.59L249.96 79.31L255.58 77.46C257.9 79.88 260.94 81.63 264.36 82.4L265.52 88.05L271.12 88.05L272.29 82.4" stroke="#1A2E35" stroke-opacity="1.000000" stroke-width="1.333333"/>
	<path id="path58" d="M267.97 74.94C257.98 74.26 256.1 60.12 266.09 57.64" stroke="#1A2E35" stroke-opacity="1.000000" stroke-width="1.333333"/>
	<path id="path62" d="M274.28 59.58C279.25 64.01 277.68 72.65 271.06 74.61" stroke="#1A2E35" stroke-opacity="1.000000" stroke-width="1.333333"/>
	<path id="path66" d="M269.46 57.44C270.33 57.54 271.18 57.77 271.97 58.11" stroke="#1A2E35" stroke-opacity="1.000000" stroke-width="1.333333"/>
	<path id="path70" d="M302.04 86.7L303.22 85.33C305.37 85.9 307.7 85.87 309.9 85.16L312.54 87.95" stroke="#1A2E35" stroke-opacity="1.000000" stroke-width="1.333333"/>
	<path id="path74" d="M297.69 65.23L298.2 66.58C296.55 68.16 295.46 70.16 295.01 72.29L291.21 73.13L291.3 76.72L295.14 77.37C295.42 78.4 295.86 79.42 296.47 80.39C297.07 81.35 297.81 82.19 298.63 82.91L297.48 86.53L300.72 88.24" stroke="#1A2E35" stroke-opacity="1.000000" stroke-width="1.333333"/>
	<path id="path78" d="M312.54 87.95L315.69 86.07L314.35 82.51C315.99 80.93 317.08 78.93 317.53 76.8L321.34 75.96L321.24 72.38L317.4 71.73C317.12 70.69 316.68 69.67 316.08 68.71C315.47 67.75 314.74 66.9 313.91 66.19L315.07 62.57L311.83 60.85L309.33 63.77C307.17 63.19 304.85 63.22 302.65 63.93L300 61.15L296.85 63.02" stroke="#1A2E35" stroke-opacity="1.000000" stroke-width="1.333333"/>
	<path id="path82" d="M312.08 73.23C313.16 77.68 308.82 81.96 304.22 80.15C299.84 78.43 299.21 72.18 303.27 69.78" stroke="#1A2E35" stroke-opacity="1.000000" stroke-width="1.333333"/>
	<path id="path86" d="M308.32 69.24C309.24 69.54 310.07 70.05 310.73 70.75" stroke="#1A2E35" stroke-opacity="1.000000" stroke-width="1.333333"/>
	<path id="path90" d="M55.93 161.3L61.91 167.11C61.42 169.16 61.99 171.39 63.62 172.99C65.26 174.58 67.56 175.13 69.66 174.66L65.9 171L66.92 167.31L70.72 166.32L74.48 169.97C74.97 167.93 74.4 165.69 72.76 164.1C71.12 162.5 68.83 161.95 66.72 162.43L61.22 157.07" stroke="#1A2E35" stroke-opacity="1.000000" stroke-width="1.333333"/>
	<path id="path94" d="M52.46 148.56L46.98 143.22C47.46 141.18 46.9 138.94 45.26 137.35C43.62 135.76 41.32 135.21 39.22 135.68L42.98 139.34L41.96 143.03L38.16 144.02L34.4 140.37C33.92 142.41 34.48 144.64 36.12 146.24C37.76 147.83 40.06 148.38 42.16 147.91L47.65 153.25" stroke="#1A2E35" stroke-opacity="1.000000" stroke-width="1.333333"/>
	<path id="path98" d="M58.63 154.18L66.28 146.73C66.66 146.37 67.09 146.06 67.56 145.82L69.1 145.05L74.65 138.89L71.18 135.52L64.85 140.91L64.05 142.41C63.81 142.87 63.49 143.28 63.11 143.65L57.04 149.56" stroke="#1A2E35" stroke-opacity="1.000000" stroke-width="1.333333"/>
	<path id="path102" d="M38.26 173.7C39.38 174.28 40.53 174.28 41.59 173.25L54.85 160.35C55.59 159.64 55.8 158.88 55.67 158.11L57.97 155.88L58.11 156.01C58.44 156.34 58.98 156.34 59.31 156.01C59.64 155.69 59.64 155.16 59.31 154.84L54.77 150.43C54.44 150.11 53.9 150.11 53.57 150.43C53.24 150.75 53.24 151.28 53.57 151.6L53.71 151.74L51.41 153.97C50.63 153.84 49.84 154.05 49.11 154.77L35.84 167.67C35.15 168.35 34.91 169.07 35 169.79" stroke="#1A2E35" stroke-opacity="1.000000" stroke-width="1.333333"/>
	<path id="path106" d="M35.53 171.16C35.82 171.61 36.2 172.06 36.64 172.48C37.16 172.99 37.71 173.42 38.26 173.7" stroke="#1A2E35" stroke-opacity="1.000000" stroke-width="1.333333"/>
	<path id="path110" d="M39.61 169.79L41.93 169.79" stroke="#1A2E35" stroke-opacity="1.000000" stroke-width="1.333333"/>
	<path id="path114" d="M45.06 164.49L54.85 164.49" stroke="#1A2E35" stroke-opacity="1.000000" stroke-width="1.333333"/>
	<path id="path116" d="M258.79 0L46.48 0L46.48 134.14L258.79 134.14L258.79 0Z" fill="#FFFFFF" fill-opacity="1.000000" fill-rule="nonzero"/>
	<path id="path120" d="M258.79 0L46.48 0L46.48 134.14L68.92 134.14L104.51 134.14L258.79 134.14L258.79 0Z" fill="#C0C0C0" fill-opacity="1.000000" fill-rule="nonzero"/>
	<path id="path122" d="M46.48 17.54L258.79 17.54L258.79 0L46.48 0L46.48 17.54Z" fill="#FFFFFF" fill-opacity="1.000000" fill-rule="nonzero"/>
	<path id="path124" d="M46.48 17.54L258.79 17.54L258.79 0L46.48 0L46.48 17.54Z" fill="#767676" fill-opacity="1.000000" fill-rule="nonzero"/>
	<path id="path136" d="M252.28 14.75L244.15 14.75C243 14.75 242.07 13.84 242.07 12.72L242.07 4.82C242.07 3.7 243 2.79 244.15 2.79L252.28 2.79C253.43 2.79 254.36 3.7 254.36 4.82L254.36 12.72C254.36 13.84 253.43 14.75 252.28 14.75Z" fill="#FFFFFF" fill-opacity="1.000000" fill-rule="nonzero"/>
	<path id="path140" d="M237.19 14.75L229.1 14.75C227.94 14.75 227 13.83 227 12.7L227 4.84C227 3.71 227.94 2.79 229.1 2.79L237.19 2.79C238.35 2.79 239.3 3.71 239.3 4.84L239.3 12.7C239.3 13.83 238.35 14.75 237.19 14.75Z" fill="#FFFFFF" fill-opacity="1.000000" fill-rule="nonzero"/>
	<path id="path144" d="M222.14 14.75L214.02 14.75C212.86 14.75 211.93 13.84 211.93 12.72L211.93 4.82C211.93 3.7 212.86 2.79 214.02 2.79L222.14 2.79C223.29 2.79 224.23 3.7 224.23 4.82L224.23 12.72C224.23 13.84 223.29 14.75 222.14 14.75Z" fill="#FFFFFF" fill-opacity="1.000000" fill-rule="nonzero"/>
	<path id="path148" d="M54.44 29.33L54.44 122.36C54.44 124.59 56.3 126.4 58.59 126.4L246.67 126.4C248.96 126.4 250.82 124.59 250.82 122.36L250.82 29.33C250.82 27.1 248.96 25.29 246.67 25.29L58.59 25.29C56.3 25.29 54.44 27.1 54.44 29.33Z" fill="#1A2E35" fill-opacity="1.000000" fill-rule="nonzero"/>
	<path id="path152" d="M54.44 122.36C54.44 124.59 56.3 126.4 58.59 126.4L246.67 126.4C248.96 126.4 250.82 124.59 250.82 122.36L250.82 29.33C250.82 27.1 248.96 25.29 246.67 25.29L58.59 25.29C56.3 25.29 54.44 27.1 54.44 29.33L54.44 122.36Z" stroke="#1A2E35" stroke-opacity="1.000000" stroke-width="1.333333" stroke-linejoin="round"/>
	<path id="path156" d="M245.58 11.33L250.85 11.33" stroke="#1A2E35" stroke-opacity="1.000000" stroke-width="1.333333" stroke-linejoin="round" stroke-linecap="round"/>
	<path id="path160" d="M245.58 11.33L250.85 11.33" stroke="#1A2E35" stroke-opacity="1.000000" stroke-width="1.333333" stroke-linejoin="round" stroke-linecap="round"/>
	<path id="path162" d="M229.63 12.19L229.63 7.67L236.66 7.67L236.66 12.19L229.63 12.19Z" stroke="#1A2E35" stroke-opacity="1.000000" stroke-width="1.333333" stroke-linejoin="round"/>
	<path id="path166" d="M61.08 115.45Lnan 115.45" stroke="#1A2E35" stroke-opacity="1.000000" stroke-width="1.333333" stroke-linejoin="round" stroke-linecap="round"/>
	<path id="path170" d="M238.47 94.02L224.52 94.02C223.64 94.02 222.92 93.33 222.92 92.47C222.92 91.62 223.64 90.92 224.52 90.92L238.47 90.92C239.35 90.92 240.06 91.62 240.06 92.47C240.06 93.33 239.35 94.02 238.47 94.02Z" fill="#767676" fill-opacity="1.000000" fill-rule="nonzero"/>
	<path id="path174" d="M238.47 104.73L199.51 104.73C198.63 104.73 197.91 104.04 197.91 103.18C197.91 102.33 198.63 101.64 199.51 101.64L238.47 101.64C239.35 101.64 240.06 102.33 240.06 103.18C240.06 104.04 239.35 104.73 238.47 104.73Z" fill="#767676" fill-opacity="1.000000" fill-rule="nonzero"/>
	<path id="path178" d="M238.47 115.45L152.63 115.45C151.75 115.45 151.04 114.75 151.04 113.9C151.04 113.04 151.75 112.35 152.63 112.35L238.47 112.35C239.35 112.35 240.06 113.04 240.06 113.9C240.06 114.75 239.35 115.45 238.47 115.45Z" fill="#767676" fill-opacity="1.000000" fill-rule="nonzero"/>
	<path id="path182" d="M69.17 83.31L62.67 83.31C61.79 83.31 61.08 82.61 61.08 81.76C61.08 80.9 61.79 80.21 62.67 80.21L69.17 80.21C70.05 80.21 70.76 80.9 70.76 81.76C70.76 82.61 70.05 83.31 69.17 83.31Z" fill="#C0C0C0" fill-opacity="1.000000" fill-rule="nonzero"/>
	<path id="path186" d="M69.17 94.02L62.67 94.02C61.79 94.02 61.08 93.33 61.08 92.47C61.08 91.62 61.79 90.92 62.67 90.92L69.17 90.92C70.05 90.92 70.76 91.62 70.76 92.47C70.76 93.33 70.05 94.02 69.17 94.02Z" fill="#C0C0C0" fill-opacity="1.000000" fill-rule="nonzero"/>
	<path id="path190" d="M69.17 104.73L62.67 104.73C61.79 104.73 61.08 104.04 61.08 103.18C61.08 102.33 61.79 101.64 62.67 101.64L69.17 101.64C70.05 101.64 70.76 102.33 70.76 103.18C70.76 104.04 70.05 104.73 69.17 104.73Z" fill="#C0C0C0" fill-opacity="1.000000" fill-rule="nonzero"/>
	<path id="path194" d="M69.17 115.45L62.67 115.45C61.79 115.45 61.08 114.75 61.08 113.9C61.08 113.04 61.79 112.35 62.67 112.35L69.17 112.35C70.05 112.35 70.76 113.04 70.76 113.9C70.76 114.75 70.05 115.45 69.17 115.45Z" fill="#C0C0C0" fill-opacity="1.000000" fill-rule="nonzero"/>
	<g opacity="0.699997">
		<g opacity="0.699997">
			<g opacity="0.699997">
				<path id="path204" d="M69.17 83.3L62.67 83.3C61.79 83.3 61.08 82.61 61.08 81.76C61.08 80.9 61.79 80.21 62.67 80.21L69.17 80.21C70.05 80.21 70.76 80.9 70.76 81.76C70.76 82.61 70.05 83.3 69.17 83.3Z" fill="#C0C0C0" fill-opacity="1.000000" fill-rule="nonzero"/>
			</g>
		</g>
	</g>
	<g opacity="0.699997">
		<g opacity="0.699997">
			<g opacity="0.699997">
				<path id="path220" d="M69.17 94.02L62.67 94.02C61.79 94.02 61.08 93.33 61.08 92.47C61.08 91.62 61.79 90.92 62.67 90.92L69.17 90.92C70.05 90.92 70.76 91.62 70.76 92.47C70.76 93.33 70.05 94.02 69.17 94.02Z" fill="#C0C0C0" fill-opacity="1.000000" fill-rule="nonzero"/>
			</g>
		</g>
	</g>
	<g opacity="0.699997">
		<g opacity="0.699997">
			<g opacity="0.699997">
				<path id="path236" d="M69.17 104.73L62.67 104.73C61.79 104.73 61.08 104.04 61.08 103.18C61.08 102.33 61.79 101.64 62.67 101.64L69.17 101.64C70.05 101.64 70.76 102.33 70.76 103.18C70.76 104.04 70.05 104.73 69.17 104.73Z" fill="#C0C0C0" fill-opacity="1.000000" fill-rule="nonzero"/>
			</g>
		</g>
	</g>
	<g opacity="0.699997">
		<g opacity="0.699997">
			<g opacity="0.699997">
				<path id="path252" d="M69.17 115.45L62.67 115.45C61.79 115.45 61.08 114.75 61.08 113.9C61.08 113.04 61.79 112.35 62.67 112.35L69.17 112.35C70.05 112.35 70.76 113.04 70.76 113.9C70.76 114.75 70.05 115.45 69.17 115.45Z" fill="#C0C0C0" fill-opacity="1.000000" fill-rule="nonzero"/>
			</g>
		</g>
	</g>
	<path id="path262" d="M199.51 72.59L62.67 72.59C61.79 72.59 61.08 71.9 61.08 71.04C61.08 70.19 61.79 69.49 62.67 69.49L199.51 69.49C200.39 69.49 201.1 70.19 201.1 71.04C201.1 71.9 200.39 72.59 199.51 72.59Z" fill="#C0C0C0" fill-opacity="1.000000" fill-rule="nonzero"/>
	<path id="path266" d="M238.47 51.16L224.52 51.16C223.64 51.16 222.92 50.47 222.92 49.61C222.92 48.76 223.64 48.07 224.52 48.07L238.47 48.07C239.35 48.07 240.06 48.76 240.06 49.61C240.06 50.47 239.35 51.16 238.47 51.16Z" fill="#C0C0C0" fill-opacity="1.000000" fill-rule="nonzero"/>
	<path id="path270" d="M218.68 51.16L205.35 51.16C204.47 51.16 203.75 50.47 203.75 49.61C203.75 48.76 204.47 48.07 205.35 48.07L218.68 48.07C219.55 48.07 220.27 48.76 220.27 49.61C220.27 50.47 219.55 51.16 218.68 51.16Z" fill="#C0C0C0" fill-opacity="1.000000" fill-rule="nonzero"/>
	<path id="path274" d="M199.51 51.16L62.67 51.16C61.79 51.16 61.08 50.47 61.08 49.61C61.08 48.76 61.79 48.07 62.67 48.07L199.51 48.07C200.39 48.07 201.1 48.76 201.1 49.61C201.1 50.47 200.39 51.16 199.51 51.16Z" fill="#C0C0C0" fill-opacity="1.000000" fill-rule="nonzero"/>
	<path id="path278" d="M238.47 83.31L224.52 83.31C223.64 83.31 222.92 82.61 222.92 81.76C222.92 80.9 223.64 80.21 224.52 80.21L238.47 80.21C239.35 80.21 240.06 80.9 240.06 81.76C240.06 82.61 239.35 83.31 238.47 83.31Z" fill="#BBBBBB" fill-opacity="1.000000" fill-rule="nonzero"/>
	<path id="path282" d="M218.68 83.31L76.34 83.31C75.46 83.31 74.75 82.61 74.75 81.76C74.75 80.9 75.46 80.21 76.34 80.21L218.68 80.21C219.56 80.21 220.27 80.9 220.27 81.76C220.27 82.61 219.56 83.31 218.68 83.31Z" fill="#BBBBBB" fill-opacity="1.000000" fill-rule="nonzero"/>
	<path id="path286" d="M117.22 94.02L76.34 94.02C75.46 94.02 74.75 93.33 74.75 92.47C74.75 91.62 75.46 90.92 76.34 90.92L117.22 90.92C118.1 90.92 118.81 91.62 118.81 92.47C118.81 93.33 118.1 94.02 117.22 94.02Z" fill="#BBBBBB" fill-opacity="1.000000" fill-rule="nonzero"/>
	<path id="path290" d="M117.22 104.73L76.34 104.73C75.46 104.73 74.75 104.04 74.75 103.18C74.75 102.33 75.46 101.64 76.34 101.64L117.22 101.64C118.1 101.64 118.81 102.33 118.81 103.18C118.81 104.04 118.1 104.73 117.22 104.73Z" fill="#BBBBBB" fill-opacity="1.000000" fill-rule="nonzero"/>
	<path id="path294" d="M117.22 115.45L76.34 115.45C75.46 115.45 74.75 114.75 74.75 113.9C74.75 113.04 75.46 112.35 76.34 112.35L117.22 112.35C118.1 112.35 118.81 113.04 118.81 113.9C118.81 114.75 118.1 115.45 117.22 115.45Z" fill="#BBBBBB" fill-opacity="1.000000" fill-rule="nonzero"/>
	<path id="path306" d="M90.37 252.85C90.37 252.85 86.19 259.84 87.84 260.1C89.48 260.35 92.93 254.3 92.93 254.3L102.36 251.87L95.25 251.16L90.37 252.85Z" fill="#FFFFFF" fill-opacity="1.000000" fill-rule="nonzero"/>
	<path id="path310" d="M87.84 260.1C89.48 260.35 92.93 254.3 92.93 254.3L102.36 251.87L95.25 251.16L90.37 252.85C90.37 252.85 86.19 259.84 87.84 260.1Z" stroke="#1A2E35" stroke-opacity="1.000000" stroke-width="1.333333" stroke-linejoin="round"/>
	<g opacity="0.300003">
		<g opacity="0.300003">
			<g opacity="0.300003">
				<path id="path320" d="M90.37 252.85C90.37 252.85 86.19 259.84 87.84 260.1C89.48 260.35 92.93 254.3 92.93 254.3L102.36 251.87L95.25 251.16L90.37 252.85Z" fill="#000000" fill-opacity="1.000000" fill-rule="nonzero"/>
			</g>
		</g>
		<g opacity="0.300003">
			<g opacity="0.300003">
				<path id="path324" d="M87.84 260.1C89.48 260.35 92.93 254.3 92.93 254.3L102.36 251.87L95.25 251.16L90.37 252.85C90.37 252.85 86.19 259.84 87.84 260.1Z" stroke="#1A2E35" stroke-opacity="1.000000" stroke-width="1.333333" stroke-linejoin="round"/>
			</g>
		</g>
	</g>
	<path id="path334" d="M93.55 248.08C93.55 248.08 87.71 246.73 86.09 249.4C84.48 252.07 79.75 259.97 81.52 260.87C83.3 261.78 84.84 258.85 84.84 258.85L93.55 248.08Z" fill="#FFFFFF" fill-opacity="1.000000" fill-rule="nonzero"/>
	<path id="path338" d="M86.09 249.4C84.48 252.07 79.75 259.97 81.52 260.87C83.3 261.78 84.84 258.85 84.84 258.85L93.55 248.08C93.55 248.08 87.71 246.73 86.09 249.4Z" stroke="#1A2E35" stroke-opacity="1.000000" stroke-width="1.333333" stroke-linejoin="round"/>
	<path id="path342" d="M117.46 256.18C117.46 256.18 111.59 258.34 105.48 257.41L98.83 259.56C98.83 259.56 92.98 262.36 90.26 260.94C87.54 259.53 97.19 256.42 97.19 256.42C97.19 256.42 103.68 253.69 101.74 253.03C99.8 252.38 92.48 252.5 91.04 253.58C89.6 254.65 85.83 261.6 83.11 261.2C80.39 260.81 84.26 257.02 85.24 255.56C86.22 254.11 88.41 248.3 92.86 248.05C97.3 247.81 112.26 248.56 112.26 248.56L129.85 246.73L134 256.46L117.46 256.18Z" fill="#FFFFFF" fill-opacity="1.000000" fill-rule="nonzero"/>
	<path id="path346" d="M105.48 257.41L98.83 259.56C98.83 259.56 92.98 262.36 90.26 260.94C87.54 259.53 97.19 256.42 97.19 256.42C97.19 256.42 103.68 253.69 101.74 253.03C99.8 252.38 92.48 252.5 91.04 253.58C89.6 254.65 85.83 261.6 83.11 261.2C80.39 260.81 84.26 257.02 85.24 255.56C86.22 254.11 88.41 248.3 92.86 248.05C97.3 247.81 112.26 248.56 112.26 248.56L129.85 246.73L134 256.46L117.46 256.18C117.46 256.18 111.59 258.34 105.48 257.41Z" stroke="#1A2E35" stroke-opacity="1.000000" stroke-width="1.333333" stroke-linejoin="round"/>
	<path id="path350" d="M126.64 258.59C127.49 259.12 128.69 259.45 129.99 258.54C129.99 258.54 131.89 259.35 133.18 257.97C134.47 256.6 134.58 244.57 131.02 243.22C130 242.83 127.44 242.87 127.02 244.26C127.02 244.26 124.8 243.52 124.43 245.83C124.08 248 126.29 250.02 125.55 256.26C125.44 257.18 125.87 258.12 126.64 258.59Z" fill="#38BFF2" fill-opacity="1.000000" fill-rule="nonzero"/>
	<path id="path354" d="M129.99 258.54C129.99 258.54 131.89 259.35 133.18 257.97C134.47 256.6 134.58 244.57 131.02 243.22C130 242.83 127.44 242.87 127.02 244.26C127.02 244.26 124.8 243.52 124.43 245.83C124.08 248 126.29 250.02 125.55 256.26C125.44 257.18 125.87 258.12 126.64 258.59C127.49 259.12 128.69 259.45 129.99 258.54Z" stroke="#1A2E35" stroke-opacity="1.000000" stroke-width="1.333333" stroke-linejoin="round"/>
	<g opacity="0.300003">
		<g opacity="0.300003">
			<g opacity="0.300003">
				<path id="path364" d="M126.64 258.59C127.49 259.12 128.69 259.45 129.99 258.54C129.99 258.54 131.89 259.35 133.18 257.97C134.47 256.6 134.58 244.57 131.02 243.22C130 242.83 127.44 242.87 127.02 244.26C127.02 244.26 124.8 243.52 124.43 245.83C124.08 248 126.29 250.02 125.55 256.25C125.44 257.18 125.87 258.12 126.64 258.59Z" fill="#000000" fill-opacity="1.000000" fill-rule="nonzero"/>
			</g>
		</g>
		<g opacity="0.300003">
			<g opacity="0.300003">
				<path id="path368" d="M129.99 258.54C129.99 258.54 131.89 259.35 133.18 257.97C134.47 256.6 134.58 244.57 131.02 243.22C130 242.83 127.44 242.87 127.02 244.26C127.02 244.26 124.8 243.52 124.43 245.83C124.08 248 126.29 250.02 125.55 256.25C125.44 257.18 125.87 258.12 126.64 258.59C127.49 259.12 128.69 259.45 129.99 258.54Z" stroke="#1A2E35" stroke-opacity="1.000000" stroke-width="1.333333" stroke-linejoin="round"/>
			</g>
		</g>
	</g>
	<path id="path378" d="M130.7 255.79C130.7 255.79 130.8 250.58 128.59 246.29" stroke="#1A2E35" stroke-opacity="1.000000" stroke-width="1.333333" stroke-linejoin="round" stroke-linecap="round"/>
	<path id="path382" d="M214.42 251.42C213.83 255.83 213.16 260.6 212.39 265.78L144.04 265.78L144.36 257.21C140.28 258.17 132.34 257.58 132.34 257.58L132.34 244.92C137.16 242.27 137.88 243.01 137.88 243.01C137.88 243.01 138.13 212.11 141.02 204.39C142.25 201.13 144.39 198.79 146.67 197.16L146.67 197.15C147.39 196.63 148.11 196.18 148.83 195.8C148.87 195.77 148.9 195.76 148.93 195.73C149.73 195.32 150.69 194.89 151.79 194.44C151.89 194.4 151.99 194.36 152.1 194.32C162.8 190.07 186.16 185.14 207.92 194.19C209.44 194.82 221.86 200.59 222.92 208.93C223.53 213.69 220.2 237.34 214.42 251.42Z" fill="#BABBBB" fill-opacity="1.000000" fill-rule="nonzero"/>
	<g opacity="0.199997">
		<g opacity="0.199997">
			<g opacity="0.199997">
				<path id="path400" d="M203.59 213.32L196.77 244.09C195.71 243.28 192.66 243.22 188.78 243.58C189.64 242.66 190.33 241.66 190.85 240.58C201.15 218.89 203.41 213.76 203.59 213.32Z" fill="#000000" fill-opacity="1.000000" fill-rule="nonzero"/>
			</g>
		</g>
	</g>
	<g opacity="0.199997">
		<g opacity="0.199997">
			<g opacity="0.199997">
				<path id="path416" d="M216.04 247.13C214.07 253.98 213.2 260.21 212.39 265.78L144.04 265.78L144.67 255.91C148.93 255.32 156.4 254.72 164.17 253.38C165.16 257.37 164.35 260.59 164.35 260.59C164.35 260.59 195.79 264.38 206.34 261.91C209.35 261.21 212.08 257.12 214.41 251.49C214.98 250.12 215.52 248.66 216.04 247.13Z" fill="#000000" fill-opacity="1.000000" fill-rule="nonzero"/>
			</g>
		</g>
	</g>
	<g opacity="0.300003">
		<g opacity="0.300003">
			<g opacity="0.300003">
				<path id="path432" d="M138.7 243.59C138.7 243.59 137.17 242.27 132.33 244.93L132.33 257.59C132.33 257.59 140.3 257.31 143.42 255.67C146.11 257.28 145.64 227.65 146.11 211.68C142.21 212.73 141.9 219.95 141.3 226.74C140.47 236.1 138.7 243.59 138.7 243.59Z" fill="#000000" fill-opacity="1.000000" fill-rule="nonzero"/>
			</g>
		</g>
	</g>
	<path id="path450" d="M212.39 265.78L144.04 265.78L144.36 257.21C140.28 258.17 132.34 257.58 132.34 257.58L132.34 244.92C137.16 242.27 137.88 243.01 137.88 243.01C137.88 243.01 138.13 212.11 141.02 204.39C142.25 201.13 144.39 198.79 146.67 197.16L146.67 197.15C147.39 196.63 148.11 196.18 148.83 195.8C148.87 195.77 148.9 195.76 148.93 195.73C149.73 195.32 150.69 194.89 151.79 194.44C151.89 194.4 151.99 194.36 152.1 194.32C162.8 190.07 186.16 185.14 207.92 194.19C209.44 194.82 221.86 200.59 222.92 208.93C223.53 213.69 220.2 237.34 214.42 251.42C213.83 255.83 213.16 260.6 212.39 265.78Z" stroke="#1A2E35" stroke-opacity="1.000000" stroke-width="1.333333" stroke-linejoin="round"/>
	<path id="path454" d="M222.92 208.93C222.95 209.12 222.97 209.33 222.98 209.57C223.33 215.52 220 237.97 214.41 251.49C212.08 257.12 209.35 261.21 206.34 261.91C195.79 264.39 164.35 260.59 164.35 260.59C164.35 260.59 165.91 254.32 162 248.43C162 248.43 192.87 241.09 196.77 244.09L203.6 213.29" stroke="#1A2E35" stroke-opacity="1.000000" stroke-width="1.333333" stroke-linejoin="round" stroke-linecap="round"/>
	<path id="path458" d="M198.92 245.77C198.92 245.77 201.85 246.91 204.39 250.33" stroke="#1A2E35" stroke-opacity="1.000000" stroke-width="1.333333" stroke-linejoin="round" stroke-linecap="round"/>
	<path id="path462" d="M120.29 246.88C120.29 246.88 117.41 246.29 116.24 247.56C115.01 248.89 110.05 256.17 111.75 257.57C113.44 258.96 116.89 251.3 116.89 251.3L120.29 246.88Z" fill="#FFFFFF" fill-opacity="1.000000" fill-rule="nonzero"/>
	<path id="path466" d="M116.24 247.56C115.01 248.89 110.05 256.17 111.75 257.57C113.44 258.96 116.89 251.3 116.89 251.3L120.29 246.88C120.29 246.88 117.41 246.29 116.24 247.56Z" stroke="#1A2E35" stroke-opacity="1.000000" stroke-width="1.333333" stroke-linejoin="round"/>
	<path id="path470" d="M126.07 246.74C126.07 246.74 119.68 245.41 118.24 247.31C116.81 249.21 108.75 259.02 113.77 259.34L121.77 250.6L126.07 246.74Z" fill="#FFFFFF" fill-opacity="1.000000" fill-rule="nonzero"/>
	<path id="path474" d="M118.24 247.31C116.81 249.21 108.75 259.02 113.77 259.34L121.77 250.6L126.07 246.74C126.07 246.74 119.68 245.41 118.24 247.31Z" stroke="#1A2E35" stroke-opacity="1.000000" stroke-width="1.333333" stroke-linejoin="round"/>
	<path id="path478" d="M140.52 257.19C140.52 257.19 133.95 258.58 131.28 259.09C128.61 259.59 123.66 262.95 120.73 261.62C117.8 260.29 130.3 255.35 130.3 255.35L134.6 253.67L140.52 257.19Z" fill="#C0C0C0" fill-opacity="1.000000" fill-rule="nonzero"/>
	<path id="path482" d="M131.28 259.09C128.61 259.59 123.66 262.95 120.73 261.62C117.8 260.29 130.3 255.35 130.3 255.35L134.6 253.67L140.52 257.19C140.52 257.19 133.95 258.58 131.28 259.09Z" stroke="#1A2E35" stroke-opacity="1.000000" stroke-width="1.333333" stroke-linejoin="round"/>
	<path id="path486" d="M145.84 218.95C145.93 216.53 146.02 214.1 146.11 211.68" stroke="#1A2E35" stroke-opacity="1.000000" stroke-width="1.333333" stroke-linejoin="round" stroke-linecap="round"/>
	<path id="path490" d="M144.04 265.78C145.25 251.12 145.71 222.25 145.71 222.25" stroke="#1A2E35" stroke-opacity="1.000000" stroke-width="1.333333" stroke-linejoin="round" stroke-linecap="round"/>
	<path id="path494" d="M164.35 249.27L141.69 249.27C141.69 249.27 124.12 244.14 121.19 248.13C118.26 252.12 112.01 258.2 113.76 259.34C115.52 260.48 122.94 252.22 122.94 252.22L129.39 252.27C129.39 252.27 123.92 254.59 122.75 255.73C121.58 256.87 119.04 260.1 120.41 260.67C121.77 261.24 126.07 257.06 126.07 257.06C126.07 257.06 132.51 255.54 134.08 256.3C135.64 257.06 141.89 260.1 150.29 257.82L167.57 259.91L164.35 249.27Z" fill="#FFFFFF" fill-opacity="1.000000" fill-rule="nonzero"/>
	<path id="path498" d="M141.69 249.27C141.69 249.27 124.12 244.14 121.19 248.13C118.26 252.12 112.01 258.2 113.76 259.34C115.52 260.48 122.94 252.22 122.94 252.22L129.39 252.27C129.39 252.27 123.92 254.59 122.75 255.73C121.58 256.87 119.04 260.1 120.41 260.67C121.77 261.24 126.07 257.06 126.07 257.06C126.07 257.06 132.51 255.54 134.08 256.3C135.64 257.06 141.89 260.1 150.29 257.82L167.57 259.91L164.35 249.27L141.69 249.27Z" stroke="#1A2E35" stroke-opacity="1.000000" stroke-width="1.333333" stroke-linejoin="round"/>
	<path id="path502" d="M201.24 223.96C200.62 220.44 200.59 216.82 201.17 213.29" stroke="#1A2E35" stroke-opacity="1.000000" stroke-width="1.333333" stroke-linejoin="round" stroke-linecap="round"/>
	<path id="path506" d="M206.38 205.49C206.38 205.49 217.37 191.4 222.92 208.93" stroke="#1A2E35" stroke-opacity="1.000000" stroke-width="1.333333" stroke-linejoin="round" stroke-linecap="round"/>
	<path id="path510" d="M159.7 247.54C160.39 246.82 161.47 246.21 162.96 246.77C162.96 246.77 164.6 245.53 166.2 246.55C167.8 247.58 170.98 259.2 167.88 261.37C166.99 262 164.49 262.57 163.73 261.33C163.73 261.33 161.78 262.57 160.82 260.43C159.93 258.42 161.56 255.93 159.25 250.06C158.91 249.2 159.08 248.17 159.7 247.54Z" fill="#F15525" fill-opacity="1.000000" fill-rule="nonzero"/>
	<g opacity="0.300003">
		<g opacity="0.300003">
			<g opacity="0.300003">
				<path id="path528" d="M159.7 247.54C160.39 246.83 161.47 246.21 162.96 246.77C162.96 246.77 164.6 245.53 166.2 246.56C167.8 247.58 170.98 259.2 167.88 261.37C166.99 262 164.49 262.58 163.73 261.33C163.73 261.33 161.78 262.58 160.82 260.43C159.93 258.42 161.56 255.93 159.25 250.06C158.91 249.2 159.08 248.18 159.7 247.54Z" fill="#000000" fill-opacity="1.000000" fill-rule="nonzero"/>
			</g>
		</g>
	</g>
	<path id="path546" d="M162.96 246.77C162.96 246.77 164.6 245.53 166.2 246.55C167.8 247.58 170.98 259.2 167.88 261.37C166.99 262 164.49 262.57 163.73 261.33C163.73 261.33 161.78 262.57 160.82 260.43C159.93 258.42 161.56 255.93 159.25 250.06C158.91 249.2 159.08 248.17 159.7 247.53C160.39 246.82 161.47 246.21 162.96 246.77Z" stroke="#1A2E35" stroke-opacity="1.000000" stroke-width="1.333333" stroke-linejoin="round"/>
	<path id="path550" d="M164.73 253.57C165 255.37 165.06 257.21 164.8 259.02" stroke="#1A2E35" stroke-opacity="1.000000" stroke-width="1.333333" stroke-linejoin="round" stroke-linecap="round"/>
	<path id="path554" d="M174.69 218.79C174.64 219.62 173.91 220.25 173.06 220.21C172.2 220.16 171.55 219.45 171.6 218.61C171.65 217.78 172.38 217.15 173.24 217.19C174.09 217.24 174.74 217.96 174.69 218.79Z" fill="#FFFFFF" fill-opacity="1.000000" fill-rule="nonzero"/>
	<path id="path558" d="M173.06 220.21C172.2 220.16 171.55 219.45 171.6 218.61C171.65 217.78 172.38 217.15 173.24 217.19C174.09 217.24 174.74 217.96 174.69 218.79C174.64 219.62 173.91 220.25 173.06 220.21Z" stroke="#1A2E35" stroke-opacity="1.000000" stroke-width="1.333333" stroke-linejoin="round"/>
	<path id="path562" d="M173.58 242.17C173.53 243 172.8 243.64 171.94 243.59C171.08 243.54 170.43 242.83 170.48 242C170.53 241.17 171.26 240.53 172.12 240.58C172.97 240.63 173.63 241.34 173.58 242.17Z" fill="#FFFFFF" fill-opacity="1.000000" fill-rule="nonzero"/>
	<path id="path566" d="M171.94 243.59C171.08 243.54 170.43 242.83 170.48 242C170.53 241.17 171.26 240.53 172.12 240.58C172.97 240.63 173.63 241.34 173.58 242.17C173.53 243 172.8 243.64 171.94 243.59Z" stroke="#1A2E35" stroke-opacity="1.000000" stroke-width="1.333333" stroke-linejoin="round"/>
	<path id="path570" d="M187.8 190.14L186.66 174.54L170.06 178.28L169.17 190.81C168.13 190.93 167.13 191.08 166.16 191.22L170.21 200.69L178.15 201.7L190.85 190.33C189.82 190.25 188.8 190.19 187.8 190.14Z" fill="#FFFFFF" fill-opacity="1.000000" fill-rule="nonzero"/>
	<path id="path582" d="M169.81 183.8C169.92 194.9 183.26 191.5 186.95 180.41L186.66 174.54L170.06 178.27L169.81 183.8Z" fill="#1A2E35" fill-opacity="1.000000" fill-rule="nonzero"/>
	<path id="path594" d="M186.66 174.54L170.06 178.27L169.17 190.81C168.13 190.93 167.13 191.08 166.16 191.22L170.21 200.69L178.15 201.7L190.85 190.32C189.82 190.25 188.8 190.19 187.8 190.14L186.66 174.54Z" stroke="#1A2E35" stroke-opacity="1.000000" stroke-width="1.333333" stroke-linejoin="round"/>
	<path id="path598" d="M159.64 161.37C159.64 161.37 153.57 151.16 152.67 145.77C149.9 129.14 162.25 134.75 162.25 134.75C162.25 134.75 170.97 127.16 181.84 128.49C192.71 129.82 195.58 134.31 202.89 137.08C202.89 137.08 197.4 164.2 190.37 170.28C183.34 176.35 159.64 161.37 159.64 161.37Z" fill="#1A2E35" fill-opacity="1.000000" fill-rule="nonzero"/>
	<path id="path602" d="M152.67 145.77C149.9 129.14 162.25 134.75 162.25 134.75C162.25 134.75 170.97 127.16 181.84 128.49C192.71 129.82 195.58 134.31 202.89 137.08C202.89 137.08 197.4 164.2 190.37 170.28C183.34 176.35 159.64 161.37 159.64 161.37C159.64 161.37 153.57 151.16 152.67 145.77Z" stroke="#1A2E35" stroke-opacity="1.000000" stroke-width="1.333333" stroke-linejoin="round"/>
	<path id="path606" d="M162.83 137.22C162.83 137.22 160.1 130.77 167.03 125.83" stroke="#1A2E35" stroke-opacity="1.000000" stroke-width="1.333333" stroke-linejoin="round" stroke-linecap="round"/>
	<path id="path610" d="M174.76 133.34C182.88 129.85 186.49 135.69 195.55 137.22" stroke="#C0C0C0" stroke-opacity="1.000000" stroke-width="1.333333"/>
	<path id="path614" d="M168.49 137.22C169.21 136.31 170.14 135.55 171.13 134.93" stroke="#C0C0C0" stroke-opacity="1.000000" stroke-width="1.333333"/>
	<path id="path618" d="M176.82 139.75C176.82 139.75 180.33 136.47 187.3 140.74C191.12 143.07 194.26 143.4 194.26 143.4" stroke="#C0C0C0" stroke-opacity="1.000000" stroke-width="1.333333"/>
	<path id="path622" d="M187.56 146.85C177.46 147.1 167.03 142.67 167.03 142.67C157.62 148.19 159.02 157.17 159.02 157.17C161.17 178.62 164.07 184.33 174.38 184.33C184.62 184.33 193.06 173.52 193.73 158.04C189.84 158.22 187.56 146.85 187.56 146.85Z" fill="#FFFFFF" fill-opacity="1.000000" fill-rule="nonzero"/>
	<path id="path626" d="M167.03 142.67C157.62 148.19 159.02 157.17 159.02 157.17C161.17 178.62 164.07 184.33 174.38 184.33C184.62 184.33 193.06 173.52 193.73 158.04C189.84 158.22 187.56 146.85 187.56 146.85C177.46 147.1 167.03 142.67 167.03 142.67Z" stroke="#1A2E35" stroke-opacity="1.000000" stroke-width="1.333333" stroke-linejoin="round"/>
	<path id="path630" d="M192.87 157.17C193.44 156.45 194.16 156.03 194.94 156.03C196.77 156.03 198.13 158.37 197.48 161.25C196.84 164.07 195.99 166.48 194.16 166.48C193.3 166.48 192.68 165.96 192.28 165.11L192.87 157.17ZM192.38 156.75L192.35 156.75C192.12 157.04 192.16 157.46 192.45 157.69C192.75 157.92 193.16 157.87 193.39 157.58L193.39 157.55L192.38 156.75ZM192.87 164.85L192.88 164.82C192.72 164.49 192.32 164.35 191.99 164.51C191.65 164.68 191.51 165.07 191.68 165.4L191.7 165.41L192.87 164.85Z" fill="#FFFFFF" fill-opacity="1.000000" fill-rule="nonzero"/>
	<path id="path630" d="M192.87 157.17C193.44 156.45 194.16 156.03 194.94 156.03C196.77 156.03 198.13 158.37 197.48 161.25C196.84 164.07 195.99 166.48 194.16 166.48C193.3 166.48 192.68 165.96 192.28 165.11" stroke="#1A2E35" stroke-opacity="1.000000" stroke-width="1.333333" stroke-linejoin="round" stroke-linecap="round"/>
	<path id="path634" d="M172.8 167.7C172.8 167.7 174.03 169.34 171.67 170.57C169.3 171.81 167.41 171.78 166.81 170.37C166.21 168.96 168.84 157.22 168.84 157.22" stroke="#1A2E35" stroke-opacity="1.000000" stroke-width="1.333333" stroke-linejoin="round" stroke-linecap="round"/>
	<path id="path638" d="M168.44 159.08C167.16 158.46 162.06 156.29 157.22 159.25L157.53 163.8C157.53 163.8 159.32 164.75 163.41 164.75C165.26 164.75 166.55 164.56 167.4 164.35" stroke="#1A2E35" stroke-opacity="1.000000" stroke-width="1.333333" stroke-linejoin="round" stroke-linecap="round"/>
	<path id="path642" d="M174.15 164C174.15 164 174.75 164.77 178.85 164.77C182.96 164.77 184.3 163.82 184.3 163.82L184.18 159.27C184.18 159.27 178.23 155.83 172.67 159.25L174.15 164Z" stroke="#1A2E35" stroke-opacity="1.000000" stroke-width="1.333333" stroke-linejoin="round"/>
	<path id="path646" d="M156.33 207.15Lnan 207.15" stroke="#1A2E35" stroke-opacity="1.000000" stroke-width="1.333333" stroke-linejoin="round" stroke-linecap="round"/>
	<path id="path650" d="M169.6 174.88C169.6 174.88 172.78 175.9 176.09 174.69C178.76 173.71 180.12 171.73 180.12 171.73" stroke="#1A2E35" stroke-opacity="1.000000" stroke-width="1.333333" stroke-linejoin="round" stroke-linecap="round"/>
	<path id="path654" d="M176.08 154.76C181.2 152.7 183.46 155.17 183.46 155.17" stroke="#1A2E35" stroke-opacity="1.000000" stroke-width="1.333333" stroke-linejoin="round" stroke-linecap="round"/>
	<path id="path658" d="M162.57 154.56C164.36 153.72 166.49 153.96 168.05 155.17" stroke="#1A2E35" stroke-opacity="1.000000" stroke-width="1.333333" stroke-linejoin="round" stroke-linecap="round"/>
	<path id="path662" d="M178.12 158.22C178.6 158.22 178.93 158.96 178.93 159.9C178.93 160.84 178.54 161.57 178.07 161.57C177.6 161.57 177.27 160.8 177.27 159.9C177.29 158.98 177.65 158.22 178.12 158.22Z" fill="#1A2E35" fill-opacity="1.000000" fill-rule="nonzero"/>
	<path id="path666" d="M165.41 158.01C165.87 158.01 166.21 158.75 166.21 159.69C166.21 160.63 165.81 161.37 165.35 161.37C164.88 161.37 164.54 160.59 164.54 159.69C164.57 158.78 164.94 158.01 165.41 158.01Z" fill="#1A2E35" fill-opacity="1.000000" fill-rule="nonzero"/>
	<path id="path670" d="M156.91 149.46C157.1 150.37 157.33 151.28 157.71 152.12" stroke="#C0C0C0" stroke-opacity="1.000000" stroke-width="1.333333"/>
	<path id="path674" d="M163.03 139.23C157.99 137.91 156 140.85 156.37 145.5" stroke="#C0C0C0" stroke-opacity="1.000000" stroke-width="1.333333"/>
	<path id="path678" d="M168.35 190.08L174.48 200.82L189.21 189.51L193.73 190.13L184.21 206.52C183.84 207.14 183.01 207.33 182.39 206.95L174.25 201.95L167.89 205.73C167.08 206.21 166.03 205.71 165.93 204.79L164.35 190.81L168.35 190.08Z" fill="#F15525" fill-opacity="1.000000" fill-rule="nonzero"/>
	<g opacity="0.300003">
		<g opacity="0.300003">
			<g opacity="0.300003">
				<path id="path696" d="M167.81 190.01L174.48 200.82L189.47 189.32L193.98 190.01L184.21 206.52C183.84 207.14 183.01 207.34 182.39 206.95L174.25 201.96L167.89 205.73C167.08 206.21 166.03 205.71 165.93 204.79L164.35 190.81L167.81 190.01Z" fill="#000000" fill-opacity="1.000000" fill-rule="nonzero"/>
				<path id="path696" d="M173.78 199.68L167.81 190.01L164.35 190.81L165.93 204.79C166.03 205.71 167.08 206.21 167.89 205.73L173.79 202.23L174.25 201.96L174.77 202.28L182.39 206.95C183.01 207.34 183.84 207.14 184.21 206.52L193.25 191.25L193.98 190.01L192.56 189.79L189.47 189.32L175.55 200L174.69 200.66L174.48 200.82L174.23 200.41L173.78 199.68ZM173.09 201.09L167.18 191.52L165.81 191.84L167.24 204.57L173.09 201.09ZM175.9 201.41L189.83 190.72L191.83 191.03L183.08 205.81L175.9 201.41Z" fill="#FFFFFF" fill-opacity="1.000000" fill-rule="evenodd"/>
			</g>
		</g>
	</g>
	<path id="path714" d="M174.48 200.82L189.21 189.51L193.73 190.13L184.21 206.52C183.84 207.14 183.01 207.34 182.39 206.95L174.25 201.96L167.89 205.73C167.08 206.21 166.03 205.71 165.93 204.79L164.35 190.81L168.35 190.08L174.48 200.82Z" stroke="#1A2E35" stroke-opacity="1.000000" stroke-width="1.333333" stroke-linejoin="round"/>
	<path id="path718" d="M117.09 265.78L77.05 265.78C76.18 265.78 75.48 265.1 75.48 264.25L75.48 262.11C75.48 261.27 76.18 260.59 77.05 260.59L117.09 260.59L117.09 265.78Z" fill="#1A2E35" fill-opacity="1.000000" fill-rule="nonzero"/>
	<path id="path722" d="M77.05 265.78C76.18 265.78 75.48 265.1 75.48 264.25L75.48 262.11C75.48 261.27 76.18 260.59 77.05 260.59L117.09 260.59L117.09 265.78L77.05 265.78Z" stroke="#1A2E35" stroke-opacity="1.000000" stroke-width="1.333333" stroke-linejoin="round"/>
	<path id="path726" d="M151.54 265.78L117.09 265.78L117.09 260.59L151.61 262.8C152.19 262.84 152.63 263.3 152.63 263.86L152.63 264.72C152.63 265.3 152.14 265.78 151.54 265.78Z" fill="#636363" fill-opacity="1.000000" fill-rule="nonzero"/>
	<path id="path730" d="M117.09 265.78L117.09 260.59L151.61 262.8C152.19 262.84 152.63 263.3 152.63 263.86L152.63 264.72C152.63 265.3 152.14 265.78 151.54 265.78L117.09 265.78Z" stroke="#1A2E35" stroke-opacity="1.000000" stroke-width="1.333333" stroke-linejoin="round"/>
	<path id="path734" d="M184.2 160.01L192.87 157.17L191.84 158.43" stroke="#1A2E35" stroke-opacity="1.000000" stroke-width="1.333333" stroke-linejoin="round" stroke-linecap="round"/>
	<path id="path746" d="M239.7 169.71C239.7 169.71 229.72 140.08 254.81 138C279.9 135.92 282.86 158.67 285.16 170.07C286.96 178.98 304.1 195.29 290.84 207.45C276.99 220.16 243.27 215.92 241.34 197.86C239.4 179.79 241.16 176.09 239.7 169.71Z" fill="#1A2E35" fill-opacity="1.000000" fill-rule="nonzero"/>
	<path id="path750" d="M254.81 138C279.9 135.92 282.86 158.67 285.16 170.07C286.96 178.98 304.1 195.29 290.84 207.45C276.99 220.16 243.27 215.92 241.34 197.86C239.4 179.79 241.16 176.09 239.7 169.71C239.7 169.71 229.72 140.08 254.81 138Z" stroke="#1A2E35" stroke-opacity="1.000000" stroke-width="1.333333" stroke-linejoin="round"/>
	<path id="path754" d="M268.98 174.42C268.98 174.42 267.88 187.56 274.85 198.87C274.85 198.87 265.46 201.84 255.67 199.01C256.07 195.52 255.88 191.99 255.08 188.57L254.74 187.14L261.86 181.15L268.98 174.42Z" fill="#FFFFFF" fill-opacity="1.000000" fill-rule="nonzero"/>
	<path id="path766" d="M251.74 184.33C253.04 191.4 254.23 192.94 260.39 191.68C264.96 190.75 268.85 184.08 269.07 179.25C268.72 176.3 268.74 172.63 268.74 172.63L261.86 181.15L251.74 184.33Z" fill="#1A2E35" fill-opacity="1.000000" fill-rule="nonzero"/>
	<path id="path778" d="M274.85 198.87C274.85 198.87 265.46 201.84 255.67 199.01C256.07 195.52 255.88 191.99 255.08 188.57L254.74 187.14L261.86 181.15L268.98 174.42C268.98 174.42 267.88 187.56 274.85 198.87Z" stroke="#1A2E35" stroke-opacity="1.000000" stroke-width="1.333333" stroke-linejoin="round"/>
	<path id="path782" d="M199.11 249.62C199.11 249.62 185.21 243.41 184.44 248.56C183.66 253.7 187.06 261.59 199.78 257.7L226.48 261.13C226.48 261.13 231.05 252.27 226.16 247.45C226.16 247.45 202.64 251 199.11 249.62Z" fill="#FFFFFF" fill-opacity="1.000000" fill-rule="nonzero"/>
	<path id="path786" d="M184.44 248.56C183.66 253.7 187.06 261.59 199.78 257.7L226.48 261.13C226.48 261.13 231.05 252.27 226.16 247.45C226.16 247.45 202.64 251 199.11 249.62C199.11 249.62 185.21 243.41 184.44 248.56Z" stroke="#1A2E35" stroke-opacity="1.000000" stroke-width="1.333333" stroke-linejoin="round"/>
	<path id="path790" d="M177.7 255.17C177.7 255.17 175.5 255.86 175.18 257.27C174.85 258.69 174.14 260.7 174.98 260.7C175.83 260.71 176.85 257.88 176.85 257.88L179 257.34L177.7 255.17Z" fill="#FFFFFF" fill-opacity="1.000000" fill-rule="nonzero"/>
	<path id="path794" d="M175.18 257.27C174.85 258.69 174.14 260.7 174.98 260.7C175.83 260.71 176.85 257.88 176.85 257.88L179 257.34L177.7 255.17C177.7 255.17 175.5 255.86 175.18 257.27Z" stroke="#1A2E35" stroke-opacity="1.000000" stroke-width="1.333333" stroke-linejoin="round"/>
	<path id="path798" d="M194.41 261.73L179.96 263.2L177.81 243.19L192.25 241.71L194.41 261.73Z" fill="#FFFFFF" fill-opacity="1.000000" fill-rule="nonzero"/>
	<path id="path802" d="M179.96 263.2L177.81 243.19L192.25 241.71L194.41 261.73L179.96 263.2Z" stroke="#1A2E35" stroke-opacity="1.000000" stroke-width="1.333333" stroke-linejoin="round"/>
	<path id="path806" d="M175.65 243.41L177.8 263.42L179.96 263.2L177.81 243.19L175.65 243.41Z" fill="#38BFF2" fill-opacity="1.000000" fill-rule="nonzero"/>
	<path id="path810" d="M177.8 263.42L179.96 263.2L177.81 243.19L175.65 243.41L177.8 263.42Z" stroke="#1A2E35" stroke-opacity="1.000000" stroke-width="1.333333" stroke-linejoin="round"/>
	<path id="path814" d="M188.37 238.82C186.64 239 185.39 240.5 185.57 242.18C185.58 242.25 185.6 242.32 185.61 242.39L186.34 242.32L187.11 242.24C187.1 242.17 187.08 242.1 187.07 242.03C186.97 241.15 187.63 240.37 188.53 240.28C189.42 240.19 190.23 240.82 190.32 241.7C190.39 242.28 190.11 242.82 189.65 243.14C189.75 243.47 190.05 243.89 190.87 244.05C191.54 243.42 191.93 242.51 191.82 241.54C191.64 239.87 190.09 238.64 188.37 238.82Z" fill="#FFFFFF" fill-opacity="1.000000" fill-rule="nonzero"/>
	<path id="path818" d="M185.57 242.18C185.58 242.25 185.6 242.32 185.61 242.39L186.34 242.32L187.11 242.24C187.1 242.17 187.08 242.1 187.07 242.03C186.97 241.15 187.63 240.37 188.53 240.28C189.42 240.19 190.23 240.82 190.32 241.7C190.39 242.28 190.11 242.82 189.65 243.14C189.75 243.47 190.05 243.89 190.87 244.05C191.54 243.42 191.93 242.51 191.82 241.54C191.64 239.87 190.09 238.64 188.37 238.82C186.64 239 185.39 240.5 185.57 242.18Z" stroke="#1A2E35" stroke-opacity="1.000000" stroke-width="1.333333" stroke-linejoin="round"/>
	<path id="path822" d="M180.53 247.34L185.5 247.34" stroke="#1A2E35" stroke-opacity="1.000000" stroke-width="1.333333" stroke-linejoin="round" stroke-linecap="round"/>
	<path id="path826" d="M180.77 249.54L190.43 249.54" stroke="#1A2E35" stroke-opacity="1.000000" stroke-width="1.333333" stroke-linejoin="round" stroke-linecap="round"/>
	<path id="path830" d="M181 251.75L185.83 251.75" stroke="#1A2E35" stroke-opacity="1.000000" stroke-width="1.333333" stroke-linejoin="round" stroke-linecap="round"/>
	<path id="path834" d="M181.24 253.95L189.31 253.95" stroke="#1A2E35" stroke-opacity="1.000000" stroke-width="1.333333" stroke-linejoin="round" stroke-linecap="round"/>
	<path id="path838" d="M181.48 256.16L186.31 256.16" stroke="#1A2E35" stroke-opacity="1.000000" stroke-width="1.333333" stroke-linejoin="round" stroke-linecap="round"/>
	<path id="path842" d="M181.72 258.36L192.31 258.36" stroke="#1A2E35" stroke-opacity="1.000000" stroke-width="1.333333" stroke-linejoin="round" stroke-linecap="round"/>
	<path id="path846" d="M181.95 260.57L186.93 260.57" stroke="#1A2E35" stroke-opacity="1.000000" stroke-width="1.333333" stroke-linejoin="round" stroke-linecap="round"/>
	<path id="path850" d="M185.69 239.09C183.97 239.27 182.71 240.77 182.89 242.45C182.9 242.53 182.93 242.59 182.94 242.67L183.67 242.59L183.67 242.59L184.44 242.51C184.42 242.44 184.4 242.37 184.39 242.3C184.3 241.43 184.95 240.64 185.85 240.55C186.75 240.46 187.56 241.1 187.65 241.97C187.71 242.55 187.44 243.09 186.98 243.41C187.08 243.74 187.37 244.16 188.19 244.33C188.87 243.69 189.26 242.79 189.15 241.82C188.97 240.14 187.42 238.92 185.69 239.09Z" fill="#FFFFFF" fill-opacity="1.000000" fill-rule="nonzero"/>
	<path id="path854" d="M182.89 242.45C182.9 242.53 182.93 242.59 182.94 242.67L183.67 242.59L183.67 242.59L184.44 242.51C184.42 242.44 184.4 242.37 184.39 242.3C184.3 241.43 184.95 240.64 185.85 240.55C186.75 240.46 187.56 241.1 187.65 241.97C187.71 242.55 187.44 243.09 186.98 243.41C187.08 243.74 187.37 244.16 188.19 244.33C188.87 243.69 189.26 242.79 189.15 241.82C188.97 240.14 187.42 238.92 185.69 239.09C183.97 239.27 182.71 240.77 182.89 242.45Z" stroke="#1A2E35" stroke-opacity="1.000000" stroke-width="1.333333" stroke-linejoin="round"/>
	<path id="path858" d="M183.02 239.36C181.3 239.54 180.04 241.05 180.22 242.72C180.23 242.8 180.25 242.87 180.27 242.94L181 242.86L181.77 242.78C181.75 242.71 181.73 242.64 181.72 242.57C181.63 241.7 182.28 240.91 183.18 240.82C184.08 240.73 184.88 241.37 184.98 242.24C185.04 242.82 184.76 243.36 184.31 243.69C184.4 244.01 184.7 244.43 185.52 244.6C186.19 243.97 186.58 243.06 186.48 242.09C186.3 240.41 184.75 239.19 183.02 239.36Z" fill="#FFFFFF" fill-opacity="1.000000" fill-rule="nonzero"/>
	<path id="path862" d="M180.22 242.72C180.23 242.8 180.25 242.87 180.27 242.94L181 242.86L181.77 242.78C181.75 242.71 181.73 242.64 181.72 242.57C181.63 241.7 182.28 240.91 183.18 240.82C184.08 240.73 184.88 241.37 184.98 242.24C185.04 242.82 184.76 243.36 184.31 243.69C184.4 244.01 184.7 244.43 185.52 244.6C186.19 243.97 186.58 243.06 186.48 242.09C186.3 240.41 184.75 239.19 183.02 239.36C181.3 239.54 180.04 241.05 180.22 242.72Z" stroke="#1A2E35" stroke-opacity="1.000000" stroke-width="1.333333" stroke-linejoin="round"/>
	<path id="path866" d="M180.35 239.64C178.62 239.81 177.37 241.32 177.55 243C177.56 243.07 177.58 243.14 177.59 243.21L178.32 243.13L179.09 243.06C179.08 242.99 179.06 242.92 179.05 242.84C178.95 241.97 179.61 241.19 180.51 241.1C181.4 241 182.21 241.64 182.3 242.51C182.37 243.1 182.09 243.64 181.63 243.96C181.73 244.29 182.03 244.71 182.85 244.87C183.52 244.24 183.91 243.33 183.8 242.36C183.62 240.68 182.07 239.46 180.35 239.64Z" fill="#FFFFFF" fill-opacity="1.000000" fill-rule="nonzero"/>
	<path id="path870" d="M177.55 243C177.56 243.07 177.58 243.14 177.59 243.21L178.32 243.13L179.09 243.06C179.08 242.99 179.06 242.92 179.05 242.84C178.95 241.97 179.61 241.19 180.51 241.1C181.4 241 182.21 241.64 182.3 242.51C182.37 243.1 182.09 243.64 181.63 243.96C181.73 244.29 182.03 244.71 182.85 244.87C183.52 244.24 183.91 243.33 183.8 242.36C183.62 240.68 182.07 239.46 180.35 239.64C178.62 239.81 177.37 241.32 177.55 243Z" stroke="#1A2E35" stroke-opacity="1.000000" stroke-width="1.333333" stroke-linejoin="round"/>
	<path id="path874" d="M176.38 243.12C176.28 242.24 176.94 241.46 177.83 241.37C178.73 241.28 179.54 241.91 179.63 242.79C179.69 243.37 179.42 243.91 178.96 244.23C179.06 244.56 179.35 244.98 180.18 245.14C180.85 244.51 181.24 243.6 181.13 242.63C180.95 240.95 179.4 239.73 177.68 239.91C175.95 240.08 174.7 241.59 174.88 243.27C174.96 244.02 175.32 244.66 175.84 245.15L175.65 243.41L176.42 243.33C176.4 243.26 176.39 243.19 176.38 243.12Z" fill="#FFFFFF" fill-opacity="1.000000" fill-rule="nonzero"/>
	<path id="path878" d="M177.83 241.37C178.73 241.28 179.54 241.91 179.63 242.79C179.69 243.37 179.42 243.91 178.96 244.23C179.06 244.56 179.35 244.98 180.18 245.14C180.85 244.51 181.24 243.6 181.13 242.63C180.95 240.95 179.4 239.73 177.68 239.91C175.95 240.08 174.7 241.59 174.88 243.27C174.96 244.02 175.32 244.66 175.84 245.15L175.65 243.41L176.42 243.33C176.4 243.26 176.39 243.19 176.38 243.12C176.28 242.24 176.94 241.46 177.83 241.37Z" stroke="#1A2E35" stroke-opacity="1.000000" stroke-width="1.333333" stroke-linejoin="round"/>
	<path id="path882" d="M173.98 248.78C174.1 249.05 174.26 249.33 174.45 249.63C174.45 249.63 173.89 251.26 175.02 252.78C175.02 252.78 175.09 254.99 175.89 255.34C176.7 255.69 177.98 256.11 177.95 255.5C177.93 254.89 177.55 253.02 176.11 252.61C176.11 252.61 177.77 252.93 177.59 252.03C177.4 251.13 177.09 249.84 176.07 249.46L175.52 249.23C175.52 249.23 176.84 249.46 176.73 248.49C176.62 247.52 176.51 246.39 175.75 246.11C175.58 246.05 175.37 245.99 175.17 245.95C174.05 245.69 173.33 247.4 173.98 248.78Z" fill="#FFFFFF" fill-opacity="1.000000" fill-rule="nonzero"/>
	<path id="path886" d="M174.45 249.63C174.45 249.63 173.89 251.26 175.02 252.78C175.02 252.78 175.09 254.99 175.89 255.34C176.7 255.69 177.98 256.11 177.95 255.5C177.93 254.89 177.55 253.02 176.11 252.61C176.11 252.61 177.77 252.93 177.59 252.03C177.4 251.13 177.09 249.84 176.07 249.46L175.52 249.23C175.52 249.23 176.84 249.46 176.73 248.49C176.62 247.52 176.51 246.39 175.75 246.11C175.58 246.05 175.37 245.99 175.17 245.95C174.05 245.69 173.33 247.4 173.98 248.78C174.1 249.05 174.26 249.33 174.45 249.63Z" stroke="#1A2E35" stroke-opacity="1.000000" stroke-width="1.333333" stroke-linejoin="round"/>
	<path id="path890" d="M197.55 249.45C197.55 249.45 196 246.11 193.46 244.36C190.91 242.62 189.97 239.23 188.93 240.05C187.89 240.88 188.83 244.47 190.44 245.7C192.04 246.93 190.25 249.68 194.21 253.08L197.55 249.45ZM196.96 249.7L196.95 249.73C197.1 250.07 197.49 250.21 197.83 250.05C198.17 249.9 198.31 249.51 198.16 249.17L198.13 249.16L196.96 249.7ZM193.77 253.56L193.78 253.58C194.06 253.83 194.47 253.79 194.72 253.51C194.96 253.23 194.93 252.81 194.64 252.57L194.62 252.57L193.77 253.56Z" fill="#FFFFFF" fill-opacity="1.000000" fill-rule="nonzero"/>
	<path id="path890" d="M197.55 249.45C197.55 249.45 196 246.11 193.46 244.36C190.91 242.62 189.97 239.23 188.93 240.05C187.89 240.88 188.83 244.47 190.44 245.7C192.04 246.93 190.25 249.68 194.21 253.08" stroke="#1A2E35" stroke-opacity="1.000000" stroke-width="1.333333" stroke-linejoin="round" stroke-linecap="round"/>
	<path id="path894" d="M291.1 259.22C290.75 261.32 290.37 263.51 289.97 265.78L235.36 265.78C235.27 265.07 235.79 263.63 236.28 261.14C230.2 263.15 219.59 260.03 219.59 260.03C220.91 256.65 219.99 248.05 219.99 248.05L226.19 246.77C226.19 246.77 228.76 220.58 230.72 213.07C232.8 205.11 244.17 196.42 282.42 198.99C282.42 198.99 300.07 198.66 302.81 210.04C305.36 220.65 291.83 258.73 291.1 259.22Z" fill="#CAB86F" fill-opacity="1.000000" fill-rule="nonzero"/>
	<g opacity="0.199997">
		<g opacity="0.199997">
			<g opacity="0.199997">
				<path id="path912" d="M236.29 261.14C232.06 262.54 225.65 261.46 222.13 260.67C223.04 259.99 223.62 258.59 223.83 256.83C226.7 256.39 229.56 251.96 231.45 231.83C231.9 227.1 232.85 224.14 234.08 222.14C233.05 226.19 232.61 230.73 233.94 235.99C234.62 238.69 236.77 245.19 236.96 247.89C237.4 254.03 236.85 258.28 236.29 261.14Z" fill="#000000" fill-opacity="1.000000" fill-rule="nonzero"/>
			</g>
		</g>
	</g>
	<g opacity="0.199997">
		<g opacity="0.199997">
			<g opacity="0.199997">
				<path id="path928" d="M291.09 259.23C290.75 261.33 290.37 263.52 289.98 265.78L235.36 265.78C236.34 262.87 238.75 249 235.35 240.58C235.22 240.24 247.08 235.39 255.03 237.37C288.72 245.77 277.11 218.7 286.73 213.77L278.44 245.43L273.9 246.83C283.72 247.42 280.88 261.72 280.88 261.72C285.48 262.45 289.27 260.45 291.09 259.23Z" fill="#000000" fill-opacity="1.000000" fill-rule="nonzero"/>
			</g>
		</g>
	</g>
	<path id="path946" d="M289.98 265.78L235.36 265.78C235.27 265.07 235.79 263.63 236.29 261.14C230.2 263.15 219.59 260.03 219.59 260.03C220.91 256.65 219.99 248.05 219.99 248.05L226.19 246.77C226.19 246.77 228.76 220.58 230.72 213.07C232.8 205.11 244.17 196.42 282.42 198.99C282.42 198.99 300.07 198.66 302.81 210.04C305.36 220.65 291.83 258.73 291.1 259.22C290.75 261.32 290.37 263.51 289.98 265.78Z" stroke="#1A2E35" stroke-opacity="1.000000" stroke-width="1.333333" stroke-linejoin="round"/>
	<path id="path950" d="M220.99 246.57C220.99 246.57 223.06 247.65 223.73 252.38C224.41 257.12 223.37 261.19 220.67 261.12C217.96 261.06 217.5 260.03 218.04 259.06C218.59 258.08 219.78 256.77 218.88 252.72C217.75 247.65 215.42 248.11 215.42 248.11C215.42 248.11 218.52 245.23 220.99 246.57Z" fill="#CAB86F" fill-opacity="1.000000" fill-rule="nonzero"/>
	<path id="path954" d="M223.73 252.38C224.41 257.12 223.37 261.19 220.67 261.12C217.96 261.06 217.5 260.03 218.04 259.06C218.59 258.08 219.78 256.77 218.88 252.72C217.75 247.65 215.42 248.11 215.42 248.11C215.42 248.11 218.52 245.23 220.99 246.57C220.99 246.57 223.06 247.65 223.73 252.38Z" stroke="#1A2E35" stroke-opacity="1.000000" stroke-width="1.333333" stroke-linejoin="round"/>
	<g opacity="0.199997">
		<g opacity="0.199997">
			<g opacity="0.199997">
				<path id="path964" d="M223.83 256.83C223.62 258.59 223.04 259.99 222.13 260.67C221.71 260.98 221.23 261.14 220.67 261.12C217.96 261.06 217.49 260.03 218.04 259.06C218.58 258.09 219.78 256.77 218.88 252.72C217.75 247.65 215.42 248.11 215.42 248.11C215.42 248.11 218.53 245.22 220.99 246.57C220.99 246.57 223.06 247.65 223.74 252.38C223.96 253.98 223.99 255.51 223.83 256.83Z" fill="#000000" fill-opacity="1.000000" fill-rule="nonzero"/>
			</g>
		</g>
	</g>
	<path id="path974" d="M273.01 189.51C273.01 189.51 259.28 193.56 253.04 191.4L251.74 199.51C251.74 199.51 257.82 204.66 277.28 198.33L273.01 189.51Z" fill="#CAB86F" fill-opacity="1.000000" fill-rule="nonzero"/>
	<path id="path978" d="M253.04 191.4L251.74 199.51C251.74 199.51 257.82 204.66 277.28 198.33L273.01 189.51C273.01 189.51 259.28 193.56 253.04 191.4Z" stroke="#1A2E35" stroke-opacity="1.000000" stroke-width="1.333333" stroke-linejoin="round"/>
	<path id="path982" d="M224.23 244.21C225.86 249.38 227.32 253.53 225.88 253.96C224.44 254.39 223.25 250.16 221.62 244.99C219.98 239.82 218.53 235.67 219.97 235.24C221.41 234.81 222.6 239.04 224.23 244.21Z" fill="#38BFF2" fill-opacity="1.000000" fill-rule="nonzero"/>
	<path id="path986" d="M225.88 253.96C224.44 254.39 223.25 250.16 221.62 244.99C219.98 239.82 218.53 235.67 219.97 235.24C221.41 234.81 222.6 239.04 224.23 244.21C225.86 249.38 227.32 253.53 225.88 253.96Z" stroke="#1A2E35" stroke-opacity="1.000000" stroke-width="1.333333" stroke-linejoin="round"/>
	<path id="path990" d="M221.41 244.33L224.02 243.55C223.64 242.33 223.28 241.18 222.93 240.14L220.34 240.91C220.65 241.96 221.02 243.11 221.41 244.33Z" fill="#1A2E35" fill-opacity="1.000000" fill-rule="nonzero"/>
	<path id="path994" d="M221.17 237.69C221.17 237.69 222.39 235.31 223.52 236.99C224.64 238.67 224.87 243.77 225.66 243.78" stroke="#1A2E35" stroke-opacity="1.000000" stroke-width="1.333333" stroke-linejoin="round" stroke-linecap="round"/>
	<path id="path998" d="M237.37 212.39C236.37 215.35 235 218.55 234.08 222.14C233.05 226.19 232.61 230.73 233.94 235.98C234.62 238.69 236.77 245.19 236.96 247.89C237.4 254.03 236.85 258.28 236.29 261.14C235.79 263.63 235.27 265.07 235.36 265.78" stroke="#1A2E35" stroke-opacity="1.000000" stroke-width="1.333333" stroke-linejoin="round" stroke-linecap="round"/>
	<path id="path1002" d="M271.17 247.71C271.17 247.71 248.96 250.66 241.47 250.83C240.31 250.85 236.88 250.44 236.88 250.44L231.55 246.97C231.55 246.97 227.45 246.38 225.43 246.83L223.14 249.75C223.14 249.75 220.28 250.64 221.91 252.75C221.91 252.75 221.28 254.37 222.67 255.6C222.67 255.6 222.79 257.43 224.05 258.16C224.05 258.16 224.3 259.88 225.68 260.36C227.07 260.85 235.74 259.51 238.38 258.77C241.03 258.04 266.68 261.95 276.74 261.71C276.74 261.71 285.35 251.93 271.17 247.71Z" fill="#FFFFFF" fill-opacity="1.000000" fill-rule="nonzero"/>
	<path id="path1006" d="M241.47 250.83C240.31 250.85 236.88 250.44 236.88 250.44L231.55 246.97C231.55 246.97 227.45 246.38 225.43 246.83L223.14 249.75C223.14 249.75 220.28 250.64 221.91 252.75C221.91 252.75 221.28 254.37 222.67 255.6C222.67 255.6 222.79 257.43 224.05 258.16C224.05 258.16 224.3 259.88 225.68 260.36C227.07 260.85 235.74 259.51 238.38 258.77C241.03 258.04 266.68 261.95 276.74 261.71C276.74 261.71 285.35 251.93 271.17 247.71C271.17 247.71 248.96 250.66 241.47 250.83Z" stroke="#1A2E35" stroke-opacity="1.000000" stroke-width="1.333333" stroke-linejoin="round"/>
	<path id="path1010" d="M271.52 165.89C271.52 165.89 265.65 168.12 262.18 161.97C260.68 159.3 257.64 153.75 257.64 153.75C256.77 155.92 257.83 159.24 257.83 159.24C255.85 158.39 252 158.2 252 158.2C250.64 155.98 250.24 150.95 250.24 150.95C248.36 154.01 248.9 158.41 248.9 158.41C244.87 158.95 242.38 160.29 240.55 161.85C241.04 163.83 241.23 166.91 241.06 173.31C240.84 181.67 244.97 183.96 249 187.09C253.02 190.21 264.06 191.83 267.86 175.49C267.86 175.49 275.85 172.6 271.94 166.54C271.81 166.33 271.67 166.12 271.52 165.89Z" fill="#FFFFFF" fill-opacity="1.000000" fill-rule="nonzero"/>
	<path id="path1014" d="M262.18 161.97C260.68 159.3 257.64 153.75 257.64 153.75C256.77 155.92 257.83 159.24 257.83 159.24C255.85 158.39 252 158.2 252 158.2C250.64 155.98 250.24 150.95 250.24 150.95C248.36 154.01 248.9 158.41 248.9 158.41C244.87 158.95 242.38 160.29 240.55 161.85C241.04 163.83 241.23 166.91 241.06 173.31C240.84 181.67 244.97 183.96 249 187.09C253.02 190.21 264.06 191.83 267.86 175.49C267.86 175.49 275.85 172.6 271.94 166.54C271.81 166.33 271.67 166.12 271.52 165.89C271.52 165.89 265.65 168.12 262.18 161.97Z" stroke="#1A2E35" stroke-opacity="1.000000" stroke-width="1.333333" stroke-linejoin="round"/>
	<path id="path1018" d="M264.99 155.86C267.5 160.86 271.87 164.72 277.47 166.13" stroke="#C0C0C0" stroke-opacity="1.000000" stroke-width="1.333333"/>
	<path id="path1022" d="M262.89 149.67C263.06 150.68 263.34 151.69 263.66 152.66" stroke="#C0C0C0" stroke-opacity="1.000000" stroke-width="1.333333"/>
	<path id="path1026" d="M266.87 150.04C266.87 150.04 271.39 158.44 278.47 158.64" stroke="#C0C0C0" stroke-opacity="1.000000" stroke-width="1.333333"/>
	<path id="path1030" d="M280.74 171.39C280.74 171.39 292.24 189.51 292.24 200.06" stroke="#C0C0C0" stroke-opacity="1.000000" stroke-width="1.333333"/>
	<path id="path1034" d="M277.69 176.22C277.69 176.22 280.54 186.33 285.11 191.4" stroke="#C0C0C0" stroke-opacity="1.000000" stroke-width="1.333333"/>
	<path id="path1038" d="M241.53 149.95C241.21 151.31 240.98 152.82 240.85 154.48" stroke="#C0C0C0" stroke-opacity="1.000000" stroke-width="1.333333"/>
	<path id="path1042" d="M250.95 140.45C250.95 140.45 245.6 141.43 242.1 147.57" stroke="#C0C0C0" stroke-opacity="1.000000" stroke-width="1.333333"/>
	<path id="path1046" d="M244.17 187.38C244.17 187.38 244 195.51 248.26 200.08" stroke="#C0C0C0" stroke-opacity="1.000000" stroke-width="1.333333"/>
	<path id="path1050" d="M251.74 162.49C257.54 161.39 260.09 164.26 260.09 164.26" stroke="#1A2E35" stroke-opacity="1.000000" stroke-width="1.333333" stroke-linejoin="round" stroke-linecap="round"/>
	<path id="path1054" d="M242.07 164.87C243.37 163.6 245.15 162.91 246.99 162.97" stroke="#1A2E35" stroke-opacity="1.000000" stroke-width="1.333333" stroke-linejoin="round" stroke-linecap="round"/>
	<path id="path1058" d="M258.32 177.85L257.94 178.04C255.61 179.26 253.06 180.05 250.43 180.38C252.11 182.09 254.34 182.09 255.53 181.42C257.32 180.43 258.32 177.85 258.32 177.85Z" stroke="#1A2E35" stroke-opacity="1.000000" stroke-width="1.333333" stroke-linejoin="round"/>
	<path id="path1062" d="M248.42 176.04C247.66 175.95 245.5 174.95 245.32 173.53C245.27 173.1 245.59 172.72 246.06 172.38C247.93 171.04 249.05 168.94 248.89 166.69C248.88 166.53 248.87 166.44 248.87 166.44" stroke="#1A2E35" stroke-opacity="1.000000" stroke-width="1.333333" stroke-linejoin="round" stroke-linecap="round"/>
	<path id="path1066" d="M255.84 164.76C256.39 164.69 256.96 165.58 257.1 166.74C257.25 167.89 256.92 168.88 256.37 168.94C255.82 169.01 255.26 168.13 255.11 166.97C254.97 165.81 255.29 164.82 255.84 164.76Z" fill="#1A2E35" fill-opacity="1.000000" fill-rule="nonzero"/>
	<path id="path1070" d="M246.27 168.1C246.41 169.23 246.09 170.2 245.56 170.26C245.02 170.33 244.46 169.46 244.32 168.33C244.18 167.2 244.5 166.23 245.04 166.16C245.57 166.1 246.13 166.96 246.27 168.1Z" fill="#1A2E35" fill-opacity="1.000000" fill-rule="nonzero"/>
	<path id="path1074" d="M264.1 165.73C264.1 165.73 263.35 163.69 264.2 162.6" stroke="#1A2E35" stroke-opacity="1.000000" stroke-width="1.333333" stroke-linejoin="round" stroke-linecap="round"/>
	<path id="path1078" d="M291.09 259.23C289.28 260.45 285.48 262.45 280.89 261.72C280.89 261.72 283.71 247.42 273.91 246.83L278.43 245.42L286.73 213.77" stroke="#1A2E35" stroke-opacity="1.000000" stroke-width="1.333333" stroke-linejoin="round" stroke-linecap="round"/>
	<path id="path1082" d="M280.89 245.43C280.89 245.43 286.14 246.77 287.61 251.17" stroke="#1A2E35" stroke-opacity="1.000000" stroke-width="1.333333" stroke-linejoin="round" stroke-linecap="round"/>
	<path id="path1086" d="M259.44 194.48C264.43 194.48 269.38 193.39 273.93 191.4" stroke="#1A2E35" stroke-opacity="1.000000" stroke-width="1.333333" stroke-linejoin="round" stroke-linecap="round"/>
	<path id="path1090" d="M252.67 193.73C253.79 194.02 254.94 194.2 256.09 194.32" stroke="#1A2E35" stroke-opacity="1.000000" stroke-width="1.333333" stroke-linejoin="round" stroke-linecap="round"/>
	<path id="path1094" d="M275.05 202.81C276.47 202.31 277.95 201.75 279.51 201.1" stroke="#1A2E35" stroke-opacity="1.000000" stroke-width="1.333333" stroke-linejoin="round" stroke-linecap="round"/>
	<path id="path1098" d="M250.46 202.92C250.46 202.92 255.8 207.85 269.94 204.33" stroke="#1A2E35" stroke-opacity="1.000000" stroke-width="1.333333" stroke-linejoin="round" stroke-linecap="round"/>
	<path id="path1102" d="M255.08 227.44C255.08 227.44 255.92 239.35 264.99 243.78" stroke="#1A2E35" stroke-opacity="1.000000" stroke-width="1.333333" stroke-linejoin="round" stroke-linecap="round"/>
	<path id="path1106" d="M270.95 247.9C270.95 247.9 272.74 244.07 278.07 245.96C278.07 245.96 283.11 247.65 284.62 252.69C286.13 257.74 284.24 262.23 280.56 262.41C276.89 262.6 276.22 262.32 276.84 261.22C277.45 260.12 278.73 257.13 277.12 253.39C274.83 248.07 270.95 247.9 270.95 247.9Z" fill="#CAB86F" fill-opacity="1.000000" fill-rule="nonzero"/>
	<g opacity="0.199997">
		<g opacity="0.199997">
			<g opacity="0.199997">
				<path id="path1124" d="M270.95 247.9C270.95 247.9 272.74 244.07 278.07 245.96C278.07 245.96 283.11 247.65 284.62 252.69C286.13 257.74 284.24 262.23 280.56 262.41C276.89 262.6 276.22 262.32 276.84 261.22C277.45 260.12 278.73 257.13 277.12 253.39C274.83 248.07 270.95 247.9 270.95 247.9Z" fill="#000000" fill-opacity="1.000000" fill-rule="nonzero"/>
			</g>
		</g>
	</g>
	<path id="path1142" d="M278.07 245.96C278.07 245.96 283.11 247.65 284.62 252.69C286.13 257.74 284.24 262.23 280.56 262.41C276.89 262.6 276.22 262.32 276.84 261.22C277.45 260.12 278.73 257.13 277.12 253.39C274.83 248.07 270.95 247.9 270.95 247.9C270.95 247.9 272.74 244.07 278.07 245.96Z" stroke="#1A2E35" stroke-opacity="1.000000" stroke-width="1.333333" stroke-linejoin="round"/>
	<path id="path1154" d="M26.95 232.15C26.95 232.15 24.22 209.37 0 218.55C0 218.55 20.6 218.4 24.09 235.56L27.29 235.23L26.95 232.15Z" fill="#154B28" fill-opacity="1.000000" fill-rule="nonzero"/>
	<g opacity="0.100006">
		<g opacity="0.100006">
			<g opacity="0.100006">
				<path id="path1164" d="M26.95 232.15C26.95 232.15 24.22 209.37 0 218.55C0 218.55 20.6 218.4 24.09 235.56L27.29 235.23L26.95 232.15Z" fill="#000000" fill-opacity="1.000000" fill-rule="nonzero"/>
			</g>
		</g>
	</g>
	<path id="path1174" d="M27.28 231.77C27.28 231.77 25.19 207.48 20.63 188.6C20.63 188.6 34.56 202.94 31.38 229.93L27.28 231.77Z" fill="#154B28" fill-opacity="1.000000" fill-rule="nonzero"/>
	<g opacity="0.100006">
		<g opacity="0.100006">
			<g opacity="0.100006">
				<path id="path1184" d="M27.28 231.77C27.28 231.77 25.19 207.48 20.63 188.6C20.63 188.6 34.56 202.94 31.38 229.93L27.28 231.77Z" fill="#000000" fill-opacity="1.000000" fill-rule="nonzero"/>
			</g>
		</g>
	</g>
	<path id="path1194" d="M25.93 247.85C25.93 247.85 21.91 214.39 8.54 202.9C8.54 202.9 32.46 208.68 28.91 244.22L25.93 247.85Z" fill="#154B28" fill-opacity="1.000000" fill-rule="nonzero"/>
	<path id="path1198" d="M30.13 246.44C30.13 246.44 35.99 213.24 49.98 202.47C49.98 202.47 25.78 207 27.36 242.67L30.13 246.44Z" fill="#154B28" fill-opacity="1.000000" fill-rule="nonzero"/>
	<path id="path1202" d="M42.41 235.58L14.14 235.58L14.14 240.36L15.08 240.36L15.08 257.22C15.08 261.95 19.02 265.78 23.88 265.78L32.66 265.78C37.52 265.78 41.46 261.95 41.46 257.22L41.46 240.36L42.41 240.36L42.41 235.58Z" fill="#FFFFFF" fill-opacity="1.000000" fill-rule="nonzero"/>
	<path id="path1206" d="M14.14 235.58L14.14 240.36L15.08 240.36L15.08 257.22C15.08 261.95 19.02 265.78 23.88 265.78L32.66 265.78C37.52 265.78 41.46 261.95 41.46 257.22L41.46 240.36L42.41 240.36L42.41 235.58L14.14 235.58Z" stroke="#1A2E35" stroke-opacity="1.000000" stroke-width="1.333333"/>
	<path id="path1210" d="" fill="#FFFFFF" fill-opacity="1.000000" fill-rule="nonzero"/>
	<path id="path1210" d="M38.74 248.05Lnan 248.05" stroke="#1A2E35" stroke-opacity="1.000000" stroke-width="1.333333"/>
	<path id="path1214" d="" fill="#FFFFFF" fill-opacity="1.000000" fill-rule="nonzero"/>
	<path id="path1214" d="M38.74 248.05Lnan 248.05" stroke="#1A2E35" stroke-opacity="1.000000" stroke-width="1.333333"/>
	<path id="path1218" d="M138.1 244.74L130.86 187.35C130.63 185.53 128.92 184.05 127.05 184.05L118.73 184.05L128.33 248.05L135.13 248.05C137 248.05 138.33 246.57 138.1 244.74Z" fill="#636363" fill-opacity="1.000000" fill-rule="nonzero"/>
	<path id="path1222" d="M130.86 187.35C130.63 185.53 128.92 184.05 127.05 184.05L118.73 184.05L128.33 248.05L135.13 248.05C137 248.05 138.33 246.57 138.1 244.74L130.86 187.35Z" stroke="#1A2E35" stroke-opacity="1.000000" stroke-width="1.333333" stroke-linejoin="round"/>
	<path id="path1226" d="M133.33 248.04L49.82 248.04C47.95 248.04 46.24 246.57 46.01 244.74L38.77 187.35C38.54 185.53 39.87 184.05 41.74 184.05L125.25 184.05C127.12 184.05 128.83 185.53 129.06 187.35L136.31 244.74C136.53 246.57 135.2 248.04 133.33 248.04Z" fill="#1A2E35" fill-opacity="1.000000" fill-rule="nonzero"/>
	<g opacity="0.100006">
		<g opacity="0.100006">
			<g opacity="0.100006">
				<path id="path1244" d="M133.33 248.04L49.82 248.04C47.95 248.04 46.24 246.57 46.01 244.74L38.77 187.35C38.54 185.53 39.87 184.05 41.74 184.05L125.25 184.05C127.12 184.05 128.83 185.53 129.06 187.35L136.31 244.74C136.53 246.57 135.2 248.04 133.33 248.04Z" fill="#FFFFFF" fill-opacity="1.000000" fill-rule="nonzero"/>
			</g>
		</g>
	</g>
	<path id="path1262" d="Mnan nanCnan nan nan nan nan nanCnan nan nan nan nan nanCnan nan nan nan nan nanCnan nan nan nan nan nanCnan nan nan nan nan nanCnan nan nan nan nan nanCnan nan nan nan nan nanCnan nan nan nan nan nan" stroke="#1A2E35" stroke-opacity="1.000000" stroke-width="1.333333" stroke-linejoin="round"/>
	<path id="path1266" d="Mnan nanCnan nan nan nan nan nanCnan nan nan nan nan nanCnan nan nan nan nan nanCnan nan nan nan nan nanCnan nan nan nan nan nanCnan nan nan nan nan nanCnan nan nan nan nan nanCnan nan nan nan nan nanCnan nan nan nan nan nanCnan nan nan nan nan nanCnan nan nan nan nan nan" fill="#1A2E35" fill-opacity="1.000000" fill-rule="nonzero"/>
	<path id="path1270" d="Mnan nanCnan nan nan nan nan nanCnan nan nan nan nan nanCnan nan nan nan nan nanCnan nan nan nan nan nanCnan nan nan nan nan nanCnan nan nan nan nan nanCnan nan nan nan nan nanCnan nan nan nan nan nanCnan nan nan nan nan nanCnan nan nan nan nan nanCnan nan nan nan nan nan" stroke="#1A2E35" stroke-opacity="1.000000" stroke-width="1.333333" stroke-linejoin="round"/>
	<path id="path1274" d="Mnan nanCnan nan nan nan nan nanCnan nan nan nan nan nanCnan nan nan nan nan nanCnan nan nan nan nan nanCnan nan nan nan nan nanCnan nan nan nan nan nanCnan nan nan nan nan nanCnan nan nan nan nan nanCnan nan nan nan nan nanCnan nan nan nan nan nan" fill="#636363" fill-opacity="1.000000" fill-rule="nonzero"/>
	<path id="path1278" d="Mnan nanCnan nan nan nan nan nanCnan nan nan nan nan nanCnan nan nan nan nan nanCnan nan nan nan nan nanCnan nan nan nan nan nanCnan nan nan nan nan nanCnan nan nan nan nan nanCnan nan nan nan nan nanCnan nan nan nan nan nanCnan nan nan nan nan nan" stroke="#1A2E35" stroke-opacity="1.000000" stroke-width="1.333333" stroke-linejoin="round"/>
	<path id="path1282" d="M224.76 146.59Lnan 146.59" stroke="#1A2E35" stroke-opacity="1.000000" stroke-width="1.333333" stroke-linejoin="round" stroke-linecap="round"/>
	<path id="path1294" d="M297.69 125.13L281.99 125.13C279.95 125.13 278.3 126.74 278.3 128.72L278.3 136.15C278.3 138.13 279.95 139.74 281.99 139.74L286.09 139.74L287.29 146.59L293.58 139.74L297.69 139.74C299.73 139.74 301.38 138.13 301.38 136.15L301.38 128.72C301.38 126.74 299.73 125.13 297.69 125.13Z" fill="#FFFFFF" fill-opacity="1.000000" fill-rule="nonzero"/>
	<path id="path1298" d="M281.99 125.13C279.95 125.13 278.3 126.74 278.3 128.72L278.3 136.15C278.3 138.13 279.95 139.74 281.99 139.74L286.09 139.74L287.29 146.59L293.58 139.74L297.69 139.74C299.73 139.74 301.38 138.13 301.38 136.15L301.38 128.72C301.38 126.74 299.73 125.13 297.69 125.13L281.99 125.13Z" stroke="#1A2E35" stroke-opacity="1.000000" stroke-width="1.333333" stroke-linejoin="round"/>
	<path id="path1302" d="M273.62 103.16L257.92 103.16C255.88 103.16 254.23 104.76 254.23 106.75L254.23 114.17C254.23 116.16 255.88 117.76 257.92 117.76L262.02 117.76L265.13 124.62L269.52 117.76L273.62 117.76C275.66 117.76 277.31 116.16 277.31 114.17L277.31 106.75C277.31 104.76 275.66 103.16 273.62 103.16Z" fill="#FFFFFF" fill-opacity="1.000000" fill-rule="nonzero"/>
	<path id="path1306" d="M257.92 103.16C255.88 103.16 254.23 104.76 254.23 106.75L254.23 114.17C254.23 116.16 255.88 117.76 257.92 117.76L262.02 117.76L265.13 124.62L269.52 117.76L273.62 117.76C275.66 117.76 277.31 116.16 277.31 114.17L277.31 106.75C277.31 104.76 275.66 103.16 273.62 103.16L257.92 103.16Z" stroke="#1A2E35" stroke-opacity="1.000000" stroke-width="1.333333" stroke-linejoin="round"/>
	<path id="path1310" d="M243.07 110.87L228.24 110.87C226.32 110.87 224.76 112.39 224.76 114.26L224.76 121.27C224.76 123.15 226.32 124.66 228.24 124.66L232.12 124.66L236.16 131.14L239.2 124.66L243.07 124.66C245 124.66 246.56 123.15 246.56 121.27L246.56 114.26C246.56 112.39 245 110.87 243.07 110.87Z" fill="#FFFFFF" fill-opacity="1.000000" fill-rule="nonzero"/>
	<path id="path1314" d="M228.24 110.87C226.32 110.87 224.76 112.39 224.76 114.26L224.76 121.27C224.76 123.15 226.32 124.66 228.24 124.66L232.12 124.66L236.16 131.14L239.2 124.66L243.07 124.66C245 124.66 246.56 123.15 246.56 121.27L246.56 114.26C246.56 112.39 245 110.87 243.07 110.87L228.24 110.87Z" stroke="#1A2E35" stroke-opacity="1.000000" stroke-width="1.333333" stroke-linejoin="round"/>
	<path id="path1318" d="M231.57 115.43L231.57 117.63L232.06 117.63C232.4 117.63 232.58 117.48 232.58 117.02L232.58 116.04C232.58 115.58 232.4 115.43 232.06 115.43L231.57 115.43ZM233.63 116.11L233.63 116.95C233.63 117.99 233.11 118.56 232.06 118.56L231.57 118.56L231.57 121L230.52 121L230.52 114.5L232.06 114.5C233.11 114.5 233.63 115.07 233.63 116.11Z" fill="#1A2E35" fill-opacity="1.000000" fill-rule="nonzero"/>
	<path id="path1322" d="M235.22 121L234.17 121L234.17 114.5L235.22 114.5L235.22 117.29L236.41 117.29L236.41 114.5L237.48 114.5L237.48 121L236.41 121L236.41 118.22L235.22 118.22L235.22 121Z" fill="#1A2E35" fill-opacity="1.000000" fill-rule="nonzero"/>
	<path id="path1326" d="M239.3 115.43L239.3 117.63L239.79 117.63C240.13 117.63 240.31 117.48 240.31 117.02L240.31 116.04C240.31 115.58 240.13 115.43 239.79 115.43L239.3 115.43ZM241.36 116.11L241.36 116.95C241.36 117.99 240.85 118.56 239.79 118.56L239.3 118.56L239.3 121L238.25 121L238.25 114.5L239.79 114.5C240.85 114.5 241.36 115.07 241.36 116.11Z" fill="#1A2E35" fill-opacity="1.000000" fill-rule="nonzero"/>
	<path id="path1330" d="M263.52 111.46L263.52 112.33C263.52 113.37 262.99 113.96 261.95 113.96C260.92 113.96 260.39 113.37 260.39 112.33L260.39 108.95C260.39 107.91 260.92 107.31 261.95 107.31C262.99 107.31 263.52 107.91 263.52 108.95L263.52 109.58L262.53 109.58L262.53 108.88C262.53 108.42 262.32 108.24 261.98 108.24C261.65 108.24 261.44 108.42 261.44 108.88L261.44 112.39C261.44 112.86 261.65 113.02 261.98 113.02C262.32 113.02 262.53 112.86 262.53 112.39L262.53 111.46L263.52 111.46Z" fill="#1A2E35" fill-opacity="1.000000" fill-rule="nonzero"/>
	<path id="path1334" d="M266.04 110.27L267.32 110.27L267.32 111L266.04 111L266.04 112.27L265.3 112.27L265.3 111L264.02 111L264.02 110.27L265.3 110.27L265.3 109.02L266.04 109.02L266.04 110.27Z" fill="#1A2E35" fill-opacity="1.000000" fill-rule="nonzero"/>
	<path id="path1338" d="M269.83 110.27L271.11 110.27L271.11 111L269.83 111L269.83 112.27L269.08 112.27L269.08 111L267.8 111L267.8 110.27L269.08 110.27L269.08 109.02L269.83 109.02L269.83 110.27Z" fill="#1A2E35" fill-opacity="1.000000" fill-rule="nonzero"/>
	<path id="path1342" d="M282.48 133.15L282.48 132.16L286.73 130.63L286.73 131.64L283.81 132.65L286.73 133.67L286.73 134.67L282.48 133.15Z" fill="#1A2E35" fill-opacity="1.000000" fill-rule="nonzero"/>
	<path id="path1346" d="M290.92 128.21L292.16 128.21L288.56 137.1L287.32 137.1L290.92 128.21Z" fill="#1A2E35" fill-opacity="1.000000" fill-rule="nonzero"/>
	<path id="path1350" d="M292.75 134.67L292.75 133.67L295.67 132.65L292.75 131.64L292.75 130.63L297 132.16L297 133.15L292.75 134.67Z" fill="#1A2E35" fill-opacity="1.000000" fill-rule="nonzero"/>
</svg>
