<svg width="304.174805" height="290.345703" viewBox="0 0 304.175 290.346" fill="none" xmlns="http://www.w3.org/2000/svg" xmlns:xlink="http://www.w3.org/1999/xlink">
	<desc>
			Created with Pixso.
	</desc>
	<defs>
		<clipPath id="clip3_576">
			<rect id="6502421 1" width="304.174805" height="290.345795" transform="matrix(-1 0 0 1 304.175 0)" fill="white" fill-opacity="0"/>
		</clipPath>
	</defs>
	<rect id="6502421 1" width="304.174805" height="290.345795" transform="matrix(-1 0 0 1 304.175 0)" fill="#FFFFFF" fill-opacity="0"/>
	<g clip-path="url(#clip3_576)">
		<path id="path42" d="M22.03 164.29L12.79 164.29" stroke="#1A2E35" stroke-opacity="1.000000" stroke-width="1.333333" stroke-linejoin="round" stroke-linecap="round"/>
		<path id="path46" d="M290.42 164.29L26.17 164.29" stroke="#1A2E35" stroke-opacity="1.000000" stroke-width="1.333333" stroke-linejoin="round" stroke-linecap="round"/>
		<path id="path58" d="M68.67 93.98C68.67 87.89 63.5 82.96 57.12 82.96C50.75 82.96 45.58 87.89 45.58 93.98C45.58 100.06 50.75 105 57.12 105C63.5 105 68.67 100.06 68.67 93.98ZM36.21 91.75L40.77 91.13C41.2 88.9 42.11 86.83 43.39 85.03L40.62 81.5L43.99 78.29L47.67 80.93C49.55 79.69 51.71 78.81 54.04 78.39L54.69 74.02L59.46 74.02L60.11 78.37C62.44 78.78 64.6 79.64 66.49 80.87L70.19 78.23L73.56 81.44L70.79 84.96C72.09 86.75 73.01 88.81 73.45 91.03L78.03 91.66L78.03 96.2L73.47 96.83C73.04 99.05 72.14 101.12 70.85 102.92L73.62 106.45L70.25 109.66L66.57 107.03C64.69 108.27 62.53 109.15 60.2 109.56L59.55 113.93L54.79 113.93L54.13 109.58C51.8 109.18 49.64 108.31 47.75 107.08L44.05 109.73L40.69 106.51L43.45 102.99C42.15 101.2 41.23 99.14 40.79 96.92L36.21 96.29L36.21 91.75Z" stroke="#1A2E35" stroke-opacity="1.000000" stroke-width="1.333333"/>
		<path id="path62" d="M46.22 121.76C46.22 117.41 42.53 113.88 37.97 113.88C33.41 113.88 29.71 117.41 29.71 121.76C29.71 126.11 33.41 129.64 37.97 129.64C42.53 129.64 46.22 126.11 46.22 121.76ZM23.01 120.17L26.28 119.72C26.58 118.13 27.23 116.65 28.15 115.37L26.17 112.84L28.57 110.54L31.21 112.43C32.55 111.54 34.1 110.91 35.76 110.61L36.23 107.49L39.63 107.49L40.1 110.6C41.77 110.89 43.32 111.51 44.66 112.39L47.31 110.5L49.72 112.8L47.74 115.31C48.67 116.59 49.33 118.07 49.64 119.66L52.92 120.1L52.92 123.35L49.66 123.8C49.35 125.39 48.7 126.87 47.78 128.15L49.77 130.68L47.36 132.98L44.72 131.09C43.38 131.98 41.84 132.61 40.17 132.91L39.7 136.03L36.3 136.03L35.83 132.92C34.16 132.63 32.61 132.01 31.27 131.13L28.62 133.02L26.21 130.72L28.19 128.21C27.26 126.93 26.6 125.45 26.29 123.86L23.01 123.42L23.01 120.17Z" stroke="#1A2E35" stroke-opacity="1.000000" stroke-width="1.333333"/>
		<path id="path66" d="M234.09 123.3C234.09 128.85 238.81 133.35 244.63 133.35C250.44 133.35 255.16 128.85 255.16 123.3C255.16 117.74 250.44 113.24 244.63 113.24C238.81 113.24 234.09 117.74 234.09 123.3ZM263.7 125.33L259.54 125.9C259.16 127.93 258.33 129.81 257.15 131.45L259.68 134.68L256.61 137.61L253.25 135.2C251.53 136.34 249.56 137.14 247.44 137.52L246.84 141.51L242.5 141.51L241.9 137.53C239.77 137.16 237.8 136.37 236.08 135.25L232.7 137.67L229.63 134.73L232.15 131.52C230.97 129.89 230.13 128.01 229.73 125.98L225.55 125.41L225.55 121.26L229.71 120.69C230.1 118.66 230.93 116.78 232.1 115.14L229.57 111.91L232.64 108.98L236.01 111.39C237.72 110.26 239.69 109.45 241.81 109.07L242.41 105.09L246.76 105.09L247.35 109.06C249.48 109.43 251.46 110.22 253.17 111.34L256.55 108.92L259.62 111.86L257.1 115.07C258.29 116.7 259.13 118.58 259.53 120.61L263.7 121.18L263.7 125.33Z" stroke="#1A2E35" stroke-opacity="1.000000" stroke-width="1.333333"/>
		<path id="path70" d="M256.39 99.89C256.39 103.28 259.27 106.03 262.82 106.03C266.37 106.03 269.24 103.28 269.24 99.89C269.24 96.5 266.37 93.76 262.82 93.76C259.27 93.76 256.39 96.5 256.39 99.89ZM274.45 101.13L271.92 101.48C271.68 102.72 271.18 103.87 270.46 104.87L272 106.83L270.13 108.62L268.07 107.16C267.03 107.85 265.83 108.34 264.53 108.57L264.17 111L261.52 111L261.15 108.58C259.86 108.35 258.65 107.87 257.6 107.18L255.54 108.66L253.67 106.87L255.21 104.91C254.48 103.91 253.97 102.77 253.73 101.53L251.18 101.18L251.18 98.65L253.72 98.3C253.95 97.07 254.46 95.92 255.18 94.91L253.63 92.95L255.51 91.16L257.56 92.63C258.6 91.94 259.81 91.45 261.1 91.22L261.47 88.78L264.12 88.78L264.48 91.21C265.78 91.43 266.98 91.91 268.03 92.6L270.09 91.12L271.97 92.91L270.43 94.87C271.15 95.87 271.66 97.02 271.91 98.25L274.45 98.6L274.45 101.13Z" stroke="#1A2E35" stroke-opacity="1.000000" stroke-width="1.333333"/>
		<path id="path74" d="M147.54 54.2C147.54 58.85 151.49 62.63 156.36 62.63C161.24 62.63 165.19 58.85 165.19 54.2C165.19 49.55 161.24 45.78 156.36 45.78C151.49 45.78 147.54 49.55 147.54 54.2ZM172.34 55.9L168.86 56.38C168.53 58.08 167.84 59.66 166.85 61.04L168.97 63.74L166.4 66.19L163.58 64.18C162.15 65.12 160.5 65.8 158.72 66.12L158.22 69.46L154.58 69.46L154.08 66.13C152.3 65.82 150.64 65.16 149.2 64.22L146.37 66.24L143.8 63.78L145.91 61.09C144.92 59.72 144.21 58.15 143.88 56.45L140.38 55.97L140.38 52.5L143.87 52.02C144.19 50.32 144.88 48.74 145.87 47.37L143.75 44.67L146.32 42.21L149.14 44.23C150.58 43.28 152.22 42.61 154 42.29L154.5 38.95L158.14 38.95L158.64 42.28C160.43 42.58 162.08 43.25 163.52 44.19L166.35 42.16L168.92 44.62L166.81 47.31C167.81 48.68 168.51 50.25 168.84 51.95L172.34 52.43L172.34 55.9Z" stroke="#1A2E35" stroke-opacity="1.000000" stroke-width="1.333333"/>
		<path id="path86" d="M62.06 168.06L239.12 168.06L239.12 56.88C239.12 54.33 236.95 52.26 234.27 52.26L66.91 52.26C64.23 52.26 62.06 54.33 62.06 56.88L62.06 168.06Z" fill="#1A2E35" fill-opacity="1.000000" fill-rule="nonzero"/>
		<path id="path90" d="M239.12 168.06L239.12 56.88C239.12 54.33 236.95 52.26 234.27 52.26L66.91 52.26C64.23 52.26 62.06 54.33 62.06 56.88L62.06 168.06L239.12 168.06Z" stroke="#1A2E35" stroke-opacity="1.000000" stroke-width="1.333333" stroke-linejoin="round"/>
		<path id="path94" d="M35.5 219.25L265.67 219.25L239.12 168.06L62.06 168.06L35.5 219.25Z" fill="#FFFFFF" fill-opacity="1.000000" fill-rule="nonzero"/>
		<path id="path98" d="M265.67 219.25L239.12 168.06L62.06 168.06L35.5 219.25L265.67 219.25Z" stroke="#1A2E35" stroke-opacity="1.000000" stroke-width="1.333333" stroke-linejoin="round"/>
		<path id="path100" d="M72.79 158.89L228.39 158.89L228.39 61.42L72.79 61.42L72.79 158.89Z" fill="#B9B9B9" fill-opacity="1.000000" fill-rule="nonzero"/>
		<path id="path100" d="M228.39 158.89L228.39 61.42L72.79 61.42L72.79 158.89L228.39 158.89Z" stroke="#1A2E35" stroke-opacity="1.000000" stroke-width="1.333333" stroke-linejoin="round"/>
		<path id="path104" d="M157.97 184.26L157.67 178.02L167.02 178.02L167.64 184.26L157.97 184.26Z" fill="#1A2E35" fill-opacity="1.000000" fill-rule="nonzero"/>
		<path id="path108" d="M157.67 178.02L167.02 178.02L167.64 184.26L157.97 184.26L157.67 178.02Z" stroke="#FFFFFF" stroke-opacity="1.000000" stroke-width="1.333333" stroke-linejoin="round"/>
		<path id="path112" d="M138.64 184.26L138.96 178.02L148.31 178.02L148.31 184.26L138.64 184.26Z" fill="#1A2E35" fill-opacity="1.000000" fill-rule="nonzero"/>
		<path id="path116" d="M138.96 178.02L148.31 178.02L148.31 184.26L138.64 184.26L138.96 178.02Z" stroke="#FFFFFF" stroke-opacity="1.000000" stroke-width="1.333333" stroke-linejoin="round"/>
		<path id="path120" d="M88.29 190.93L78.28 190.93L80.63 184.26L90.3 184.26L88.29 190.93Z" fill="#1A2E35" fill-opacity="1.000000" fill-rule="nonzero"/>
		<path id="path124" d="M78.28 190.93L80.63 184.26L90.3 184.26L88.29 190.93L78.28 190.93Z" stroke="#FFFFFF" stroke-opacity="1.000000" stroke-width="1.333333" stroke-linejoin="round"/>
		<path id="path128" d="M167.64 184.26L167.02 178.02L176.38 178.02L177.31 184.26L167.64 184.26Z" fill="#1A2E35" fill-opacity="1.000000" fill-rule="nonzero"/>
		<path id="path132" d="M167.02 178.02L176.38 178.02L177.31 184.26L167.64 184.26L167.02 178.02Z" stroke="#FFFFFF" stroke-opacity="1.000000" stroke-width="1.333333" stroke-linejoin="round"/>
		<path id="path136" d="M186.98 184.26L185.73 178.02L195.09 178.02L196.65 184.26L186.98 184.26Z" fill="#1A2E35" fill-opacity="1.000000" fill-rule="nonzero"/>
		<path id="path140" d="M185.73 178.02L195.09 178.02L196.65 184.26L186.98 184.26L185.73 178.02Z" stroke="#FFFFFF" stroke-opacity="1.000000" stroke-width="1.333333" stroke-linejoin="round"/>
		<path id="path144" d="M99.97 184.26L101.54 178.02L110.89 178.02L109.63 184.26L99.97 184.26Z" fill="#1A2E35" fill-opacity="1.000000" fill-rule="nonzero"/>
		<path id="path148" d="M101.54 178.02L110.89 178.02L109.63 184.26L99.97 184.26L101.54 178.02Z" stroke="#FFFFFF" stroke-opacity="1.000000" stroke-width="1.333333" stroke-linejoin="round"/>
		<path id="path152" d="M90.3 184.26L92.18 178.02L101.54 178.02L99.97 184.26L90.3 184.26Z" fill="#1A2E35" fill-opacity="1.000000" fill-rule="nonzero"/>
		<path id="path156" d="M92.18 178.02L101.54 178.02L99.97 184.26L90.3 184.26L92.18 178.02Z" stroke="#FFFFFF" stroke-opacity="1.000000" stroke-width="1.333333" stroke-linejoin="round"/>
		<path id="path160" d="M196.65 184.26L195.09 178.02L204.44 178.02L206.31 184.26L196.65 184.26Z" fill="#1A2E35" fill-opacity="1.000000" fill-rule="nonzero"/>
		<path id="path164" d="M195.09 178.02L204.44 178.02L206.31 184.26L196.65 184.26L195.09 178.02Z" stroke="#FFFFFF" stroke-opacity="1.000000" stroke-width="1.333333" stroke-linejoin="round"/>
		<path id="path168" d="M128.97 184.26L129.6 178.02L138.96 178.02L138.64 184.26L128.97 184.26Z" fill="#1A2E35" fill-opacity="1.000000" fill-rule="nonzero"/>
		<path id="path172" d="M129.6 178.02L138.96 178.02L138.64 184.26L128.97 184.26L129.6 178.02Z" stroke="#FFFFFF" stroke-opacity="1.000000" stroke-width="1.333333" stroke-linejoin="round"/>
		<path id="path176" d="M80.63 184.26L82.83 178.02L92.18 178.02L90.3 184.26L80.63 184.26Z" fill="#1A2E35" fill-opacity="1.000000" fill-rule="nonzero"/>
		<path id="path180" d="M82.83 178.02L92.18 178.02L90.3 184.26L80.63 184.26L82.83 178.02Z" stroke="#FFFFFF" stroke-opacity="1.000000" stroke-width="1.333333" stroke-linejoin="round"/>
		<path id="path184" d="M109.64 184.26L110.89 178.02L120.25 178.02L119.3 184.26L109.64 184.26Z" fill="#1A2E35" fill-opacity="1.000000" fill-rule="nonzero"/>
		<path id="path188" d="M110.89 178.02L120.25 178.02L119.3 184.26L109.64 184.26L110.89 178.02Z" stroke="#FFFFFF" stroke-opacity="1.000000" stroke-width="1.333333" stroke-linejoin="round"/>
		<path id="path192" d="M119.3 184.26L120.25 178.02L129.6 178.02L128.97 184.26L119.3 184.26Z" fill="#1A2E35" fill-opacity="1.000000" fill-rule="nonzero"/>
		<path id="path196" d="M120.25 178.02L129.6 178.02L128.97 184.26L119.3 184.26L120.25 178.02Z" stroke="#FFFFFF" stroke-opacity="1.000000" stroke-width="1.333333" stroke-linejoin="round"/>
		<path id="path200" d="M148.31 184.26L148.31 178.02L157.67 178.02L157.97 184.26L148.31 184.26Z" fill="#1A2E35" fill-opacity="1.000000" fill-rule="nonzero"/>
		<path id="path204" d="M148.31 178.02L157.67 178.02L157.97 184.26L148.31 184.26L148.31 178.02Z" stroke="#FFFFFF" stroke-opacity="1.000000" stroke-width="1.333333" stroke-linejoin="round"/>
		<path id="path208" d="M215.98 184.26L225.65 184.26L228.32 190.93L218.32 190.93L215.98 184.26Z" fill="#1A2E35" fill-opacity="1.000000" fill-rule="nonzero"/>
		<path id="path212" d="M225.65 184.26L228.32 190.93L218.32 190.93L215.98 184.26L225.65 184.26Z" stroke="#FFFFFF" stroke-opacity="1.000000" stroke-width="1.333333" stroke-linejoin="round"/>
		<path id="path216" d="M213.8 178.02L223.15 178.02L225.65 184.26L215.98 184.26L213.8 178.02Z" fill="#1A2E35" fill-opacity="1.000000" fill-rule="nonzero"/>
		<path id="path220" d="M223.15 178.02L225.65 184.26L215.98 184.26L213.8 178.02L223.15 178.02Z" stroke="#FFFFFF" stroke-opacity="1.000000" stroke-width="1.333333" stroke-linejoin="round"/>
		<path id="path224" d="M206.31 184.26L204.44 178.02L213.8 178.02L215.98 184.26L206.31 184.26Z" fill="#1A2E35" fill-opacity="1.000000" fill-rule="nonzero"/>
		<path id="path228" d="M204.44 178.02L213.8 178.02L215.98 184.26L206.31 184.26L204.44 178.02Z" stroke="#FFFFFF" stroke-opacity="1.000000" stroke-width="1.333333" stroke-linejoin="round"/>
		<path id="path232" d="M231.18 198.08L234.25 205.76L223.51 205.76L220.82 198.08L231.18 198.08Z" fill="#1A2E35" fill-opacity="1.000000" fill-rule="nonzero"/>
		<path id="path236" d="M234.25 205.76L223.51 205.76L220.82 198.08L231.18 198.08L234.25 205.76Z" stroke="#FFFFFF" stroke-opacity="1.000000" stroke-width="1.333333" stroke-linejoin="round"/>
		<path id="path240" d="M218.32 190.93L228.32 190.93L231.18 198.08L220.82 198.08L218.32 190.93Z" fill="#1A2E35" fill-opacity="1.000000" fill-rule="nonzero"/>
		<path id="path244" d="M228.32 190.93L231.18 198.08L220.82 198.08L218.32 190.93L228.32 190.93Z" stroke="#FFFFFF" stroke-opacity="1.000000" stroke-width="1.333333" stroke-linejoin="round"/>
		<path id="path248" d="M220.82 198.08L223.51 205.76L212.76 205.76L210.46 198.08L220.82 198.08Z" fill="#1A2E35" fill-opacity="1.000000" fill-rule="nonzero"/>
		<path id="path252" d="M223.51 205.76L212.76 205.76L210.46 198.08L220.82 198.08L223.51 205.76Z" stroke="#FFFFFF" stroke-opacity="1.000000" stroke-width="1.333333" stroke-linejoin="round"/>
		<path id="path256" d="M177.31 184.26L176.38 178.02L185.73 178.02L186.98 184.26L177.31 184.26Z" fill="#1A2E35" fill-opacity="1.000000" fill-rule="nonzero"/>
		<path id="path260" d="M176.38 178.02L185.73 178.02L186.98 184.26L177.31 184.26L176.38 178.02Z" stroke="#FFFFFF" stroke-opacity="1.000000" stroke-width="1.333333" stroke-linejoin="round"/>
		<path id="path264" d="M178.31 190.93L177.31 184.26L186.98 184.26L188.31 190.93L178.31 190.93Z" fill="#1A2E35" fill-opacity="1.000000" fill-rule="nonzero"/>
		<path id="path268" d="M177.31 184.26L186.98 184.26L188.31 190.93L178.31 190.93L177.31 184.26Z" stroke="#FFFFFF" stroke-opacity="1.000000" stroke-width="1.333333" stroke-linejoin="round"/>
		<path id="path272" d="M188.31 190.93L186.98 184.26L196.65 184.26L198.31 190.93L188.31 190.93Z" fill="#1A2E35" fill-opacity="1.000000" fill-rule="nonzero"/>
		<path id="path276" d="M186.98 184.26L196.65 184.26L198.31 190.93L188.31 190.93L186.98 184.26Z" stroke="#FFFFFF" stroke-opacity="1.000000" stroke-width="1.333333" stroke-linejoin="round"/>
		<path id="path280" d="M168.31 190.93L167.64 184.26L177.31 184.26L178.31 190.93L168.31 190.93Z" fill="#1A2E35" fill-opacity="1.000000" fill-rule="nonzero"/>
		<path id="path284" d="M167.64 184.26L177.31 184.26L178.31 190.93L168.31 190.93L167.64 184.26Z" stroke="#FFFFFF" stroke-opacity="1.000000" stroke-width="1.333333" stroke-linejoin="round"/>
		<path id="path288" d="M206.31 184.26L215.98 184.26L218.32 190.93L208.31 190.93L206.31 184.26Z" fill="#1A2E35" fill-opacity="1.000000" fill-rule="nonzero"/>
		<path id="path292" d="M215.98 184.26L218.32 190.93L208.31 190.93L206.31 184.26L215.98 184.26Z" stroke="#FFFFFF" stroke-opacity="1.000000" stroke-width="1.333333" stroke-linejoin="round"/>
		<path id="path296" d="M86.13 198.08L75.77 198.08L78.28 190.93L88.29 190.93L86.13 198.08Z" fill="#1A2E35" fill-opacity="1.000000" fill-rule="nonzero"/>
		<path id="path300" d="M75.77 198.08L78.28 190.93L88.29 190.93L86.13 198.08L75.77 198.08Z" stroke="#FFFFFF" stroke-opacity="1.000000" stroke-width="1.333333" stroke-linejoin="round"/>
		<path id="path304" d="M198.31 190.93L196.65 184.26L206.31 184.26L208.32 190.93L198.31 190.93Z" fill="#1A2E35" fill-opacity="1.000000" fill-rule="nonzero"/>
		<path id="path308" d="M196.65 184.26L206.31 184.26L208.32 190.93L198.31 190.93L196.65 184.26Z" stroke="#FFFFFF" stroke-opacity="1.000000" stroke-width="1.333333" stroke-linejoin="round"/>
		<path id="path312" d="M218.32 190.93L220.82 198.08L210.46 198.08L208.31 190.93L218.32 190.93Z" fill="#1A2E35" fill-opacity="1.000000" fill-rule="nonzero"/>
		<path id="path316" d="M220.82 198.08L210.46 198.08L208.31 190.93L218.32 190.93L220.82 198.08Z" stroke="#FFFFFF" stroke-opacity="1.000000" stroke-width="1.333333" stroke-linejoin="round"/>
		<path id="path320" d="M108.29 190.93L109.63 184.26L119.3 184.26L118.29 190.93L108.29 190.93Z" fill="#1A2E35" fill-opacity="1.000000" fill-rule="nonzero"/>
		<path id="path324" d="M109.63 184.26L119.3 184.26L118.29 190.93L108.29 190.93L109.63 184.26Z" stroke="#FFFFFF" stroke-opacity="1.000000" stroke-width="1.333333" stroke-linejoin="round"/>
		<path id="path328" d="M118.29 190.93L119.3 184.26L128.97 184.26L128.3 190.93L118.29 190.93Z" fill="#1A2E35" fill-opacity="1.000000" fill-rule="nonzero"/>
		<path id="path332" d="M119.3 184.26L128.97 184.26L128.3 190.93L118.29 190.93L119.3 184.26Z" stroke="#FFFFFF" stroke-opacity="1.000000" stroke-width="1.333333" stroke-linejoin="round"/>
		<path id="path336" d="M88.29 190.93L90.3 184.26L99.97 184.26L98.29 190.93L88.29 190.93Z" fill="#1A2E35" fill-opacity="1.000000" fill-rule="nonzero"/>
		<path id="path340" d="M90.3 184.26L99.97 184.26L98.29 190.93L88.29 190.93L90.3 184.26Z" stroke="#FFFFFF" stroke-opacity="1.000000" stroke-width="1.333333" stroke-linejoin="round"/>
		<path id="path344" d="M148.3 190.93L148.31 184.26L157.97 184.26L158.3 190.93L148.3 190.93Z" fill="#1A2E35" fill-opacity="1.000000" fill-rule="nonzero"/>
		<path id="path348" d="M148.31 184.26L157.97 184.26L158.3 190.93L148.3 190.93L148.31 184.26Z" stroke="#FFFFFF" stroke-opacity="1.000000" stroke-width="1.333333" stroke-linejoin="round"/>
		<path id="path352" d="M128.3 190.93L128.97 184.26L138.64 184.26L138.3 190.93L128.3 190.93Z" fill="#1A2E35" fill-opacity="1.000000" fill-rule="nonzero"/>
		<path id="path356" d="M128.97 184.26L138.64 184.26L138.3 190.93L128.3 190.93L128.97 184.26Z" stroke="#FFFFFF" stroke-opacity="1.000000" stroke-width="1.333333" stroke-linejoin="round"/>
		<path id="path360" d="M138.3 190.93L138.64 184.26L148.31 184.26L148.3 190.93L138.3 190.93Z" fill="#1A2E35" fill-opacity="1.000000" fill-rule="nonzero"/>
		<path id="path364" d="M138.64 184.26L148.31 184.26L148.3 190.93L138.3 190.93L138.64 184.26Z" stroke="#FFFFFF" stroke-opacity="1.000000" stroke-width="1.333333" stroke-linejoin="round"/>
		<path id="path368" d="M158.3 190.93L157.97 184.26L167.64 184.26L168.31 190.93L158.3 190.93Z" fill="#1A2E35" fill-opacity="1.000000" fill-rule="nonzero"/>
		<path id="path372" d="M157.97 184.26L167.64 184.26L168.31 190.93L158.3 190.93L157.97 184.26Z" stroke="#FFFFFF" stroke-opacity="1.000000" stroke-width="1.333333" stroke-linejoin="round"/>
		<path id="path376" d="M128.3 190.93L127.57 198.08L117.21 198.08L118.29 190.93L128.3 190.93Z" fill="#1A2E35" fill-opacity="1.000000" fill-rule="nonzero"/>
		<path id="path380" d="M127.57 198.08L117.21 198.08L118.29 190.93L128.3 190.93L127.57 198.08Z" stroke="#FFFFFF" stroke-opacity="1.000000" stroke-width="1.333333" stroke-linejoin="round"/>
		<path id="path384" d="M118.29 190.93L117.21 198.08L106.85 198.08L108.29 190.93L118.29 190.93Z" fill="#1A2E35" fill-opacity="1.000000" fill-rule="nonzero"/>
		<path id="path388" d="M117.21 198.08L106.85 198.08L108.29 190.93L118.29 190.93L117.21 198.08Z" stroke="#FFFFFF" stroke-opacity="1.000000" stroke-width="1.333333" stroke-linejoin="round"/>
		<path id="path392" d="M208.32 190.93L210.46 198.08L200.1 198.08L198.31 190.93L208.32 190.93Z" fill="#1A2E35" fill-opacity="1.000000" fill-rule="nonzero"/>
		<path id="path396" d="M210.46 198.08L200.1 198.08L198.31 190.93L208.32 190.93L210.46 198.08Z" stroke="#FFFFFF" stroke-opacity="1.000000" stroke-width="1.333333" stroke-linejoin="round"/>
		<path id="path400" d="M108.29 190.93L106.85 198.08L96.49 198.08L98.29 190.93L108.29 190.93Z" fill="#1A2E35" fill-opacity="1.000000" fill-rule="nonzero"/>
		<path id="path404" d="M106.85 198.08L96.49 198.08L98.29 190.93L108.29 190.93L106.85 198.08Z" stroke="#FFFFFF" stroke-opacity="1.000000" stroke-width="1.333333" stroke-linejoin="round"/>
		<path id="path408" d="M148.3 190.93L148.29 198.08L137.93 198.08L138.3 190.93L148.3 190.93Z" fill="#1A2E35" fill-opacity="1.000000" fill-rule="nonzero"/>
		<path id="path412" d="M148.29 198.08L137.93 198.08L138.3 190.93L148.3 190.93L148.29 198.08Z" stroke="#FFFFFF" stroke-opacity="1.000000" stroke-width="1.333333" stroke-linejoin="round"/>
		<path id="path416" d="M98.29 190.93L96.49 198.08L86.13 198.08L88.28 190.93L98.29 190.93Z" fill="#1A2E35" fill-opacity="1.000000" fill-rule="nonzero"/>
		<path id="path420" d="M96.49 198.08L86.13 198.08L88.28 190.93L98.29 190.93L96.49 198.08Z" stroke="#FFFFFF" stroke-opacity="1.000000" stroke-width="1.333333" stroke-linejoin="round"/>
		<path id="path424" d="M138.3 190.93L137.93 198.08L127.57 198.08L128.29 190.93L138.3 190.93Z" fill="#1A2E35" fill-opacity="1.000000" fill-rule="nonzero"/>
		<path id="path428" d="M137.93 198.08L127.57 198.08L128.29 190.93L138.3 190.93L137.93 198.08Z" stroke="#FFFFFF" stroke-opacity="1.000000" stroke-width="1.333333" stroke-linejoin="round"/>
		<path id="path432" d="M188.31 190.93L189.74 198.08L179.38 198.08L178.31 190.93L188.31 190.93Z" fill="#1A2E35" fill-opacity="1.000000" fill-rule="nonzero"/>
		<path id="path436" d="M189.74 198.08L179.38 198.08L178.31 190.93L188.31 190.93L189.74 198.08Z" stroke="#FFFFFF" stroke-opacity="1.000000" stroke-width="1.333333" stroke-linejoin="round"/>
		<path id="path440" d="M198.31 190.93L200.1 198.08L189.74 198.08L188.31 190.93L198.31 190.93Z" fill="#1A2E35" fill-opacity="1.000000" fill-rule="nonzero"/>
		<path id="path444" d="M200.1 198.08L189.74 198.08L188.31 190.93L198.31 190.93L200.1 198.08Z" stroke="#FFFFFF" stroke-opacity="1.000000" stroke-width="1.333333" stroke-linejoin="round"/>
		<path id="path448" d="M158.3 190.93L158.65 198.08L148.29 198.08L148.3 190.93L158.3 190.93Z" fill="#1A2E35" fill-opacity="1.000000" fill-rule="nonzero"/>
		<path id="path452" d="M158.65 198.08L148.29 198.08L148.3 190.93L158.3 190.93L158.65 198.08Z" stroke="#FFFFFF" stroke-opacity="1.000000" stroke-width="1.333333" stroke-linejoin="round"/>
		<path id="path456" d="M168.31 190.93L169.02 198.08L158.65 198.08L158.3 190.93L168.31 190.93Z" fill="#1A2E35" fill-opacity="1.000000" fill-rule="nonzero"/>
		<path id="path460" d="M169.02 198.08L158.65 198.08L158.3 190.93L168.31 190.93L169.02 198.08Z" stroke="#FFFFFF" stroke-opacity="1.000000" stroke-width="1.333333" stroke-linejoin="round"/>
		<path id="path464" d="M178.31 190.93L179.38 198.08L169.02 198.08L168.31 190.93L178.31 190.93Z" fill="#1A2E35" fill-opacity="1.000000" fill-rule="nonzero"/>
		<path id="path468" d="M179.38 198.08L169.02 198.08L168.31 190.93L178.31 190.93L179.38 198.08Z" stroke="#FFFFFF" stroke-opacity="1.000000" stroke-width="1.333333" stroke-linejoin="round"/>
		<path id="path472" d="M98.29 190.93L99.97 184.26L109.63 184.26L108.29 190.93L98.29 190.93Z" fill="#1A2E35" fill-opacity="1.000000" fill-rule="nonzero"/>
		<path id="path476" d="M99.97 184.26L109.63 184.26L108.29 190.93L98.29 190.93L99.97 184.26Z" stroke="#FFFFFF" stroke-opacity="1.000000" stroke-width="1.333333" stroke-linejoin="round"/>
		<path id="path480" d="M213.8 178.02L211.56 171.64L220.6 171.64L223.15 178.02L213.8 178.02Z" fill="#1A2E35" fill-opacity="1.000000" fill-rule="nonzero"/>
		<path id="path484" d="M211.56 171.64L220.6 171.64L223.15 178.02L213.8 178.02L211.56 171.64Z" stroke="#FFFFFF" stroke-opacity="1.000000" stroke-width="1.333333" stroke-linejoin="round"/>
		<path id="path488" d="M223.15 178.02L231.79 178.02L234.58 184.26L225.65 184.26L223.15 178.02Z" fill="#1A2E35" fill-opacity="1.000000" fill-rule="nonzero"/>
		<path id="path492" d="M231.79 178.02L234.58 184.26L225.65 184.26L223.15 178.02L231.79 178.02Z" stroke="#FFFFFF" stroke-opacity="1.000000" stroke-width="1.333333" stroke-linejoin="round"/>
		<path id="path496" d="M220.6 171.64L228.94 171.64L231.79 178.02L223.15 178.02L220.6 171.64Z" fill="#1A2E35" fill-opacity="1.000000" fill-rule="nonzero"/>
		<path id="path500" d="M228.94 171.64L231.79 178.02L223.15 178.02L220.6 171.64L228.94 171.64Z" stroke="#FFFFFF" stroke-opacity="1.000000" stroke-width="1.333333" stroke-linejoin="round"/>
		<path id="path504" d="M225.65 184.26L234.58 184.26L237.55 190.93L228.32 190.93L225.65 184.26Z" fill="#1A2E35" fill-opacity="1.000000" fill-rule="nonzero"/>
		<path id="path508" d="M234.58 184.26L237.55 190.93L228.32 190.93L225.65 184.26L234.58 184.26Z" stroke="#FFFFFF" stroke-opacity="1.000000" stroke-width="1.333333" stroke-linejoin="round"/>
		<path id="path512" d="M228.32 190.93L237.55 190.93L240.75 198.08L231.18 198.08L228.32 190.93Z" fill="#1A2E35" fill-opacity="1.000000" fill-rule="nonzero"/>
		<path id="path516" d="M237.55 190.93L240.75 198.08L231.18 198.08L228.32 190.93L237.55 190.93Z" stroke="#FFFFFF" stroke-opacity="1.000000" stroke-width="1.333333" stroke-linejoin="round"/>
		<path id="path520" d="M231.18 198.08L240.74 198.08L244.17 205.76L234.25 205.76L231.18 198.08Z" fill="#1A2E35" fill-opacity="1.000000" fill-rule="nonzero"/>
		<path id="path524" d="M240.74 198.08L244.17 205.76L234.25 205.76L231.18 198.08L240.74 198.08Z" stroke="#FFFFFF" stroke-opacity="1.000000" stroke-width="1.333333" stroke-linejoin="round"/>
		<path id="path528" d="M70.96 184.26L68.28 190.93L59.43 190.93L62.41 184.26L70.96 184.26Z" fill="#1A2E35" fill-opacity="1.000000" fill-rule="nonzero"/>
		<path id="path532" d="M68.28 190.93L59.43 190.93L62.41 184.26L70.96 184.26L68.28 190.93Z" stroke="#FFFFFF" stroke-opacity="1.000000" stroke-width="1.333333" stroke-linejoin="round"/>
		<path id="path536" d="M65.41 198.08L56.24 198.08L59.43 190.93L68.28 190.93L65.41 198.08Z" fill="#1A2E35" fill-opacity="1.000000" fill-rule="nonzero"/>
		<path id="path540" d="M56.24 198.08L59.43 190.93L68.28 190.93L65.41 198.08L56.24 198.08Z" stroke="#FFFFFF" stroke-opacity="1.000000" stroke-width="1.333333" stroke-linejoin="round"/>
		<path id="path544" d="M62.32 205.76L52.81 205.76L56.24 198.08L65.41 198.08L62.32 205.76Z" fill="#1A2E35" fill-opacity="1.000000" fill-rule="nonzero"/>
		<path id="path548" d="M52.81 205.76L56.24 198.08L65.41 198.08L62.32 205.76L52.81 205.76Z" stroke="#FFFFFF" stroke-opacity="1.000000" stroke-width="1.333333" stroke-linejoin="round"/>
		<path id="path552" d="M138.96 178.02L139.28 171.64L148.32 171.64L148.31 178.02L138.96 178.02Z" fill="#1A2E35" fill-opacity="1.000000" fill-rule="nonzero"/>
		<path id="path556" d="M139.28 171.64L148.32 171.64L148.31 178.02L138.96 178.02L139.28 171.64Z" stroke="#FFFFFF" stroke-opacity="1.000000" stroke-width="1.333333" stroke-linejoin="round"/>
		<path id="path560" d="M70.96 184.26L62.41 184.26L65.2 178.02L73.47 178.02L70.96 184.26Z" fill="#1A2E35" fill-opacity="1.000000" fill-rule="nonzero"/>
		<path id="path564" d="M62.41 184.26L65.2 178.02L73.47 178.02L70.96 184.26L62.41 184.26Z" stroke="#FFFFFF" stroke-opacity="1.000000" stroke-width="1.333333" stroke-linejoin="round"/>
		<path id="path568" d="M75.77 198.08L65.41 198.08L68.28 190.93L78.28 190.93L75.77 198.08Z" fill="#1A2E35" fill-opacity="1.000000" fill-rule="nonzero"/>
		<path id="path572" d="M65.41 198.08L68.28 190.93L78.28 190.93L75.77 198.08L65.41 198.08Z" stroke="#FFFFFF" stroke-opacity="1.000000" stroke-width="1.333333" stroke-linejoin="round"/>
		<path id="path576" d="M204.44 178.02L202.53 171.64L211.56 171.64L213.8 178.02L204.44 178.02Z" fill="#1A2E35" fill-opacity="1.000000" fill-rule="nonzero"/>
		<path id="path580" d="M202.53 171.64L211.56 171.64L213.8 178.02L204.44 178.02L202.53 171.64Z" stroke="#FFFFFF" stroke-opacity="1.000000" stroke-width="1.333333" stroke-linejoin="round"/>
		<path id="path584" d="M82.83 178.02L80.63 184.26L70.96 184.26L73.47 178.02L82.83 178.02Z" fill="#1A2E35" fill-opacity="1.000000" fill-rule="nonzero"/>
		<path id="path588" d="M80.63 184.26L70.96 184.26L73.47 178.02L82.83 178.02L80.63 184.26Z" stroke="#FFFFFF" stroke-opacity="1.000000" stroke-width="1.333333" stroke-linejoin="round"/>
		<path id="path592" d="M65.2 178.02L68.05 171.64L76.04 171.64L73.47 178.02L65.2 178.02Z" fill="#1A2E35" fill-opacity="1.000000" fill-rule="nonzero"/>
		<path id="path596" d="M68.05 171.64L76.04 171.64L73.47 178.02L65.2 178.02L68.05 171.64Z" stroke="#FFFFFF" stroke-opacity="1.000000" stroke-width="1.333333" stroke-linejoin="round"/>
		<path id="path600" d="M73.47 178.02L76.04 171.64L85.07 171.64L82.83 178.02L73.47 178.02Z" fill="#1A2E35" fill-opacity="1.000000" fill-rule="nonzero"/>
		<path id="path604" d="M76.04 171.64L85.07 171.64L82.83 178.02L73.47 178.02L76.04 171.64Z" stroke="#FFFFFF" stroke-opacity="1.000000" stroke-width="1.333333" stroke-linejoin="round"/>
		<path id="path608" d="M106.85 198.08L105.3 205.76L94.55 205.76L96.49 198.08L106.85 198.08Z" fill="#1A2E35" fill-opacity="1.000000" fill-rule="nonzero"/>
		<path id="path612" d="M105.3 205.76L94.55 205.76L96.49 198.08L106.85 198.08L105.3 205.76Z" stroke="#FFFFFF" stroke-opacity="1.000000" stroke-width="1.333333" stroke-linejoin="round"/>
		<path id="path616" d="M73.06 205.76L62.32 205.76L65.41 198.08L75.77 198.08L73.06 205.76Z" fill="#1A2E35" fill-opacity="1.000000" fill-rule="nonzero"/>
		<path id="path620" d="M62.32 205.76L65.41 198.08L75.77 198.08L73.06 205.76L62.32 205.76Z" stroke="#FFFFFF" stroke-opacity="1.000000" stroke-width="1.333333" stroke-linejoin="round"/>
		<path id="path624" d="M82.83 178.02L85.07 171.64L94.11 171.64L92.18 178.02L82.83 178.02Z" fill="#1A2E35" fill-opacity="1.000000" fill-rule="nonzero"/>
		<path id="path628" d="M85.07 171.64L94.11 171.64L92.18 178.02L82.83 178.02L85.07 171.64Z" stroke="#FFFFFF" stroke-opacity="1.000000" stroke-width="1.333333" stroke-linejoin="round"/>
		<path id="path632" d="M86.13 198.08L83.81 205.76L73.06 205.76L75.77 198.08L86.13 198.08Z" fill="#1A2E35" fill-opacity="1.000000" fill-rule="nonzero"/>
		<path id="path636" d="M83.81 205.76L73.06 205.76L75.77 198.08L86.13 198.08L83.81 205.76Z" stroke="#FFFFFF" stroke-opacity="1.000000" stroke-width="1.333333" stroke-linejoin="round"/>
		<path id="path640" d="M96.49 198.08L94.55 205.76L83.81 205.76L86.13 198.08L96.49 198.08Z" fill="#1A2E35" fill-opacity="1.000000" fill-rule="nonzero"/>
		<path id="path644" d="M94.55 205.76L83.81 205.76L86.13 198.08L96.49 198.08L94.55 205.76Z" stroke="#FFFFFF" stroke-opacity="1.000000" stroke-width="1.333333" stroke-linejoin="round"/>
		<path id="path648" d="M78.28 190.93L68.28 190.93L70.96 184.26L80.63 184.26L78.28 190.93Z" fill="#1A2E35" fill-opacity="1.000000" fill-rule="nonzero"/>
		<path id="path652" d="M68.28 190.93L70.96 184.26L80.63 184.26L78.28 190.93L68.28 190.93Z" stroke="#FFFFFF" stroke-opacity="1.000000" stroke-width="1.333333" stroke-linejoin="round"/>
		<path id="path656" d="M167.02 178.02L166.39 171.64L175.42 171.64L176.38 178.02L167.02 178.02Z" fill="#1A2E35" fill-opacity="1.000000" fill-rule="nonzero"/>
		<path id="path660" d="M166.39 171.64L175.42 171.64L176.38 178.02L167.02 178.02L166.39 171.64Z" stroke="#FFFFFF" stroke-opacity="1.000000" stroke-width="1.333333" stroke-linejoin="round"/>
		<path id="path664" d="M92.18 178.02L94.11 171.64L103.14 171.64L101.54 178.02L92.18 178.02Z" fill="#1A2E35" fill-opacity="1.000000" fill-rule="nonzero"/>
		<path id="path668" d="M94.11 171.64L103.14 171.64L101.54 178.02L92.18 178.02L94.11 171.64Z" stroke="#FFFFFF" stroke-opacity="1.000000" stroke-width="1.333333" stroke-linejoin="round"/>
		<path id="path672" d="M176.38 178.02L175.42 171.64L184.46 171.64L185.73 178.02L176.38 178.02Z" fill="#1A2E35" fill-opacity="1.000000" fill-rule="nonzero"/>
		<path id="path676" d="M175.42 171.64L184.46 171.64L185.73 178.02L176.38 178.02L175.42 171.64Z" stroke="#FFFFFF" stroke-opacity="1.000000" stroke-width="1.333333" stroke-linejoin="round"/>
		<path id="path680" d="M148.31 178.02L148.32 171.64L157.35 171.64L157.67 178.02L148.31 178.02Z" fill="#1A2E35" fill-opacity="1.000000" fill-rule="nonzero"/>
		<path id="path684" d="M148.32 171.64L157.35 171.64L157.67 178.02L148.31 178.02L148.32 171.64Z" stroke="#FFFFFF" stroke-opacity="1.000000" stroke-width="1.333333" stroke-linejoin="round"/>
		<path id="path688" d="M185.73 178.02L184.46 171.64L193.49 171.64L195.09 178.02L185.73 178.02Z" fill="#1A2E35" fill-opacity="1.000000" fill-rule="nonzero"/>
		<path id="path692" d="M184.46 171.64L193.49 171.64L195.09 178.02L185.73 178.02L184.46 171.64Z" stroke="#FFFFFF" stroke-opacity="1.000000" stroke-width="1.333333" stroke-linejoin="round"/>
		<path id="path696" d="M195.09 178.02L193.49 171.64L202.53 171.64L204.44 178.02L195.09 178.02Z" fill="#1A2E35" fill-opacity="1.000000" fill-rule="nonzero"/>
		<path id="path700" d="M193.49 171.64L202.53 171.64L204.44 178.02L195.09 178.02L193.49 171.64Z" stroke="#FFFFFF" stroke-opacity="1.000000" stroke-width="1.333333" stroke-linejoin="round"/>
		<path id="path704" d="M157.67 178.02L157.35 171.64L166.39 171.64L167.02 178.02L157.67 178.02Z" fill="#1A2E35" fill-opacity="1.000000" fill-rule="nonzero"/>
		<path id="path708" d="M157.35 171.64L166.39 171.64L167.02 178.02L157.67 178.02L157.35 171.64Z" stroke="#FFFFFF" stroke-opacity="1.000000" stroke-width="1.333333" stroke-linejoin="round"/>
		<path id="path712" d="M101.54 178.02L103.14 171.64L112.18 171.64L110.89 178.02L101.54 178.02Z" fill="#1A2E35" fill-opacity="1.000000" fill-rule="nonzero"/>
		<path id="path716" d="M103.14 171.64L112.18 171.64L110.89 178.02L101.54 178.02L103.14 171.64Z" stroke="#FFFFFF" stroke-opacity="1.000000" stroke-width="1.333333" stroke-linejoin="round"/>
		<path id="path720" d="M110.89 178.02L112.18 171.64L121.21 171.64L120.25 178.02L110.89 178.02Z" fill="#1A2E35" fill-opacity="1.000000" fill-rule="nonzero"/>
		<path id="path724" d="M112.18 171.64L121.21 171.64L120.25 178.02L110.89 178.02L112.18 171.64Z" stroke="#FFFFFF" stroke-opacity="1.000000" stroke-width="1.333333" stroke-linejoin="round"/>
		<path id="path728" d="M129.6 178.02L130.25 171.64L139.28 171.64L138.96 178.02L129.6 178.02Z" fill="#1A2E35" fill-opacity="1.000000" fill-rule="nonzero"/>
		<path id="path732" d="M130.25 171.64L139.28 171.64L138.96 178.02L129.6 178.02L130.25 171.64Z" stroke="#FFFFFF" stroke-opacity="1.000000" stroke-width="1.333333" stroke-linejoin="round"/>
		<path id="path736" d="M106.85 198.08L117.21 198.08L127.57 198.08L137.93 198.08L148.29 198.08L158.65 198.08L169.02 198.08L179.38 198.08L189.74 198.08L200.1 198.08L210.46 198.08L212.76 205.76L202.02 205.76L191.27 205.76L180.52 205.76L169.78 205.76L159.03 205.76L148.28 205.76L137.54 205.76L126.79 205.76L116.05 205.76L105.3 205.76L106.85 198.08Z" fill="#1A2E35" fill-opacity="1.000000" fill-rule="nonzero"/>
		<path id="path740" d="M117.21 198.08L127.57 198.08L137.93 198.08L148.29 198.08L158.65 198.08L169.02 198.08L179.38 198.08L189.74 198.08L200.1 198.08L210.46 198.08L212.76 205.76L202.02 205.76L191.27 205.76L180.52 205.76L169.78 205.76L159.03 205.76L148.28 205.76L137.54 205.76L126.79 205.76L116.05 205.76L105.3 205.76L106.85 198.08L117.21 198.08Z" stroke="#FFFFFF" stroke-opacity="1.000000" stroke-width="1.333333" stroke-linejoin="round"/>
		<path id="path744" d="M120.25 178.02L121.21 171.64L130.25 171.64L129.6 178.02L120.25 178.02Z" fill="#1A2E35" fill-opacity="1.000000" fill-rule="nonzero"/>
		<path id="path748" d="M121.21 171.64L130.25 171.64L129.6 178.02L120.25 178.02L121.21 171.64Z" stroke="#FFFFFF" stroke-opacity="1.000000" stroke-width="1.333333" stroke-linejoin="round"/>
		<path id="path750" d="M35.4 222.37L265.67 222.37L265.67 219.25L35.4 219.25L35.4 222.37Z" fill="#1A2E35" fill-opacity="1.000000" fill-rule="nonzero"/>
		<path id="path750" d="M265.67 222.37L265.67 219.25L35.4 219.25L35.4 222.37L265.67 222.37Z" stroke="#1A2E35" stroke-opacity="1.000000" stroke-width="1.333333" stroke-linejoin="round"/>
		<path id="path754" d="M218.36 69.11L208.33 69.11" stroke="#1A2E35" stroke-opacity="1.000000" stroke-width="4.000000" stroke-linejoin="round" stroke-linecap="round"/>
		<path id="path758" d="M218.36 74.03L180.67 74.03" stroke="#FFFFFF" stroke-opacity="1.000000" stroke-width="4.000000" stroke-linejoin="round" stroke-linecap="round"/>
		<path id="path762" d="M160.07 74.03L122.38 74.03" stroke="#FFFFFF" stroke-opacity="1.000000" stroke-width="4.000000" stroke-linejoin="round" stroke-linecap="round"/>
		<path id="path766" d="M178.23 74.03L163.32 74.03" stroke="#1A2E35" stroke-opacity="1.000000" stroke-width="4.000000" stroke-linejoin="round" stroke-linecap="round"/>
		<path id="path770" d="M218.36 78.94L196.67 78.94" stroke="#1A2E35" stroke-opacity="1.000000" stroke-width="4.000000" stroke-linejoin="round" stroke-linecap="round"/>
		<path id="path774" d="M193.96 78.94L172.27 78.94" stroke="#1A2E35" stroke-opacity="1.000000" stroke-width="4.000000" stroke-linejoin="round" stroke-linecap="round"/>
		<path id="path778" d="M169.56 78.94L147.87 78.94" stroke="#1A2E35" stroke-opacity="1.000000" stroke-width="4.000000" stroke-linejoin="round" stroke-linecap="round"/>
		<path id="path782" d="M145.15 78.94L135.93 78.94" stroke="#1A2E35" stroke-opacity="1.000000" stroke-width="4.000000" stroke-linejoin="round" stroke-linecap="round"/>
		<path id="path786" d="M205.62 69.11L195.59 69.11" stroke="#1A2E35" stroke-opacity="1.000000" stroke-width="4.000000" stroke-linejoin="round" stroke-linecap="round"/>
		<path id="path790" d="M145.97 69.11L135.93 69.11" stroke="#1A2E35" stroke-opacity="1.000000" stroke-width="4.000000" stroke-linejoin="round" stroke-linecap="round"/>
		<path id="path794" d="M159.25 69.11L149.22 69.11" stroke="#FFFFFF" stroke-opacity="1.000000" stroke-width="4.000000" stroke-linejoin="round" stroke-linecap="round"/>
		<path id="path798" d="M192.87 69.11L163.59 69.11" stroke="#1A2E35" stroke-opacity="1.000000" stroke-width="4.000000" stroke-linejoin="round" stroke-linecap="round"/>
		<path id="path802" d="M218.36 99.13L208.33 99.13" stroke="#1A2E35" stroke-opacity="1.000000" stroke-width="4.000000" stroke-linejoin="round" stroke-linecap="round"/>
		<path id="path806" d="M218.36 104.05L180.67 104.05" stroke="#FFFFFF" stroke-opacity="1.000000" stroke-width="4.000000" stroke-linejoin="round" stroke-linecap="round"/>
		<path id="path810" d="M160.07 104.05L122.38 104.05" stroke="#1A2E35" stroke-opacity="1.000000" stroke-width="4.000000" stroke-linejoin="round" stroke-linecap="round"/>
		<path id="path814" d="M178.23 104.05L163.32 104.05" stroke="#1A2E35" stroke-opacity="1.000000" stroke-width="4.000000" stroke-linejoin="round" stroke-linecap="round"/>
		<path id="path818" d="M218.36 108.97L196.67 108.97" stroke="#1A2E35" stroke-opacity="1.000000" stroke-width="4.000000" stroke-linejoin="round" stroke-linecap="round"/>
		<path id="path822" d="M193.96 108.97L172.27 108.97" stroke="#1A2E35" stroke-opacity="1.000000" stroke-width="4.000000" stroke-linejoin="round" stroke-linecap="round"/>
		<path id="path826" d="M169.56 108.97L147.87 108.97" stroke="#FFFFFF" stroke-opacity="1.000000" stroke-width="4.000000" stroke-linejoin="round" stroke-linecap="round"/>
		<path id="path830" d="M145.15 108.97L135.93 108.97" stroke="#1A2E35" stroke-opacity="1.000000" stroke-width="4.000000" stroke-linejoin="round" stroke-linecap="round"/>
		<path id="path834" d="M205.62 99.13L195.59 99.13" stroke="#1A2E35" stroke-opacity="1.000000" stroke-width="4.000000" stroke-linejoin="round" stroke-linecap="round"/>
		<path id="path838" d="M145.97 99.13L135.93 99.13" stroke="#1A2E35" stroke-opacity="1.000000" stroke-width="4.000000" stroke-linejoin="round" stroke-linecap="round"/>
		<path id="path842" d="M159.25 99.13L149.22 99.13" stroke="#FFFFFF" stroke-opacity="1.000000" stroke-width="4.000000" stroke-linejoin="round" stroke-linecap="round"/>
		<path id="path846" d="M192.87 99.13L163.59 99.13" stroke="#1A2E35" stroke-opacity="1.000000" stroke-width="4.000000" stroke-linejoin="round" stroke-linecap="round"/>
		<path id="path850" d="M218.36 143.39L208.33 143.39" stroke="#1A2E35" stroke-opacity="1.000000" stroke-width="4.000000" stroke-linejoin="round" stroke-linecap="round"/>
		<path id="path854" d="M218.36 148.31L180.67 148.31" stroke="#FFFFFF" stroke-opacity="1.000000" stroke-width="4.000000" stroke-linejoin="round" stroke-linecap="round"/>
		<path id="path858" d="M160.07 148.31L122.38 148.31" stroke="#1A2E35" stroke-opacity="1.000000" stroke-width="4.000000" stroke-linejoin="round" stroke-linecap="round"/>
		<path id="path862" d="M178.23 148.31L163.32 148.31" stroke="#1A2E35" stroke-opacity="1.000000" stroke-width="4.000000" stroke-linejoin="round" stroke-linecap="round"/>
		<path id="path866" d="M218.36 153.22L196.67 153.22" stroke="#1A2E35" stroke-opacity="1.000000" stroke-width="4.000000" stroke-linejoin="round" stroke-linecap="round"/>
		<path id="path870" d="M193.96 153.22L172.27 153.22" stroke="#1A2E35" stroke-opacity="1.000000" stroke-width="4.000000" stroke-linejoin="round" stroke-linecap="round"/>
		<path id="path874" d="M169.56 153.22L147.87 153.22" stroke="#FFFFFF" stroke-opacity="1.000000" stroke-width="4.000000" stroke-linejoin="round" stroke-linecap="round"/>
		<path id="path878" d="M145.15 153.22L135.93 153.22" stroke="#1A2E35" stroke-opacity="1.000000" stroke-width="4.000000" stroke-linejoin="round" stroke-linecap="round"/>
		<path id="path882" d="M205.62 143.39L195.59 143.39" stroke="#1A2E35" stroke-opacity="1.000000" stroke-width="4.000000" stroke-linejoin="round" stroke-linecap="round"/>
		<path id="path886" d="M145.97 143.39L135.93 143.39" stroke="#1A2E35" stroke-opacity="1.000000" stroke-width="4.000000" stroke-linejoin="round" stroke-linecap="round"/>
		<path id="path890" d="M159.25 143.39L149.22 143.39" stroke="#FFFFFF" stroke-opacity="1.000000" stroke-width="4.000000" stroke-linejoin="round" stroke-linecap="round"/>
		<path id="path894" d="M192.87 143.39L163.59 143.39" stroke="#1A2E35" stroke-opacity="1.000000" stroke-width="4.000000" stroke-linejoin="round" stroke-linecap="round"/>
		<path id="path898" d="M161.96 84.12L151.93 84.12" stroke="#1A2E35" stroke-opacity="1.000000" stroke-width="4.000000" stroke-linejoin="round" stroke-linecap="round"/>
		<path id="path902" d="M175.25 84.12L165.22 84.12" stroke="#1A2E35" stroke-opacity="1.000000" stroke-width="4.000000" stroke-linejoin="round" stroke-linecap="round"/>
		<path id="path906" d="M208.87 84.12L179.59 84.12" stroke="#1A2E35" stroke-opacity="1.000000" stroke-width="4.000000" stroke-linejoin="round" stroke-linecap="round"/>
		<path id="path910" d="M161.96 92.92L151.93 92.92" stroke="#1A2E35" stroke-opacity="1.000000" stroke-width="4.000000" stroke-linejoin="round" stroke-linecap="round"/>
		<path id="path914" d="M175.25 92.92L165.22 92.92" stroke="#1A2E35" stroke-opacity="1.000000" stroke-width="4.000000" stroke-linejoin="round" stroke-linecap="round"/>
		<path id="path918" d="M208.87 92.92L179.59 92.92" stroke="#FFFFFF" stroke-opacity="1.000000" stroke-width="4.000000" stroke-linejoin="round" stroke-linecap="round"/>
		<path id="path922" d="M208.87 88.52L198.84 88.52" stroke="#1A2E35" stroke-opacity="1.000000" stroke-width="4.000000" stroke-linejoin="round" stroke-linecap="round"/>
		<path id="path926" d="M195.58 88.52L185.55 88.52" stroke="#1A2E35" stroke-opacity="1.000000" stroke-width="4.000000" stroke-linejoin="round" stroke-linecap="round"/>
		<path id="path930" d="M181.21 88.52L151.93 88.52" stroke="#FFFFFF" stroke-opacity="1.000000" stroke-width="4.000000" stroke-linejoin="round" stroke-linecap="round"/>
		<path id="path934" d="M161.96 114.92L151.93 114.92" stroke="#1A2E35" stroke-opacity="1.000000" stroke-width="4.000000" stroke-linejoin="round" stroke-linecap="round"/>
		<path id="path938" d="M175.25 114.92L165.22 114.92" stroke="#1A2E35" stroke-opacity="1.000000" stroke-width="4.000000" stroke-linejoin="round" stroke-linecap="round"/>
		<path id="path942" d="M208.87 114.92L179.59 114.92" stroke="#1A2E35" stroke-opacity="1.000000" stroke-width="4.000000" stroke-linejoin="round" stroke-linecap="round"/>
		<path id="path946" d="M161.96 123.72L151.93 123.72" stroke="#1A2E35" stroke-opacity="1.000000" stroke-width="4.000000" stroke-linejoin="round" stroke-linecap="round"/>
		<path id="path950" d="M175.25 123.72L165.22 123.72" stroke="#1A2E35" stroke-opacity="1.000000" stroke-width="4.000000" stroke-linejoin="round" stroke-linecap="round"/>
		<path id="path954" d="M208.87 123.72L179.59 123.72" stroke="#FFFFFF" stroke-opacity="1.000000" stroke-width="4.000000" stroke-linejoin="round" stroke-linecap="round"/>
		<path id="path958" d="M208.87 119.32L198.84 119.32" stroke="#1A2E35" stroke-opacity="1.000000" stroke-width="4.000000" stroke-linejoin="round" stroke-linecap="round"/>
		<path id="path962" d="M195.58 119.32L185.55 119.32" stroke="#1A2E35" stroke-opacity="1.000000" stroke-width="4.000000" stroke-linejoin="round" stroke-linecap="round"/>
		<path id="path966" d="M181.21 119.32L151.93 119.32" stroke="#FFFFFF" stroke-opacity="1.000000" stroke-width="4.000000" stroke-linejoin="round" stroke-linecap="round"/>
		<path id="path970" d="M208.87 128.89L198.84 128.89" stroke="#1A2E35" stroke-opacity="1.000000" stroke-width="4.000000" stroke-linejoin="round" stroke-linecap="round"/>
		<path id="path974" d="M195.58 128.89L185.55 128.89" stroke="#1A2E35" stroke-opacity="1.000000" stroke-width="4.000000" stroke-linejoin="round" stroke-linecap="round"/>
		<path id="path978" d="M181.21 128.89L151.93 128.89" stroke="#FFFFFF" stroke-opacity="1.000000" stroke-width="4.000000" stroke-linejoin="round" stroke-linecap="round"/>
		<path id="path982" d="M208.87 137.69L198.84 137.69" stroke="#1A2E35" stroke-opacity="1.000000" stroke-width="4.000000" stroke-linejoin="round" stroke-linecap="round"/>
		<path id="path986" d="M195.58 137.69L185.55 137.69" stroke="#1A2E35" stroke-opacity="1.000000" stroke-width="4.000000" stroke-linejoin="round" stroke-linecap="round"/>
		<path id="path990" d="M181.21 137.69L151.93 137.69" stroke="#FFFFFF" stroke-opacity="1.000000" stroke-width="4.000000" stroke-linejoin="round" stroke-linecap="round"/>
		<path id="path994" d="M161.96 133.29L151.93 133.29" stroke="#1A2E35" stroke-opacity="1.000000" stroke-width="4.000000" stroke-linejoin="round" stroke-linecap="round"/>
		<path id="path998" d="M175.25 133.29L165.22 133.29" stroke="#1A2E35" stroke-opacity="1.000000" stroke-width="4.000000" stroke-linejoin="round" stroke-linecap="round"/>
		<path id="path1002" d="M208.87 133.29L179.59 133.29" stroke="#FFFFFF" stroke-opacity="1.000000" stroke-width="4.000000" stroke-linejoin="round" stroke-linecap="round"/>
		<path id="path1004" d="M222.08 70.42L225.28 70.42L225.28 67.4L222.08 67.4L222.08 70.42Z" fill="#1A2E35" fill-opacity="1.000000" fill-rule="nonzero"/>
		<path id="path1006" d="M222.08 75.38L225.28 75.38L225.28 72.36L222.08 72.36L222.08 75.38Z" fill="#1A2E35" fill-opacity="1.000000" fill-rule="nonzero"/>
		<path id="path1008" d="M222.08 80.34L225.28 80.34L225.28 77.32L222.08 77.32L222.08 80.34Z" fill="#1A2E35" fill-opacity="1.000000" fill-rule="nonzero"/>
		<path id="path1010" d="M222.08 85.31L225.28 85.31L225.28 82.29L222.08 82.29L222.08 85.31Z" fill="#1A2E35" fill-opacity="1.000000" fill-rule="nonzero"/>
		<path id="path1012" d="M222.08 90.27L225.28 90.27L225.28 87.25L222.08 87.25L222.08 90.27Z" fill="#1A2E35" fill-opacity="1.000000" fill-rule="nonzero"/>
		<path id="path1014" d="M222.08 95.23L225.28 95.23L225.28 92.21L222.08 92.21L222.08 95.23Z" fill="#1A2E35" fill-opacity="1.000000" fill-rule="nonzero"/>
		<path id="path1016" d="M222.08 100.19L225.28 100.19L225.28 97.17L222.08 97.17L222.08 100.19Z" fill="#1A2E35" fill-opacity="1.000000" fill-rule="nonzero"/>
		<path id="path1018" d="M222.08 105.15L225.28 105.15L225.28 102.13L222.08 102.13L222.08 105.15Z" fill="#1A2E35" fill-opacity="1.000000" fill-rule="nonzero"/>
		<path id="path1020" d="M222.08 110.11L225.28 110.11L225.28 107.09L222.08 107.09L222.08 110.11Z" fill="#1A2E35" fill-opacity="1.000000" fill-rule="nonzero"/>
		<path id="path1022" d="M222.08 115.07L225.28 115.07L225.28 112.05L222.08 112.05L222.08 115.07Z" fill="#1A2E35" fill-opacity="1.000000" fill-rule="nonzero"/>
		<path id="path1024" d="M222.08 120.03L225.28 120.03L225.28 117.01L222.08 117.01L222.08 120.03Z" fill="#1A2E35" fill-opacity="1.000000" fill-rule="nonzero"/>
		<path id="path1026" d="M222.08 124.99L225.28 124.99L225.28 121.97L222.08 121.97L222.08 124.99Z" fill="#1A2E35" fill-opacity="1.000000" fill-rule="nonzero"/>
		<path id="path1028" d="M222.08 129.95L225.28 129.95L225.28 126.93L222.08 126.93L222.08 129.95Z" fill="#1A2E35" fill-opacity="1.000000" fill-rule="nonzero"/>
		<path id="path1030" d="M222.08 134.92L225.28 134.92L225.28 131.89L222.08 131.89L222.08 134.92Z" fill="#1A2E35" fill-opacity="1.000000" fill-rule="nonzero"/>
		<path id="path1032" d="M222.08 139.88L225.28 139.88L225.28 136.86L222.08 136.86L222.08 139.88Z" fill="#1A2E35" fill-opacity="1.000000" fill-rule="nonzero"/>
		<path id="path1034" d="M222.08 144.84L225.28 144.84L225.28 141.82L222.08 141.82L222.08 144.84Z" fill="#1A2E35" fill-opacity="1.000000" fill-rule="nonzero"/>
		<path id="path1036" d="M222.08 149.8L225.28 149.8L225.28 146.78L222.08 146.78L222.08 149.8Z" fill="#1A2E35" fill-opacity="1.000000" fill-rule="nonzero"/>
		<path id="path1038" d="M222.08 154.76L225.28 154.76L225.28 151.74L222.08 151.74L222.08 154.76Z" fill="#1A2E35" fill-opacity="1.000000" fill-rule="nonzero"/>
		<path id="path1050" d="M72.97 13.15C92.19 13.15 107.77 28.02 107.77 46.37C107.77 55.8 103.64 64.31 97.02 70.36L101.97 79.18L89.82 75.42C84.83 78.07 79.09 79.58 72.97 79.58C53.76 79.58 38.18 64.71 38.18 46.37C38.18 28.02 53.76 13.15 72.97 13.15Z" fill="#1A2E35" fill-opacity="1.000000" fill-rule="nonzero"/>
		<path id="path1054" d="M107.77 46.37C107.77 55.8 103.64 64.31 97.02 70.36L101.97 79.18L89.82 75.42C84.83 78.07 79.09 79.58 72.97 79.58C53.76 79.58 38.18 64.71 38.18 46.37C38.18 28.02 53.76 13.15 72.97 13.15C92.19 13.15 107.77 28.02 107.77 46.37Z" stroke="#1A2E35" stroke-opacity="1.000000" stroke-width="1.333333" stroke-linejoin="round"/>
		<path id="path1058" d="M74.63 10.78C93.85 10.78 109.42 25.65 109.42 43.99C109.42 53.43 105.29 61.94 98.67 67.99L103.63 76.81L91.48 73.05C86.49 75.69 80.75 77.21 74.63 77.21C55.41 77.21 39.84 62.34 39.84 43.99C39.84 25.65 55.41 10.78 74.63 10.78Z" fill="#FFFFFF" fill-opacity="1.000000" fill-rule="nonzero"/>
		<path id="path1062" d="M109.42 43.99C109.42 53.43 105.29 61.94 98.67 67.99L103.63 76.81L91.48 73.05C86.49 75.69 80.75 77.21 74.63 77.21C55.41 77.21 39.84 62.34 39.84 43.99C39.84 25.65 55.41 10.78 74.63 10.78C93.85 10.78 109.42 25.65 109.42 43.99Z" stroke="#1A2E35" stroke-opacity="1.000000" stroke-width="1.333333" stroke-linejoin="round"/>
		<path id="path1066" d="M86.28 57.68L99.65 48.67L99.65 43.89L86.28 34.79L86.28 39.61L95.87 46.26L86.28 52.91L86.28 57.68Z" fill="#F15525" fill-opacity="1.000000" fill-rule="nonzero"/>
		<path id="path1070" d="M82.21 59.29L72.02 23.14L67.68 23.14L77.91 59.29L82.21 59.29Z" fill="#F15525" fill-opacity="1.000000" fill-rule="nonzero"/>
		<path id="path1074" d="M63.61 57.68L63.61 52.91L53.98 46.21L63.61 39.61L63.61 34.79L50.19 43.85L50.19 48.62L63.61 57.68Z" fill="#F15525" fill-opacity="1.000000" fill-rule="nonzero"/>
		<path id="path1078" d="M84.62 55.7L97.99 46.69L97.99 41.91L84.62 32.81L84.62 37.63L94.21 44.28L84.62 50.93L84.62 55.7Z" fill="#1A2E35" fill-opacity="1.000000" fill-rule="nonzero"/>
		<path id="path1082" d="M80.56 57.31L70.37 21.17L66.02 21.17L76.26 57.31L80.56 57.31Z" fill="#1A2E35" fill-opacity="1.000000" fill-rule="nonzero"/>
		<path id="path1086" d="M61.95 55.7L61.95 50.93L52.32 44.24L61.95 37.63L61.95 32.81L48.54 41.87L48.54 46.64L61.95 55.7Z" fill="#1A2E35" fill-opacity="1.000000" fill-rule="nonzero"/>
		<path id="path1098" d="M101.08 222.71L80.01 239.31C80.01 239.31 78.77 242.47 75.87 246.03C72.97 249.59 39.01 263.03 39.01 263.03L33.21 264.61L96.58 219.14L101.08 222.71Z" fill="#1A2E35" fill-opacity="1.000000" fill-rule="nonzero"/>
		<path id="path1102" d="M80.01 239.31C80.01 239.31 78.77 242.47 75.87 246.03C72.97 249.59 39.01 263.03 39.01 263.03L33.21 264.61L96.58 219.14L101.08 222.71L80.01 239.31Z" stroke="#1A2E35" stroke-opacity="1.000000" stroke-width="1.333333" stroke-linejoin="round"/>
		<path id="path1106" d="M60.05 209.52C60.05 209.52 65.71 202.93 68.22 198.73C70.73 194.53 74.29 184.74 77.01 178.95C79.73 173.15 83.71 171.36 88.52 169.56C93.34 167.76 95.22 168.16 95.22 169.36C95.22 170.56 93.34 172.75 93.34 172.75L101.5 174.15C101.5 174.15 104.85 172.36 106.94 172.95C109.04 173.55 113.01 177.35 113.01 177.35C113.01 177.35 117.2 175.95 119.71 176.55C122.22 177.15 129.13 180.35 132.06 181.75C134.99 183.15 138.13 183.35 137.92 184.54C137.72 185.74 134.78 187.74 132.06 187.34C129.34 186.94 124.74 185.34 121.81 185.34C118.87 185.34 117.41 185.94 115.94 186.94C114.48 187.94 108.41 196.13 107.57 197.13C106.73 198.13 105.9 202.13 105.9 202.13C105.9 202.13 109.59 200.62 111.89 198.62C114.19 196.63 117.49 191.94 121.26 191.54C125.02 191.14 129.13 194.34 127.04 195.93C124.95 197.53 122.85 198.53 121.39 200.33C119.92 202.13 117.62 207.52 113.64 213.32C109.67 219.11 101.08 222.71 101.08 222.71L83.29 229.7C83.29 229.7 78.68 219.31 70.1 216.51C61.52 213.72 59.01 212.52 59.01 212.52L60.05 209.52Z" fill="#FFFFFF" fill-opacity="1.000000" fill-rule="nonzero"/>
		<path id="path1110" d="M68.22 198.73C70.73 194.53 74.29 184.74 77.01 178.95C79.73 173.15 83.71 171.36 88.52 169.56C93.34 167.76 95.22 168.16 95.22 169.36C95.22 170.56 93.34 172.75 93.34 172.75L101.5 174.15C101.5 174.15 104.85 172.36 106.94 172.95C109.04 173.55 113.01 177.35 113.01 177.35C113.01 177.35 117.2 175.95 119.71 176.55C122.22 177.15 129.13 180.35 132.06 181.75C134.99 183.15 138.13 183.35 137.92 184.54C137.72 185.74 134.78 187.74 132.06 187.34C129.34 186.94 124.74 185.34 121.81 185.34C118.87 185.34 117.41 185.94 115.94 186.94C114.48 187.94 108.41 196.13 107.57 197.13C106.73 198.13 105.9 202.13 105.9 202.13C105.9 202.13 109.59 200.62 111.89 198.62C114.19 196.63 117.49 191.94 121.26 191.54C125.02 191.14 129.13 194.34 127.04 195.93C124.95 197.53 122.85 198.53 121.39 200.33C119.92 202.13 117.62 207.52 113.64 213.32C109.67 219.11 101.08 222.71 101.08 222.71L83.29 229.7C83.29 229.7 78.68 219.31 70.1 216.51C61.52 213.72 59.01 212.52 59.01 212.52L60.05 209.52C60.05 209.52 65.71 202.93 68.22 198.73Z" stroke="#1A2E35" stroke-opacity="1.000000" stroke-width="1.333333" stroke-linejoin="round"/>
		<path id="path1114" d="M137.92 184.54C137.92 184.54 135.88 184.05 135.3 183.86C134.71 183.67 134.02 183.11 134.02 183.11" stroke="#1A2E35" stroke-opacity="1.000000" stroke-width="1.333333" stroke-linejoin="round" stroke-linecap="round"/>
		<path id="path1118" d="M113.01 177.35C113.01 177.35 103.37 182.5 100.65 183.9C99.53 184.47 96.88 185.66 96.06 188.28C95.1 191.37 93.14 193.05 93.14 193.05" stroke="#1A2E35" stroke-opacity="1.000000" stroke-width="1.333333" stroke-linejoin="round" stroke-linecap="round"/>
		<path id="path1122" d="M101.5 174.15C101.5 174.15 92.08 181.15 91.45 181.35C90.83 181.55 88.52 181.75 87.48 183.55C86.43 185.34 85.38 187.34 85.38 187.34" stroke="#1A2E35" stroke-opacity="1.000000" stroke-width="1.333333" stroke-linejoin="round" stroke-linecap="round"/>
		<path id="path1126" d="M93.34 172.76C93.34 172.76 89.99 172.16 88.73 174.55C87.48 176.95 82.03 182.75 82.03 182.75" stroke="#1A2E35" stroke-opacity="1.000000" stroke-width="1.333333" stroke-linejoin="round" stroke-linecap="round"/>
		<path id="path1130" d="M123.27 198.53C123.27 198.53 120.76 197.33 122.02 195.53C123.27 193.74 125.78 193.74 125.78 193.74" stroke="#1A2E35" stroke-opacity="1.000000" stroke-width="1.333333" stroke-linejoin="round" stroke-linecap="round"/>
		<path id="path1134" d="M60.47 206.92C60.47 206.92 71.78 209.72 78.89 217.31C86.01 224.91 86.01 231.3 85.38 232.3C84.75 233.3 71.15 240.29 71.15 240.29C71.15 240.29 62.78 224.91 56.91 221.11C51.05 217.31 46.87 216.31 46.87 216.31C46.87 216.31 57.33 209.92 57.75 209.12C58.17 208.32 59.01 206.32 60.47 206.92Z" fill="#F15525" fill-opacity="1.000000" fill-rule="nonzero"/>
		<path id="path1138" d="M78.89 217.31C86.01 224.91 86.01 231.3 85.38 232.3C84.75 233.3 71.15 240.29 71.15 240.29C71.15 240.29 62.78 224.91 56.91 221.11C51.05 217.31 46.87 216.31 46.87 216.31C46.87 216.31 57.33 209.92 57.75 209.12C58.17 208.32 59.01 206.32 60.47 206.92C60.47 206.92 71.78 209.72 78.89 217.31Z" stroke="#1A2E35" stroke-opacity="1.000000" stroke-width="1.333333" stroke-linejoin="round"/>
		<path id="path1142" d="M28.65 267.07C28.65 267.07 40.17 261.47 42.89 260.07C45.61 258.67 64.24 249.08 64.24 249.08C64.24 249.08 66.54 248.48 67.8 247.88C69.05 247.28 70.94 247.48 71.78 243.29C72.61 239.09 70.52 230.7 61.1 222.31C51.68 213.92 45.82 214.32 45.82 214.32C45.82 214.32 41.84 213.92 40.8 214.72C39.75 215.52 39.54 217.91 38.49 218.31C37.45 218.71 8.48 227 8.48 227L28.65 267.07ZM28.96 267.64L28.95 267.67C28.61 267.83 28.22 267.69 28.05 267.36C27.89 267.02 28.03 266.63 28.36 266.47L28.39 266.48L28.96 267.64ZM8.68 227.62L8.66 227.64C8.31 227.74 7.94 227.54 7.84 227.18C7.74 226.82 7.94 226.46 8.3 226.36L8.32 226.37L8.68 227.62Z" fill="#F15525" fill-opacity="1.000000" fill-rule="nonzero"/>
		<path id="path1142" d="M28.65 267.07C28.65 267.07 40.17 261.47 42.89 260.07C45.61 258.67 64.24 249.08 64.24 249.08C64.24 249.08 66.54 248.48 67.8 247.88C69.05 247.28 70.94 247.48 71.78 243.29C72.61 239.09 70.52 230.7 61.1 222.31C51.68 213.92 45.82 214.32 45.82 214.32C45.82 214.32 41.84 213.92 40.8 214.72C39.75 215.52 39.54 217.91 38.49 218.31C37.45 218.71 8.48 227 8.48 227" stroke="#1A2E35" stroke-opacity="1.000000" stroke-width="1.333333" stroke-linejoin="round" stroke-linecap="round"/>
		<path id="path1146" d="M61.52 236.29C61.52 236.29 62.77 242.29 59.84 247.28" stroke="#1A2E35" stroke-opacity="1.000000" stroke-width="1.333333" stroke-linejoin="round" stroke-linecap="round"/>
		<path id="path1150" d="M58.59 244.09C58.59 244.09 59.84 244.49 56.5 249.68" stroke="#1A2E35" stroke-opacity="1.000000" stroke-width="1.333333" stroke-linejoin="round" stroke-linecap="round"/>
		<path id="path1162" d="M187.58 205.07C187.58 205.07 201.38 220.73 205.52 223.89C209.66 227.05 213.39 229.03 213.39 229.03L228.3 243.26C228.3 243.26 227.89 245.24 232.03 247.61C236.17 249.98 244.46 252.75 246.53 253.54C248.6 254.33 271.38 264.22 271.38 264.22L187.58 205.07Z" fill="#1A2E35" fill-opacity="1.000000" fill-rule="nonzero"/>
		<path id="path1166" d="M205.52 223.89C209.66 227.05 213.39 229.03 213.39 229.03L228.3 243.26C228.3 243.26 227.89 245.24 232.03 247.61C236.17 249.98 244.46 252.75 246.53 253.54C248.6 254.33 271.38 264.22 271.38 264.22L187.58 205.07C187.58 205.07 201.38 220.73 205.52 223.89Z" stroke="#1A2E35" stroke-opacity="1.000000" stroke-width="1.333333" stroke-linejoin="round"/>
		<path id="path1170" d="M189.9 194.41L187.15 186.38C185.99 187.21 180.91 189.01 180.91 189.01C184.25 189.84 189.9 194.41 189.9 194.41ZM167.56 181.12C169.01 181.54 174.24 181.26 174.24 181.26C174.24 181.26 177.43 178.9 179.02 177.52C180.62 176.14 184.68 167.97 186.71 167.55C188.74 167.14 197.3 171.84 197.3 171.84C197.3 171.84 204.26 168.94 206 169.21C207.74 169.49 213.4 174.34 213.4 174.34C213.4 174.34 221.23 173.23 222.68 175.44C224.14 177.66 226.46 184.72 228.78 189.15C231.1 193.58 239.51 205.35 239.51 205.35L240.67 206.87C240.67 206.87 238.93 207.43 233.56 210.06C228.2 212.69 219.64 225.15 219.64 225.15C219.64 225.15 207.74 219.89 201.07 216.98C194.4 214.07 189.03 207.71 187.58 205.07C186.13 202.44 183.67 199.95 180.62 197.6C177.57 195.24 171.92 194.27 170.61 192.61C169.3 190.95 171.48 188.46 171.48 188.46C171.48 188.46 169.89 187.63 169.16 187.07C168.43 186.52 165.53 185 165.24 183.34C164.95 181.67 166.11 180.7 167.56 181.12Z" fill="#FFFFFF" fill-opacity="1.000000" fill-rule="nonzero"/>
		<path id="path1174" d="M187.15 186.38C185.99 187.21 180.91 189.01 180.91 189.01C184.25 189.84 189.9 194.41 189.9 194.41L187.15 186.38ZM174.24 181.26C174.24 181.26 177.43 178.9 179.02 177.52C180.62 176.14 184.68 167.97 186.71 167.55C188.74 167.14 197.3 171.84 197.3 171.84C197.3 171.84 204.26 168.94 206 169.21C207.74 169.49 213.4 174.34 213.4 174.34C213.4 174.34 221.23 173.23 222.68 175.44C224.14 177.66 226.46 184.72 228.78 189.15C231.1 193.58 239.51 205.35 239.51 205.35L240.67 206.87C240.67 206.87 238.93 207.43 233.56 210.06C228.2 212.69 219.64 225.15 219.64 225.15C219.64 225.15 207.74 219.89 201.07 216.98C194.4 214.07 189.03 207.71 187.58 205.07C186.13 202.44 183.67 199.95 180.62 197.6C177.57 195.24 171.92 194.27 170.61 192.61C169.3 190.95 171.48 188.46 171.48 188.46C171.48 188.46 169.89 187.63 169.16 187.07C168.43 186.52 165.53 185 165.24 183.34C164.95 181.67 166.11 180.7 167.56 181.12C169.01 181.54 174.24 181.26 174.24 181.26Z" stroke="#1A2E35" stroke-opacity="1.000000" stroke-width="1.333333" stroke-linejoin="round"/>
		<path id="path1178" d="M218.91 183.47C218.91 183.47 219.35 181.12 219.06 180.29C218.77 179.46 213.4 174.34 213.4 174.34" stroke="#1A2E35" stroke-opacity="1.000000" stroke-width="1.333333" stroke-linejoin="round" stroke-linecap="round"/>
		<path id="path1182" d="M214.27 186.24L213.11 182.64L197.3 171.84" stroke="#1A2E35" stroke-opacity="1.000000" stroke-width="1.333333" stroke-linejoin="round" stroke-linecap="round"/>
		<path id="path1186" d="M206.44 188.87C206.44 188.87 205.86 185.41 205.13 184.86C204.41 184.31 198.9 183.06 198.9 183.06C198.9 183.06 190.48 176.14 189.03 176.14C187.58 176.14 176.99 181.54 174.24 181.26" stroke="#1A2E35" stroke-opacity="1.000000" stroke-width="1.333333" stroke-linejoin="round" stroke-linecap="round"/>
		<path id="path1190" d="M169.59 181.81C169.59 181.81 171.48 181.82 170.47 182.93C169.45 184.03 167.28 183.48 166.26 183.2" stroke="#1A2E35" stroke-opacity="1.000000" stroke-width="1.333333" stroke-linejoin="round" stroke-linecap="round"/>
		<path id="path1194" d="M180.91 189.01C180.91 189.01 175.69 186.1 171.48 188.46" stroke="#1A2E35" stroke-opacity="1.000000" stroke-width="1.333333" stroke-linejoin="round" stroke-linecap="round"/>
		<path id="path1198" d="M172.79 189.29L175.69 190.26C175.69 190.26 174.53 192.47 174.38 193.3L174.24 194.14" stroke="#1A2E35" stroke-opacity="1.000000" stroke-width="1.333333" stroke-linejoin="round" stroke-linecap="round"/>
		<path id="path1202" d="M192.51 199.95L189.9 199.95" stroke="#1A2E35" stroke-opacity="1.000000" stroke-width="1.333333" stroke-linejoin="round" stroke-linecap="round"/>
		<path id="path1206" d="M258.81 215.87C258.81 215.87 249.67 210.2 246.33 207.84C242.99 205.49 241.25 205.9 239.51 205.35C237.77 204.8 229.07 207.29 223.27 214.21C217.46 221.14 218.04 226.26 218.77 227.64C219.49 229.03 237.77 239.55 237.77 239.55C237.77 239.55 240.38 229.58 248.07 223.63C255.76 217.67 258.81 215.87 258.81 215.87Z" fill="#F15525" fill-opacity="1.000000" fill-rule="nonzero"/>
		<path id="path1210" d="M246.33 207.84C242.99 205.49 241.25 205.9 239.51 205.35C237.77 204.8 229.07 207.29 223.27 214.21C217.46 221.14 218.04 226.26 218.77 227.64C219.49 229.03 237.77 239.55 237.77 239.55C237.77 239.55 240.38 229.58 248.07 223.63C255.76 217.67 258.81 215.87 258.81 215.87C258.81 215.87 249.67 210.2 246.33 207.84Z" stroke="#1A2E35" stroke-opacity="1.000000" stroke-width="1.333333" stroke-linejoin="round"/>
		<path id="path1214" d="M295.36 232.44C295.36 232.44 278.43 222.56 275.61 220.94C272.79 219.32 269.52 217.11 269.52 217.11C269.52 217.11 268.63 212.84 264.32 212.69C260.01 212.54 255.86 214.16 250.21 217.11C244.57 220.06 237.59 230.82 236.85 235.09C236.11 239.37 234.62 240.69 235.81 243.49C237 246.29 241.45 246.44 242.34 246.44C243.23 246.44 245.31 248.21 245.31 248.21L277.09 267.96L295.36 232.44ZM295.67 231.87L295.69 231.86C296.02 232.05 296.12 232.45 295.93 232.78C295.75 233.1 295.35 233.2 295.02 233.02L295.02 232.99L295.67 231.87ZM277.42 267.4L277.44 267.39C277.76 267.59 277.86 267.99 277.66 268.31C277.46 268.63 277.06 268.72 276.74 268.53L276.73 268.5L277.42 267.4Z" fill="#F15525" fill-opacity="1.000000" fill-rule="nonzero"/>
		<path id="path1214" d="M295.36 232.44C295.36 232.44 278.43 222.56 275.61 220.94C272.79 219.32 269.52 217.11 269.52 217.11C269.52 217.11 268.63 212.84 264.32 212.69C260.01 212.54 255.86 214.16 250.21 217.11C244.57 220.06 237.59 230.82 236.85 235.09C236.11 239.37 234.62 240.69 235.81 243.49C237 246.29 241.45 246.44 242.34 246.44C243.23 246.44 245.31 248.21 245.31 248.21L277.09 267.96" stroke="#1A2E35" stroke-opacity="1.000000" stroke-width="1.333333" stroke-linejoin="round" stroke-linecap="round"/>
		<path id="path1218" d="M242.83 238.94C242.83 238.94 241.5 239.88 244.16 243.83" stroke="#1A2E35" stroke-opacity="1.000000" stroke-width="1.333333" stroke-linejoin="round" stroke-linecap="round"/>
		<path id="path1222" d="M244.73 240.82C244.73 240.82 244.92 244.96 248.9 248.73" stroke="#1A2E35" stroke-opacity="1.000000" stroke-width="1.333333" stroke-linejoin="round" stroke-linecap="round"/>
	</g>
</svg>
