<svg width="35.000000" height="35.000000" viewBox="0 0 35 35" fill="none" xmlns="http://www.w3.org/2000/svg" xmlns:xlink="http://www.w3.org/1999/xlink">
	<desc>
			Created with Pixso.
	</desc>
	<defs>
		<clipPath id="clip44_24">
			<rect id="Group 77" width="35.000000" height="35.000000" fill="white" fill-opacity="0"/>
		</clipPath>
	</defs>
	<rect id="Group 77" width="35.000000" height="35.000000" fill="#FFFFFF" fill-opacity="0"/>
	<g clip-path="url(#clip44_24)">
		<path id="Vector" d="M34.93 17.46C34.93 27.1 27.12 34.92 17.47 34.92C7.83 34.92 0.01 27.1 0.01 17.46C0.01 7.81 7.83 0 17.47 0C27.12 0 34.93 7.81 34.93 17.46Z" fill="#F15525" fill-opacity="1.000000" fill-rule="nonzero"/>
		<path id="in" d="M8.55 10.65Q8.88 10.83 9.31 10.83Q9.74 10.83 10.07 10.65Q10.26 10.55 10.42 10.39Q10.62 10.19 10.73 9.95Q10.87 9.65 10.87 9.29Q10.87 8.97 10.75 8.7Q10.64 8.45 10.42 8.25Q10.28 8.11 10.12 8.02Q9.77 7.83 9.31 7.83Q8.91 7.83 8.59 7.99Q8.37 8.09 8.2 8.27Q7.96 8.5 7.85 8.78Q7.75 9.04 7.75 9.34Q7.75 9.66 7.87 9.93Q7.98 10.19 8.2 10.4Q8.36 10.55 8.55 10.65ZM24.94 14.09Q23.63 13.16 21.65 13.16Q20.14 13.16 18.95 13.68Q18.03 14.09 17.41 14.77Q17.23 14.97 17.07 15.2L17.07 13.27L14.86 13.27L14.86 26L17.16 26L17.16 19.44Q17.16 17.53 18.11 16.45Q18.17 16.38 18.24 16.32Q18.45 16.1 18.68 15.93Q19.68 15.22 21.19 15.22Q22.63 15.22 23.49 15.93Q23.62 16.03 23.73 16.16Q24.62 17.09 24.62 18.94L24.62 26L26.93 26L26.93 18.68Q26.93 16.11 25.65 14.72Q25.58 14.64 25.5 14.56Q25.23 14.3 24.94 14.09ZM10.46 13.27L8.16 13.27L8.16 26L10.46 26L10.46 13.27Z" fill="#FFFFFF" fill-opacity="1.000000" fill-rule="evenodd"/>
	</g>
</svg>
