<svg width="63.230469" height="57.000000" viewBox="0 0 63.2305 57" fill="none" xmlns="http://www.w3.org/2000/svg" xmlns:xlink="http://www.w3.org/1999/xlink">
	<desc>
			Created with Pixso.
	</desc>
	<defs/>
	<path id="Rectangle 315" d="M0 6C0 2.68 2.68 0 6 0L43.32 0C46.64 0 49.32 2.68 49.32 6L49.32 34.55C49.32 37.87 46.64 40.55 43.32 40.55L19.41 40.55C17.82 40.55 16.25 40.93 14.83 41.67L2.91 47.82C1.58 48.5 0 47.54 0 46.04L0 40.55L0 6Z" fill="#FFFFFF" fill-opacity="1.000000" fill-rule="nonzero"/>
	<path id="Rectangle 315" d="M0 6C0 2.68 2.68 0 6 0L43.32 0C46.64 0 49.32 2.68 49.32 6L49.32 34.55C49.32 37.87 46.64 40.55 43.32 40.55L19.41 40.55C17.82 40.55 16.25 40.93 14.83 41.67L2.91 47.82C1.58 48.5 0 47.54 0 46.04L0 6ZM6 1.5L43.32 1.5Q44.25 1.5 45.05 1.82Q45.84 2.15 46.5 2.81Q47.16 3.47 47.49 4.27Q47.82 5.06 47.82 6L47.82 34.55Q47.82 35.48 47.49 36.28Q47.16 37.08 46.5 37.73Q45.84 38.39 45.05 38.72Q44.25 39.05 43.32 39.05L19.41 39.05Q18.02 39.05 16.7 39.37Q15.38 39.69 14.14 40.33L2.22 46.48Q2.1 46.55 1.98 46.54Q1.85 46.54 1.74 46.47Q1.62 46.39 1.55 46.29Q1.5 46.18 1.5 46.04L1.5 40.55L1.5 6Q1.5 5.06 1.82 4.27Q2.15 3.47 2.81 2.81Q3.47 2.15 4.27 1.82Q5.06 1.5 6 1.5Z" fill="#263238" fill-opacity="1.000000" fill-rule="evenodd"/>
	<path id="Rectangle 318" d="M21.17 43.29Q21.17 45.81 22.95 47.59Q24.72 49.37 27.24 49.37L45.68 49.37Q48.23 49.37 50.42 50.67L59.07 55.83Q60.44 56.65 61.83 55.86Q63.23 55.07 63.23 53.47L63.23 48.62L63.23 19.15Q63.23 16.35 61.25 14.38Q59.27 12.4 56.48 12.4L51.72 12.4L51.72 13.9L56.48 13.9Q58.65 13.9 60.19 15.44Q61.73 16.97 61.73 19.15L61.73 48.62L61.73 53.47Q61.73 54.2 61.09 54.56Q60.46 54.92 59.83 54.55L51.18 49.38Q48.64 47.87 45.68 47.87L27.24 47.87Q25.35 47.87 24.01 46.53Q22.67 45.19 22.67 43.29L21.17 43.29Z" fill="#263238" fill-opacity="1.000000" fill-rule="evenodd"/>
	<rect id="Rectangle 316" x="10.961914" y="13.153809" rx="1.096154" width="28.500000" height="2.192308" fill="#F15525" fill-opacity="1.000000"/>
	<rect id="Rectangle 316" x="10.211914" y="12.403809" rx="1.846154" width="30.000000" height="3.692308" stroke="#263238" stroke-opacity="1.000000" stroke-width="1.500000"/>
	<rect id="Rectangle 317" x="10.961914" y="20.826904" rx="1.096154" width="21.923077" height="2.192308" fill="#F15525" fill-opacity="1.000000"/>
	<rect id="Rectangle 317" x="10.211914" y="20.076904" rx="1.846154" width="23.423077" height="3.692308" stroke="#263238" stroke-opacity="1.000000" stroke-width="1.500000"/>
</svg>
