<svg width="24.000000" height="24.000000" viewBox="0 0 24 24" fill="none" xmlns="http://www.w3.org/2000/svg" xmlns:xlink="http://www.w3.org/1999/xlink">
	<desc>
			Created with Pixso.
	</desc>
	<defs>
		<clipPath id="clip57_2266">
			<rect id="My" width="24.000000" height="24.000000" fill="white" fill-opacity="0"/>
		</clipPath>
	</defs>
	<rect id="My" width="24.000000" height="24.000000" fill="#FFFFFF" fill-opacity="0"/>
	<g clip-path="url(#clip57_2266)">
		<path id="path" d="M12 22C17.52 22 22 17.52 22 12C22 6.47 17.52 2 12 2C6.47 2 2 6.47 2 12C2 17.52 6.47 22 12 22Z" fill="#000000" fill-opacity="0" fill-rule="evenodd"/>
		<path id="path" d="M22 12C22 6.47 17.52 2 12 2C6.47 2 2 6.47 2 12C2 17.52 6.47 22 12 22C17.52 22 22 17.52 22 12Z" stroke="#FFFFFF" stroke-opacity="1.000000" stroke-width="1.500000" stroke-linejoin="round"/>
		<path id="path" d="M12 11.5C13.38 11.5 14.5 10.38 14.5 9C14.5 7.61 13.38 6.5 12 6.5C10.61 6.5 9.5 7.61 9.5 9C9.5 10.38 10.61 11.5 12 11.5Z" fill="#000000" fill-opacity="0" fill-rule="nonzero"/>
		<path id="path" d="M14.5 9C14.5 7.61 13.38 6.5 12 6.5C10.61 6.5 9.5 7.61 9.5 9C9.5 10.38 10.61 11.5 12 11.5C13.38 11.5 14.5 10.38 14.5 9Z" stroke="#FFFFFF" stroke-opacity="1.000000" stroke-width="1.500000" stroke-linejoin="round"/>
		<path id="path" d="M5.74 19.19L5.75 19.21C5.73 19.63 5.38 19.94 4.96 19.91C4.54 19.88 4.23 19.53 4.26 19.11L4.28 19.09L5.74 19.19ZM19.71 19.08L19.73 19.1C19.76 19.52 19.45 19.87 19.03 19.9C18.62 19.93 18.26 19.62 18.24 19.2L18.25 19.18L19.71 19.08Z" fill="#000000" fill-opacity="0" fill-rule="nonzero"/>
		<path id="path" d="M5.01 19.16C5.18 16.56 7.35 14.5 10 14.5L14 14.5C16.64 14.5 18.81 16.55 18.98 19.15" stroke="#FFFFFF" stroke-opacity="1.000000" stroke-width="1.500000" stroke-linejoin="round" stroke-linecap="round"/>
	</g>
</svg>
