<svg width="50.000000" height="50.000000" viewBox="0 0 50 50" fill="none" xmlns="http://www.w3.org/2000/svg" xmlns:xlink="http://www.w3.org/1999/xlink">
	<desc>
			Created with Pixso.
	</desc>
	<defs>
		<clipPath id="clip73_2272">
			<rect id="My" width="50.000000" height="50.000000" fill="white" fill-opacity="0"/>
		</clipPath>
	</defs>
	<rect id="My" width="50.000000" height="50.000000" fill="#FFFFFF" fill-opacity="0"/>
	<g clip-path="url(#clip73_2272)">
		<path id="path" d="M25 45.83C36.5 45.83 45.83 36.5 45.83 25C45.83 13.49 36.5 4.16 25 4.16C13.49 4.16 4.16 13.49 4.16 25C4.16 36.5 13.49 45.83 25 45.83Z" fill="#000000" fill-opacity="0" fill-rule="evenodd"/>
		<path id="path" d="M45.83 25C45.83 13.49 36.5 4.16 25 4.16C13.49 4.16 4.16 13.49 4.16 25C4.16 36.5 13.49 45.83 25 45.83C36.5 45.83 45.83 36.5 45.83 25Z" stroke="#808080" stroke-opacity="1.000000" stroke-width="1.500000" stroke-linejoin="round"/>
		<path id="path" d="M25 23.95C27.87 23.95 30.2 21.62 30.2 18.75C30.2 15.87 27.87 13.54 25 13.54C22.12 13.54 19.79 15.87 19.79 18.75C19.79 21.62 22.12 23.95 25 23.95Z" fill="#000000" fill-opacity="0" fill-rule="nonzero"/>
		<path id="path" d="M30.2 18.75C30.2 15.87 27.87 13.54 25 13.54C22.12 13.54 19.79 15.87 19.79 18.75C19.79 21.62 22.12 23.95 25 23.95C27.87 23.95 30.2 21.62 30.2 18.75Z" stroke="#808080" stroke-opacity="1.000000" stroke-width="1.500000" stroke-linejoin="round"/>
		<path id="path" d="M11.16 39.95L11.18 39.97C11.16 40.39 10.8 40.7 10.38 40.67C9.97 40.64 9.66 40.29 9.69 39.87L9.71 39.86L11.16 39.95ZM40.28 39.83L40.3 39.85C40.33 40.27 40.02 40.62 39.6 40.65C39.19 40.68 38.83 40.37 38.81 39.95L38.82 39.93L40.28 39.83Z" fill="#000000" fill-opacity="0" fill-rule="nonzero"/>
		<path id="path" d="M10.43 39.92C10.79 34.5 15.31 30.2 20.83 30.2L29.16 30.2C34.67 30.2 39.19 34.48 39.55 39.9" stroke="#808080" stroke-opacity="1.000000" stroke-width="1.500000" stroke-linejoin="round" stroke-linecap="round"/>
	</g>
</svg>
