<svg width="50.000000" height="50.000000" viewBox="0 0 50 50" fill="none" xmlns="http://www.w3.org/2000/svg" xmlns:xlink="http://www.w3.org/1999/xlink">
	<desc>
			Created with Pixso.
	</desc>
	<defs>
		<clipPath id="clip73_2461">
			<rect id="Set up" width="50.000000" height="50.000000" fill="white" fill-opacity="0"/>
		</clipPath>
	</defs>
	<g clip-path="url(#clip73_2461)">
		<path id="path" d="M38.21 15.8C39.51 17.67 40.43 19.82 40.84 22.15L45.83 22.15L45.83 27.84L40.84 27.84C40.43 30.17 39.51 32.32 38.21 34.19L41.74 37.72L37.72 41.74L34.19 38.21C32.32 39.51 30.17 40.43 27.84 40.84L27.84 45.83L22.15 45.83L22.15 40.84C19.82 40.43 17.67 39.51 15.8 38.21L12.27 41.74L8.25 37.72L11.78 34.19C10.48 32.32 9.56 30.17 9.15 27.84L4.16 27.84L4.16 22.15L9.15 22.15C9.56 19.82 10.48 17.67 11.78 15.8L8.25 12.27L12.27 8.25L15.8 11.78C17.67 10.48 19.82 9.56 22.15 9.15L22.15 4.16L27.84 4.16L27.84 9.15C30.17 9.56 32.32 10.48 34.19 11.78L37.72 8.25L41.74 12.27L38.21 15.8Z" fill="#000000" fill-opacity="0" fill-rule="nonzero"/>
		<path id="path" d="M40.84 22.15L45.83 22.15L45.83 27.84L40.84 27.84C40.43 30.17 39.51 32.32 38.21 34.19L41.74 37.72L37.72 41.74L34.19 38.21C32.32 39.51 30.17 40.43 27.84 40.84L27.84 45.83L22.15 45.83L22.15 40.84C19.82 40.43 17.67 39.51 15.8 38.21L12.27 41.74L8.25 37.72L11.78 34.19C10.48 32.32 9.56 30.17 9.15 27.84L4.16 27.84L4.16 22.15L9.15 22.15C9.56 19.82 10.48 17.67 11.78 15.8L8.25 12.27L12.27 8.25L15.8 11.78C17.67 10.48 19.82 9.56 22.15 9.15L22.15 4.16L27.84 4.16L27.84 9.15C30.17 9.56 32.32 10.48 34.19 11.78L37.72 8.25L41.74 12.27L38.21 15.8C39.51 17.67 40.43 19.82 40.84 22.15Z" stroke="#808080" stroke-opacity="1.000000" stroke-width="1.500000" stroke-linejoin="round"/>
		<path id="path" d="M25 30.2C27.87 30.2 30.2 27.87 30.2 25C30.2 22.12 27.87 19.79 25 19.79C22.12 19.79 19.79 22.12 19.79 25C19.79 27.87 22.12 30.2 25 30.2Z" fill="#000000" fill-opacity="0" fill-rule="nonzero"/>
		<path id="path" d="M30.2 25C30.2 22.12 27.87 19.79 25 19.79C22.12 19.79 19.79 22.12 19.79 25C19.79 27.87 22.12 30.2 25 30.2C27.87 30.2 30.2 27.87 30.2 25Z" stroke="#808080" stroke-opacity="1.000000" stroke-width="1.500000" stroke-linejoin="round"/>
	</g>
</svg>
