<svg width="58.000000" height="58.000000" viewBox="0 0 58 58" fill="none" xmlns="http://www.w3.org/2000/svg" xmlns:xlink="http://www.w3.org/1999/xlink">
	<desc>
			Created with Pixso.
	</desc>
	<defs>
		<clipPath id="clip23_2">
			<rect id="svg-gobbler 1" rx="-0.500000" width="57.000000" height="57.000000" transform="translate(0.500000 0.500000)" fill="white" fill-opacity="0"/>
		</clipPath>
	</defs>
	<rect id="svg-gobbler 1" rx="-0.500000" width="57.000000" height="57.000000" transform="translate(0.500000 0.500000)" fill="#FFFFFF" fill-opacity="0"/>
	<g clip-path="url(#clip23_2)">
		<path id="Vector" d="M57.1 11.7L57.1 54.47C57.1 55.93 55.92 57.1 54.46 57.1L3.53 57.1C2.07 57.1 0.89 55.93 0.89 54.47L0.89 11.7L57.1 11.7Z" fill="#FFFFFF" fill-opacity="1.000000" fill-rule="nonzero"/>
		<path id="Vector" d="M57.1 3.53L57.1 11.7L0.89 11.7L0.89 3.53C0.89 2.07 2.07 0.89 3.53 0.89L54.46 0.89C55.92 0.89 57.1 2.07 57.1 3.53Z" fill="#F15525" fill-opacity="1.000000" fill-rule="nonzero"/>
		<path id="Vector" d="M8.11 6.29C8.11 7.05 7.49 7.67 6.73 7.67C5.97 7.67 5.35 7.05 5.35 6.29C5.35 5.53 5.97 4.92 6.73 4.92C7.49 4.92 8.11 5.53 8.11 6.29Z" fill="#D7E9FF" fill-opacity="1.000000" fill-rule="nonzero"/>
		<path id="Vector" d="M13.94 6.29C13.94 7.05 13.33 7.67 12.56 7.67C11.8 7.67 11.19 7.05 11.19 6.29C11.19 5.53 11.8 4.92 12.56 4.92C13.33 4.92 13.94 5.53 13.94 6.29Z" fill="#D7E9FF" fill-opacity="1.000000" fill-rule="nonzero"/>
		<path id="Vector" d="M19.77 6.29C19.77 7.05 19.16 7.67 18.39 7.67C17.63 7.67 17.02 7.05 17.02 6.29C17.02 5.53 17.63 4.92 18.39 4.92C19.16 4.92 19.77 5.53 19.77 6.29Z" fill="#D7E9FF" fill-opacity="1.000000" fill-rule="nonzero"/>
		<path id="Vector" d="M52.64 6.29C52.64 7.05 52.01 7.67 51.25 7.67L36.66 7.67C35.9 7.67 35.28 7.05 35.28 6.29C35.28 5.53 35.9 4.92 36.66 4.92L51.25 4.92C52.01 4.92 52.64 5.53 52.64 6.29Z" fill="#D7E9FF" fill-opacity="1.000000" fill-rule="nonzero"/>
		<path id="Vector" d="M54.46 0.29L3.53 0.29C1.75 0.29 0.29 1.75 0.29 3.53L0.29 54.47C0.29 56.25 1.75 57.7 3.53 57.7L54.46 57.7C56.25 57.7 57.7 56.25 57.7 54.47C57.7 48.07 57.7 11.12 57.7 3.53C57.7 1.75 56.25 0.29 54.46 0.29ZM1.49 3.53C1.49 2.4 2.4 1.49 3.53 1.49L54.46 1.49C55.58 1.49 56.5 2.4 56.5 3.53L56.5 11.1L1.49 11.1L1.49 3.53ZM56.5 54.47C56.5 55.59 55.58 56.5 54.46 56.5L3.53 56.5C2.4 56.5 1.49 55.59 1.49 54.47L1.49 12.29L56.5 12.29L56.5 54.47Z" fill="#1A2E35" fill-opacity="1.000000" fill-rule="nonzero"/>
		<path id="Vector" d="M8.09 35.01C9.25 35.01 10.19 35.94 10.19 37.09L10.19 42.3C10.19 44.12 11.66 45.6 13.47 45.6C13.8 45.6 14.07 45.34 14.07 45.01C14.07 44.68 13.8 44.41 13.47 44.41C12.32 44.41 11.39 43.46 11.39 42.3L11.39 37.09C11.39 35.97 10.83 34.99 9.97 34.39C10.81 33.79 11.37 32.81 11.37 31.71L11.37 26.49C11.37 25.33 12.3 24.39 13.45 24.39C13.78 24.39 14.05 24.12 14.05 23.79C14.05 23.46 13.78 23.19 13.45 23.19C11.64 23.19 10.17 24.67 10.17 26.49L10.17 31.71C10.17 32.85 9.23 33.79 8.08 33.81C7.3 33.82 7.31 35.01 8.09 35.01Z" fill="#1A2E35" fill-opacity="1.000000" fill-rule="nonzero"/>
		<path id="Vector" d="M46.6 37.09L46.6 42.3C46.6 43.46 45.67 44.41 44.52 44.41C44.19 44.41 43.92 44.68 43.92 45.01C43.92 45.34 44.19 45.6 44.52 45.6C46.33 45.6 47.8 44.12 47.8 42.3L47.8 37.09C47.8 35.94 48.74 35.01 49.9 35.01C50.68 35.01 50.69 33.82 49.91 33.81C48.76 33.79 47.82 32.85 47.82 31.71L47.82 26.49C47.82 24.67 46.35 23.19 44.54 23.19C44.21 23.19 43.94 23.46 43.94 23.79C43.94 24.12 44.21 24.39 44.54 24.39C45.69 24.39 46.62 25.33 46.62 26.49L46.62 31.71C46.62 32.81 47.18 33.79 48.02 34.39C47.16 34.99 46.6 35.97 46.6 37.09Z" fill="#1A2E35" fill-opacity="1.000000" fill-rule="nonzero"/>
		<path id="Vector" d="M24.98 44.79C25.29 44.91 25.63 44.76 25.75 44.45L33.35 24.78C33.47 24.47 33.32 24.12 33.01 24C32.7 23.88 32.36 24.04 32.24 24.34L24.64 44.02C24.52 44.33 24.67 44.67 24.98 44.79Z" fill="#1A2E35" fill-opacity="1.000000" fill-rule="nonzero"/>
		<path id="Vector" d="M40.99 34.41L34.1 39.07C33.83 39.25 33.75 39.62 33.94 39.9C34.12 40.17 34.5 40.24 34.77 40.06L42.39 34.9C42.75 34.66 42.74 34.15 42.4 33.91L34.77 28.74C34.5 28.55 34.13 28.63 33.94 28.9C33.75 29.17 33.83 29.54 34.1 29.73L40.99 34.41Z" fill="#1A2E35" fill-opacity="1.000000" fill-rule="nonzero"/>
		<path id="Vector" d="M15.59 34.9L23.15 40.05C23.42 40.24 23.79 40.17 23.98 39.9C24.16 39.62 24.09 39.25 23.82 39.07L16.99 34.41L23.82 29.73C24.09 29.54 24.16 29.17 23.98 28.9C23.79 28.62 23.42 28.55 23.15 28.74L15.59 33.91C15.43 34.03 15.33 34.21 15.33 34.41C15.33 34.61 15.43 34.79 15.59 34.9Z" fill="#1A2E35" fill-opacity="1.000000" fill-rule="nonzero"/>
		<path id="Vector" d="M6.73 4.32C5.64 4.32 4.76 5.2 4.76 6.29C4.76 7.38 5.64 8.27 6.73 8.27C7.82 8.27 8.71 7.38 8.71 6.29C8.71 5.2 7.82 4.32 6.73 4.32ZM6.73 7.07C6.3 7.07 5.95 6.72 5.95 6.29C5.95 5.86 6.3 5.52 6.73 5.52C7.16 5.52 7.52 5.86 7.52 6.29C7.52 6.72 7.16 7.07 6.73 7.07Z" fill="#1A2E35" fill-opacity="1.000000" fill-rule="nonzero"/>
		<path id="Vector" d="M12.56 4.32C11.47 4.32 10.59 5.2 10.59 6.29C10.59 7.38 11.47 8.27 12.56 8.27C13.65 8.27 14.54 7.38 14.54 6.29C14.54 5.2 13.65 4.32 12.56 4.32ZM12.56 7.07C12.13 7.07 11.78 6.72 11.78 6.29C11.78 5.86 12.13 5.52 12.56 5.52C13 5.52 13.35 5.86 13.35 6.29C13.35 6.72 13 7.07 12.56 7.07Z" fill="#1A2E35" fill-opacity="1.000000" fill-rule="nonzero"/>
		<path id="Vector" d="M18.39 4.32C17.31 4.32 16.42 5.2 16.42 6.29C16.42 7.38 17.31 8.27 18.39 8.27C19.48 8.27 20.37 7.38 20.37 6.29C20.37 5.2 19.48 4.32 18.39 4.32ZM18.39 7.07C17.96 7.07 17.61 6.72 17.61 6.29C17.61 5.86 17.96 5.52 18.39 5.52C18.83 5.52 19.18 5.86 19.18 6.29C19.18 6.72 18.83 7.07 18.39 7.07Z" fill="#1A2E35" fill-opacity="1.000000" fill-rule="nonzero"/>
		<path id="Vector" d="M51.25 4.32L36.66 4.32C35.57 4.32 34.68 5.21 34.68 6.29C34.68 7.38 35.57 8.27 36.66 8.27L51.25 8.27C52.34 8.27 53.23 7.38 53.23 6.29C53.23 5.21 52.34 4.32 51.25 4.32ZM51.25 7.07L36.66 7.07C36.23 7.07 35.88 6.72 35.88 6.29C35.88 5.86 36.22 5.52 36.66 5.52L51.25 5.52C51.68 5.52 52.04 5.87 52.04 6.29C52.04 6.72 51.68 7.07 51.25 7.07Z" fill="#1A2E35" fill-opacity="1.000000" fill-rule="nonzero"/>
	</g>
</svg>
