<svg width="59.000000" height="59.000000" viewBox="0 0 59 59" fill="none" xmlns="http://www.w3.org/2000/svg" xmlns:xlink="http://www.w3.org/1999/xlink">
	<desc>
			Created with Pixso.
	</desc>
	<defs>
		<clipPath id="clip20_3">
			<rect id="Fund" width="30.000000" height="30.000000" transform="translate(14.000000 14.999756)" fill="white" fill-opacity="0"/>
		</clipPath>
		<clipPath id="clip25_108">
			<rect id="svg-gobbler (5) 1" rx="-0.500000" width="58.000000" height="58.000000" transform="translate(0.500000 0.500000)" fill="white" fill-opacity="0"/>
		</clipPath>
	</defs>
	<rect id="svg-gobbler (5) 1" rx="-0.500000" width="58.000000" height="58.000000" transform="translate(0.500000 0.500000)" fill="#FFFFFF" fill-opacity="0"/>
	<g clip-path="url(#clip25_108)">
		<path id="Vector" d="M49.91 9.07C61.19 20.35 61.19 38.64 49.91 49.92C38.63 61.2 20.35 61.2 9.07 49.92C-2.21 38.64 -2.21 20.35 9.07 9.07C20.35 -2.21 38.63 -2.21 49.91 9.07Z" fill="#F15525" fill-opacity="1.000000" fill-rule="evenodd"/>
		<path id="Vector" d="M52.24 29.5C52.24 42.05 42.05 52.23 29.5 52.23C16.94 52.23 6.76 42.05 6.76 29.5C6.76 16.94 16.94 6.76 29.5 6.76C42.05 6.76 52.24 16.94 52.24 29.5Z" fill="#FFFFFF" fill-opacity="1.000000" fill-rule="evenodd"/>
		<path id="Vector" d="" fill="#1A2E35" fill-opacity="1.000000" fill-rule="nonzero"/>
		<path id="Vector" d="M29.5 6.14C16.62 6.14 6.14 16.62 6.14 29.5C6.14 42.37 16.62 52.85 29.5 52.85C42.37 52.85 52.85 42.37 52.85 29.5C52.85 16.62 42.37 6.14 29.5 6.14ZM29.5 51.62C17.29 51.62 7.37 41.69 7.37 29.5C7.37 17.29 17.29 7.37 29.5 7.37C41.69 7.37 51.62 17.29 51.62 29.5C51.62 41.69 41.69 51.62 29.5 51.62Z" fill="#1A2E35" fill-opacity="1.000000" fill-rule="nonzero"/>
		<g clip-path="url(#clip20_3)">
			<ellipse id="ellipse" cx="22.750000" cy="21.249756" rx="6.250000" ry="3.125000" fill="#000000" fill-opacity="0"/>
			<ellipse id="ellipse" cx="22.750000" cy="21.249756" rx="6.250000" ry="3.125000" stroke="#363636" stroke-opacity="1.000000" stroke-width="1.500000" stroke-linejoin="round"/>
			<path id="path" d="M15.76 21.26L15.75 21.24C15.75 20.82 16.08 20.49 16.5 20.49C16.91 20.49 17.25 20.82 17.25 21.24L17.23 21.26L15.76 21.26ZM28.26 21.26L28.25 21.24C28.25 20.82 28.58 20.49 29 20.49C29.41 20.49 29.75 20.82 29.75 21.24L29.73 21.26L28.26 21.26Z" fill="#000000" fill-opacity="0" fill-rule="nonzero"/>
			<path id="path" d="M16.5 21.24C16.5 21.24 16.5 23.89 16.5 25.62C16.5 27.35 19.29 28.74 22.75 28.74C26.2 28.74 29 27.35 29 25.62C29 24.6 29 21.24 29 21.24" stroke="#363636" stroke-opacity="1.000000" stroke-width="1.500000" stroke-linejoin="round" stroke-linecap="round"/>
			<path id="path" d="M15.76 25.64L15.75 25.62C15.75 25.2 16.08 24.87 16.5 24.87C16.91 24.87 17.25 25.2 17.25 25.62L17.23 25.64L15.76 25.64ZM28.26 25.64L28.25 25.62C28.25 25.2 28.58 24.87 29 24.87C29.41 24.87 29.75 25.2 29.75 25.62L29.73 25.64L28.26 25.64Z" fill="#000000" fill-opacity="0" fill-rule="nonzero"/>
			<path id="path" d="M16.5 25.62C16.5 25.62 16.5 28.27 16.5 29.99C16.5 31.72 19.29 33.12 22.75 33.12C26.2 33.12 29 31.72 29 29.99C29 28.97 29 25.62 29 25.62" stroke="#363636" stroke-opacity="1.000000" stroke-width="1.500000" stroke-linejoin="round" stroke-linecap="round"/>
			<path id="path" d="M15.76 30.01L15.75 29.99C15.75 29.57 16.08 29.24 16.5 29.24C16.91 29.24 17.25 29.57 17.25 29.99L17.23 30.01L15.76 30.01ZM28.26 30.01L28.25 29.99C28.25 29.57 28.58 29.24 29 29.24C29.41 29.24 29.75 29.57 29.75 29.99L29.73 30.01L28.26 30.01Z" fill="#000000" fill-opacity="0" fill-rule="nonzero"/>
			<path id="path" d="M16.5 29.99C16.5 29.99 16.5 32.64 16.5 34.37C16.5 36.1 19.29 37.49 22.75 37.49C26.2 37.49 29 36.1 29 34.37C29 33.35 29 29.99 29 29.99" stroke="#363636" stroke-opacity="1.000000" stroke-width="1.500000" stroke-linejoin="round" stroke-linecap="round"/>
			<path id="path" d="M15.76 34.39L15.75 34.37C15.75 33.95 16.08 33.62 16.5 33.62C16.91 33.62 17.25 33.95 17.25 34.37L17.23 34.39L15.76 34.39ZM28.26 34.39L28.25 34.37C28.25 33.95 28.58 33.62 29 33.62C29.41 33.62 29.75 33.95 29.75 34.37L29.73 34.39L28.26 34.39Z" fill="#000000" fill-opacity="0" fill-rule="nonzero"/>
			<path id="path" d="M16.5 34.37C16.5 34.37 16.5 37.02 16.5 38.74C16.5 40.47 19.29 41.87 22.75 41.87C26.2 41.87 29 40.47 29 38.74C29 37.72 29 34.37 29 34.37" stroke="#363636" stroke-opacity="1.000000" stroke-width="1.500000" stroke-linejoin="round" stroke-linecap="round"/>
			<ellipse id="ellipse" cx="35.250000" cy="29.999756" rx="6.250000" ry="3.125000" fill="#000000" fill-opacity="0"/>
			<ellipse id="ellipse" cx="35.250000" cy="29.999756" rx="6.250000" ry="3.125000" stroke="#363636" stroke-opacity="1.000000" stroke-width="1.500000" stroke-linejoin="round"/>
			<path id="path" d="M28.26 30.01L28.25 29.99C28.25 29.57 28.58 29.24 29 29.24C29.41 29.24 29.75 29.57 29.75 29.99L29.73 30.01L28.26 30.01ZM40.76 30.01L40.75 29.99C40.75 29.57 41.08 29.24 41.5 29.24C41.91 29.24 42.25 29.57 42.25 29.99L42.23 30.01L40.76 30.01Z" fill="#000000" fill-opacity="0" fill-rule="nonzero"/>
			<path id="path" d="M29 29.99C29 29.99 29 32.64 29 34.37C29 36.1 31.79 37.49 35.25 37.49C38.7 37.49 41.5 36.1 41.5 34.37C41.5 33.35 41.5 29.99 41.5 29.99" stroke="#363636" stroke-opacity="1.000000" stroke-width="1.500000" stroke-linejoin="round" stroke-linecap="round"/>
			<path id="path" d="M28.26 34.39L28.25 34.37C28.25 33.95 28.58 33.62 29 33.62C29.41 33.62 29.75 33.95 29.75 34.37L29.73 34.39L28.26 34.39ZM40.76 34.39L40.75 34.37C40.75 33.95 41.08 33.62 41.5 33.62C41.91 33.62 42.25 33.95 42.25 34.37L42.23 34.39L40.76 34.39Z" fill="#000000" fill-opacity="0" fill-rule="nonzero"/>
			<path id="path" d="M29 34.37C29 34.37 29 37.02 29 38.74C29 40.47 31.79 41.87 35.25 41.87C38.7 41.87 41.5 40.47 41.5 38.74C41.5 37.72 41.5 34.37 41.5 34.37" stroke="#363636" stroke-opacity="1.000000" stroke-width="1.500000" stroke-linejoin="round" stroke-linecap="round"/>
		</g>
	</g>
</svg>
