<svg width="61.000000" height="61.000000" viewBox="0 0 61 61" fill="none" xmlns="http://www.w3.org/2000/svg" xmlns:xlink="http://www.w3.org/1999/xlink">
	<desc>
			Created with Pixso.
	</desc>
	<defs>
		<clipPath id="clip38_3150">
			<rect id="svg-gobbler 2" rx="-0.500000" width="60.000000" height="60.000000" transform="translate(0.500000 0.500000)" fill="white" fill-opacity="0"/>
		</clipPath>
	</defs>
	<rect id="svg-gobbler 2" rx="-0.500000" width="60.000000" height="60.000000" transform="translate(0.500000 0.500000)" fill="#FFFFFF" fill-opacity="0"/>
	<g clip-path="url(#clip38_3150)">
		<path id="Vector" d="M60.36 3.17L60.36 11.36L0.63 11.36L0.63 3.17C0.63 1.77 1.77 0.63 3.17 0.63L57.82 0.63C59.22 0.63 60.36 1.77 60.36 3.17Z" fill="#7B7B7B" fill-opacity="1.000000" fill-rule="nonzero"/>
		<path id="Vector" d="M60.36 11.36L60.36 57.82C60.36 59.22 59.22 60.36 57.82 60.36L3.17 60.36C1.77 60.36 0.63 59.22 0.63 57.82L0.63 11.36L60.36 11.36Z" fill="#FFFFFF" fill-opacity="1.000000" fill-rule="nonzero"/>
		<path id="Vector" d="M55.91 28.82L55.91 17.08C55.91 16.38 55.34 15.81 54.64 15.81L6.35 15.81C5.65 15.81 5.08 16.38 5.08 17.08L5.08 28.82C5.08 29.53 5.65 30.1 6.35 30.1L54.64 30.1C55.34 30.1 55.91 29.53 55.91 28.82Z" fill="#F15525" fill-opacity="1.000000" fill-rule="nonzero"/>
		<path id="Vector" d="M28.3 6C28.3 6.83 27.62 7.51 26.79 7.51L5.95 7.51C5.12 7.51 4.44 6.83 4.44 6C4.44 5.16 5.12 4.49 5.95 4.49L26.79 4.49C27.62 4.49 28.3 5.16 28.3 6Z" fill="#FFFFFF" fill-opacity="1.000000" fill-rule="nonzero"/>
		<path id="Vector" d="M56.55 6C56.55 6.85 55.85 7.55 54.99 7.55C54.13 7.55 53.44 6.85 53.44 6C53.44 5.14 54.13 4.44 54.99 4.44C55.85 4.44 56.55 5.14 56.55 6Z" fill="#FFFFFF" fill-opacity="1.000000" fill-rule="evenodd"/>
		<path id="Vector" d="M50.3 6C50.3 6.85 49.61 7.55 48.75 7.55C47.89 7.55 47.2 6.85 47.2 6C47.2 5.14 47.89 4.44 48.75 4.44C49.61 4.44 50.3 5.14 50.3 6Z" fill="#FFFFFF" fill-opacity="1.000000" fill-rule="evenodd"/>
		<path id="Vector" d="M44.06 6C44.06 6.85 43.36 7.55 42.51 7.55C41.65 7.55 40.95 6.85 40.95 6C40.95 5.14 41.65 4.44 42.51 4.44C43.36 4.44 44.06 5.14 44.06 6Z" fill="#FFFFFF" fill-opacity="1.000000" fill-rule="evenodd"/>
		<path id="Vector" d="M37.48 43.97L37.48 35.81C37.48 35.11 36.92 34.54 36.21 34.54L24.78 34.54C24.07 34.54 23.51 35.11 23.51 35.81L23.51 43.97C23.51 44.67 24.07 45.24 24.78 45.24L36.21 45.24C36.92 45.24 37.48 44.67 37.48 43.97Z" fill="#F15525" fill-opacity="1.000000" fill-rule="nonzero"/>
		<path id="Vector" d="M19.06 43.97L19.06 35.81C19.06 35.11 18.49 34.54 17.79 34.54L6.35 34.54C5.65 34.54 5.08 35.11 5.08 35.81L5.08 43.97C5.08 44.67 5.65 45.24 6.35 45.24L17.79 45.24C18.49 45.24 19.06 44.67 19.06 43.97Z" fill="#F15525" fill-opacity="1.000000" fill-rule="nonzero"/>
		<path id="Vector" d="M55.91 43.97L55.91 35.81C55.91 35.11 55.34 34.54 54.64 34.54L43.2 34.54C42.5 34.54 41.93 35.11 41.93 35.81L41.93 43.97C41.93 44.67 42.5 45.24 43.2 45.24L54.64 45.24C55.34 45.24 55.91 44.67 55.91 43.97Z" fill="#F15525" fill-opacity="1.000000" fill-rule="nonzero"/>
		<path id="Vector" d="M60.99 3.17C60.99 1.42 59.57 0 57.82 0L3.17 0C1.42 0 0 1.42 0 3.17L0 57.82C0 59.57 1.42 61 3.17 61L57.82 61C59.57 61 60.99 59.57 60.99 57.82C61 57.22 60.99 10.17 60.99 3.17ZM1.27 3.17C1.27 2.12 2.12 1.27 3.17 1.27L57.82 1.27C58.87 1.27 59.72 2.12 59.72 3.17L59.72 10.73L1.27 10.73L1.27 3.17ZM57.82 59.72L3.17 59.72C2.12 59.72 1.27 58.87 1.27 57.82L1.27 12L59.72 12L59.72 57.82C59.72 58.87 58.87 59.72 57.82 59.72Z" fill="#1A2E35" fill-opacity="1.000000" fill-rule="nonzero"/>
		<path id="Vector" d="M54.64 15.18L6.35 15.18C5.3 15.18 4.44 16.03 4.44 17.08L4.44 28.82C4.44 29.88 5.3 30.73 6.35 30.73L54.64 30.73C55.69 30.73 56.55 29.88 56.55 28.82L56.55 17.08C56.55 16.03 55.69 15.18 54.64 15.18ZM55.28 28.82C55.28 29.18 54.99 29.46 54.64 29.46L6.35 29.46C6 29.46 5.71 29.18 5.71 28.82L5.71 17.08C5.71 16.73 6 16.45 6.35 16.45L54.64 16.45C54.99 16.45 55.28 16.73 55.28 17.08L55.28 28.82Z" fill="#1A2E35" fill-opacity="1.000000" fill-rule="nonzero"/>
		<path id="Vector" d="M26.79 3.85L5.95 3.85C4.77 3.85 3.81 4.81 3.81 6C3.81 7.18 4.77 8.14 5.95 8.14L26.79 8.14C27.97 8.14 28.93 7.18 28.93 6C28.93 4.81 27.97 3.85 26.79 3.85ZM26.79 6.87L5.95 6.87C5.47 6.87 5.08 6.48 5.08 6C5.08 5.52 5.47 5.12 5.95 5.12L26.79 5.12C27.27 5.12 27.66 5.52 27.66 6C27.66 6.48 27.27 6.87 26.79 6.87Z" fill="#1A2E35" fill-opacity="1.000000" fill-rule="nonzero"/>
		<path id="Vector" d="M54.99 3.81C53.79 3.81 52.8 4.79 52.8 6C52.8 7.2 53.79 8.19 54.99 8.19C56.2 8.19 57.18 7.2 57.18 6C57.18 4.79 56.2 3.81 54.99 3.81ZM54.99 6.92C54.49 6.92 54.07 6.5 54.07 6C54.07 5.49 54.49 5.08 54.99 5.08C55.5 5.08 55.91 5.49 55.91 6C55.91 6.5 55.5 6.92 54.99 6.92Z" fill="#1A2E35" fill-opacity="1.000000" fill-rule="nonzero"/>
		<path id="Vector" d="M48.75 3.81C47.54 3.81 46.56 4.79 46.56 6C46.56 7.2 47.54 8.19 48.75 8.19C49.96 8.19 50.94 7.2 50.94 6C50.94 4.79 49.96 3.81 48.75 3.81ZM48.75 6.92C48.24 6.92 47.83 6.5 47.83 6C47.83 5.49 48.24 5.08 48.75 5.08C49.26 5.08 49.67 5.49 49.67 6C49.67 6.5 49.26 6.92 48.75 6.92Z" fill="#1A2E35" fill-opacity="1.000000" fill-rule="nonzero"/>
		<path id="Vector" d="M42.51 3.81C41.3 3.81 40.32 4.79 40.32 6C40.32 7.2 41.3 8.19 42.51 8.19C43.71 8.19 44.7 7.2 44.7 6C44.7 4.79 43.71 3.81 42.51 3.81ZM42.51 6.92C42 6.92 41.59 6.5 41.59 6C41.59 5.49 42 5.08 42.51 5.08C43.01 5.08 43.42 5.49 43.42 6C43.42 6.5 43.01 6.92 42.51 6.92Z" fill="#1A2E35" fill-opacity="1.000000" fill-rule="nonzero"/>
		<path id="Vector" d="M19.06 49.06L5.08 49.06C4.73 49.06 4.44 49.34 4.44 49.69C4.44 50.04 4.73 50.33 5.08 50.33L19.06 50.33C19.41 50.33 19.69 50.04 19.69 49.69C19.69 49.34 19.41 49.06 19.06 49.06Z" fill="#1A2E35" fill-opacity="1.000000" fill-rule="nonzero"/>
		<path id="Vector" d="M19.06 55.28L5.08 55.28C4.73 55.28 4.44 55.56 4.44 55.91C4.44 56.26 4.73 56.55 5.08 56.55L19.06 56.55C19.41 56.55 19.69 56.26 19.69 55.91C19.69 55.56 19.41 55.28 19.06 55.28Z" fill="#1A2E35" fill-opacity="1.000000" fill-rule="nonzero"/>
		<path id="Vector" d="M19.06 52.17L5.08 52.17C4.73 52.17 4.44 52.45 4.44 52.8C4.44 53.15 4.73 53.44 5.08 53.44L19.06 53.44C19.41 53.44 19.69 53.15 19.69 52.8C19.69 52.45 19.41 52.17 19.06 52.17Z" fill="#1A2E35" fill-opacity="1.000000" fill-rule="nonzero"/>
		<path id="Vector" d="M37.48 49.06L23.51 49.06C23.15 49.06 22.87 49.34 22.87 49.69C22.87 50.04 23.15 50.33 23.51 50.33L37.48 50.33C37.84 50.33 38.12 50.04 38.12 49.69C38.12 49.34 37.84 49.06 37.48 49.06Z" fill="#1A2E35" fill-opacity="1.000000" fill-rule="nonzero"/>
		<path id="Vector" d="M37.48 55.28L23.51 55.28C23.15 55.28 22.87 55.56 22.87 55.91C22.87 56.26 23.15 56.55 23.51 56.55L37.48 56.55C37.84 56.55 38.12 56.26 38.12 55.91C38.12 55.56 37.84 55.28 37.48 55.28Z" fill="#1A2E35" fill-opacity="1.000000" fill-rule="nonzero"/>
		<path id="Vector" d="M37.48 52.17L23.51 52.17C23.15 52.17 22.87 52.45 22.87 52.8C22.87 53.15 23.15 53.44 23.51 53.44L37.48 53.44C37.84 53.44 38.12 53.15 38.12 52.8C38.12 52.45 37.84 52.17 37.48 52.17Z" fill="#1A2E35" fill-opacity="1.000000" fill-rule="nonzero"/>
		<path id="Vector" d="M55.91 49.06L41.93 49.06C41.58 49.06 41.3 49.34 41.3 49.69C41.3 50.04 41.58 50.33 41.93 50.33L55.91 50.33C56.26 50.33 56.55 50.04 56.55 49.69C56.55 49.34 56.26 49.06 55.91 49.06Z" fill="#1A2E35" fill-opacity="1.000000" fill-rule="nonzero"/>
		<path id="Vector" d="M55.91 55.28L41.93 55.28C41.58 55.28 41.3 55.56 41.3 55.91C41.3 56.26 41.58 56.55 41.93 56.55L55.91 56.55C56.26 56.55 56.55 56.26 56.55 55.91C56.55 55.56 56.26 55.28 55.91 55.28Z" fill="#1A2E35" fill-opacity="1.000000" fill-rule="nonzero"/>
		<path id="Vector" d="M55.91 52.17L41.93 52.17C41.58 52.17 41.3 52.45 41.3 52.8C41.3 53.15 41.58 53.44 41.93 53.44L55.91 53.44C56.26 53.44 56.55 53.15 56.55 52.8C56.55 52.45 56.26 52.17 55.91 52.17Z" fill="#1A2E35" fill-opacity="1.000000" fill-rule="nonzero"/>
		<path id="Vector" d="" fill="#1A2E35" fill-opacity="1.000000" fill-rule="nonzero"/>
		<path id="Vector" d="M17.79 33.91L6.35 33.91C5.3 33.91 4.44 34.76 4.44 35.81L4.44 43.97C4.44 45.02 5.3 45.88 6.35 45.88L17.79 45.88C18.84 45.88 19.69 45.02 19.69 43.97L19.69 35.81C19.69 34.76 18.84 33.91 17.79 33.91ZM18.42 43.97C18.42 44.32 18.14 44.61 17.79 44.61L6.35 44.61C6 44.61 5.71 44.32 5.71 43.97L5.71 35.81C5.71 35.46 6 35.18 6.35 35.18L17.79 35.18C18.14 35.18 18.42 35.46 18.42 35.81L18.42 43.97Z" fill="#1A2E35" fill-opacity="1.000000" fill-rule="nonzero"/>
		<path id="Vector" d="M54.64 33.91L43.2 33.91C42.15 33.91 41.3 34.76 41.3 35.81L41.3 43.97C41.3 45.02 42.15 45.88 43.2 45.88L54.64 45.88C55.69 45.88 56.55 45.02 56.55 43.97L56.55 35.81C56.55 34.76 55.69 33.91 54.64 33.91ZM55.28 43.97C55.28 44.32 54.99 44.61 54.64 44.61L43.2 44.61C42.85 44.61 42.57 44.32 42.57 43.97L42.57 35.81C42.57 35.46 42.85 35.18 43.2 35.18L54.64 35.18C54.99 35.18 55.28 35.46 55.28 35.81L55.28 43.97Z" fill="#1A2E35" fill-opacity="1.000000" fill-rule="nonzero"/>
	</g>
</svg>
